Mekorot-Vilna-Bold.ufo
<glyph name="exclam" format="2">
  <advance width="333"/>
  <unicode hex="0021"/>
  <outline>
    <contour>
      <point x="268.5" y="70" type="curve" smooth="yes"/>
      <point x="268.5" y="14.0225"/>
      <point x="222.099" y="-30.5"/>
      <point x="165" y="-30.5" type="curve" smooth="yes"/>
      <point x="104.7" y="-30.5"/>
      <point x="64.5" y="18.0371"/>
      <point x="64.5" y="72" type="curve" smooth="yes"/>
      <point x="64.5" y="126.888"/>
      <point x="109.938" y="173.5"/>
      <point x="166" y="173.5" type="curve" smooth="yes"/>
      <point x="222.934" y="173.5"/>
      <point x="268.5" y="126.527"/>
    </contour>
    <contour>
      <point x="195.748" y="216.5" type="line"/>
      <point x="135.252" y="216.5" type="line"/>
      <point x="133.597" y="232.16" type="line" smooth="yes"/>
      <point x="120.623" y="354.912"/>
      <point x="111.271" y="402.444"/>
      <point x="82.2764" y="496.846" type="curve" smooth="yes"/>
      <point x="68.4189" y="541.962"/>
      <point x="63.5" y="563.783"/>
      <point x="63.5" y="591" type="curve" smooth="yes"/>
      <point x="63.5" y="664.511"/>
      <point x="102.604" y="708.5"/>
      <point x="166" y="708.5" type="curve" smooth="yes"/>
      <point x="228.715" y="708.5"/>
      <point x="267.5" y="664.167"/>
      <point x="267.5" y="589" type="curve" smooth="yes"/>
      <point x="267.5" y="563.611"/>
      <point x="262.616" y="541.047"/>
      <point x="248.689" y="496.737" type="curve" smooth="yes"/>
      <point x="218.744" y="401.459"/>
      <point x="210.39" y="355.03"/>
      <point x="197.403" y="232.16" type="curve" smooth="yes"/>
    </contour>
  </outline>
</glyph>
<glyph name="quotedbl" format="2">
  <advance width="555"/>
  <unicode hex="0022"/>
  <outline>
    <contour>
      <point x="181.914" y="386.5" type="line"/>
      <point x="113.031" y="386.5" type="line"/>
      <point x="109.936" y="400.122" type="line" smooth="yes"/>
      <point x="106.018" y="417.361"/>
      <point x="100.518" y="441.96"/>
      <point x="99.1035" y="447.45" type="curve" smooth="yes"/>
      <point x="90.2168" y="481.968"/>
      <point x="65.5" y="585.541"/>
      <point x="65.5" y="620" type="curve" smooth="yes"/>
      <point x="65.5" y="671.062"/>
      <point x="98.0996" y="708.5"/>
      <point x="147" y="708.5" type="curve" smooth="yes"/>
      <point x="193.594" y="708.5"/>
      <point x="229.5" y="671.789"/>
      <point x="229.5" y="624" type="curve" smooth="yes"/>
      <point x="229.5" y="597.371"/>
      <point x="214.116" y="525.727"/>
      <point x="185.05" y="400.057" type="curve" smooth="yes"/>
    </contour>
    <contour>
      <point x="441.89" y="386.5" type="line"/>
      <point x="373.178" y="386.5" type="line"/>
      <point x="369.976" y="399.946" type="line" smooth="yes"/>
      <point x="366.223" y="415.708"/>
      <point x="361.093" y="438.669"/>
      <point x="358.824" y="448.55" type="curve" smooth="yes"/>
      <point x="350.671" y="484.048"/>
      <point x="325.5" y="585.811"/>
      <point x="325.5" y="620" type="curve" smooth="yes"/>
      <point x="325.5" y="671.062"/>
      <point x="358.1" y="708.5"/>
      <point x="407" y="708.5" type="curve" smooth="yes"/>
      <point x="453.594" y="708.5"/>
      <point x="489.5" y="671.789"/>
      <point x="489.5" y="624" type="curve" smooth="yes"/>
      <point x="489.5" y="596.958"/>
      <point x="471.131" y="511.952"/>
      <point x="445.043" y="400.027" type="curve" smooth="yes"/>
    </contour>
  </outline>
</glyph>
<glyph name="numbersign" format="2">
  <advance width="500"/>
  <unicode hex="0023"/>
  <outline>
    <contour>
      <point x="484.5" y="300.5" type="line"/>
      <point x="484.5" y="192.5" type="line"/>
      <point x="384.249" y="192.5" type="line"/>
      <point x="355.249" y="-17.5" type="line"/>
      <point x="241.917" y="-17.5" type="line"/>
      <point x="270.917" y="192.5" type="line"/>
      <point x="193.249" y="192.5" type="line"/>
      <point x="164.249" y="-17.5" type="line"/>
      <point x="50.917" y="-17.5" type="line"/>
      <point x="79.917" y="192.5" type="line"/>
      <point x="-13.5" y="192.5" type="line"/>
      <point x="-13.5" y="300.5" type="line"/>
      <point x="95.6934" y="300.5" type="line"/>
      <point x="108.992" y="399.5" type="line"/>
      <point x="15.5" y="399.5" type="line"/>
      <point x="15.5" y="507.5" type="line"/>
      <point x="123.822" y="507.5" type="line"/>
      <point x="153.822" y="717.5" type="line"/>
      <point x="266.083" y="717.5" type="line"/>
      <point x="237.083" y="507.5" type="line"/>
      <point x="314.822" y="507.5" type="line"/>
      <point x="344.822" y="717.5" type="line"/>
      <point x="457.083" y="717.5" type="line"/>
      <point x="428.083" y="507.5" type="line"/>
      <point x="513.5" y="507.5" type="line"/>
      <point x="513.5" y="399.5" type="line"/>
      <point x="413.307" y="399.5" type="line"/>
      <point x="400.008" y="300.5" type="line"/>
    </contour>
    <contour>
      <point x="299.992" y="399.5" type="line"/>
      <point x="222.307" y="399.5" type="line"/>
      <point x="209.008" y="300.5" type="line"/>
      <point x="286.693" y="300.5" type="line"/>
    </contour>
  </outline>
</glyph>
<glyph name="dollar" format="2">
  <advance width="570"/>
  <unicode hex="0024"/>
  <outline>
    <contour>
      <point x="498" y="463.5" type="line"/>
      <point x="446.354" y="463.5" type="line"/>
      <point x="442.692" y="476.126" type="line" smooth="yes"/>
      <point x="417.288" y="563.728"/>
      <point x="380.49" y="600.84"/>
      <point x="304" y="617.83" type="curve"/>
      <point x="304" y="437.817" type="line"/>
      <point x="428.589" y="392.686"/>
      <point x="460.85" y="371.207"/>
      <point x="496.6" y="331.988" type="curve" smooth="yes"/>
      <point x="525.914" y="299.831"/>
      <point x="542" y="254.35"/>
      <point x="542" y="204.272" type="curve" smooth="yes"/>
      <point x="542" y="146.606"/>
      <point x="523.538" y="97.6738"/>
      <point x="486.68" y="63.0039" type="curve" smooth="yes"/>
      <point x="453.563" y="31.8545"/>
      <point x="412.705" y="14.2354"/>
      <point x="304" y="0.00878906" type="curve"/>
      <point x="304" y="-99" type="line"/>
      <point x="214" y="-99" type="line"/>
      <point x="214" y="-3.56641" type="line"/>
      <point x="167.344" y="-0.670898"/>
      <point x="137.891" y="5.75977"/>
      <point x="56.7969" y="37.8682" type="curve" smooth="yes"/>
      <point x="46" y="42.1426" type="line"/>
      <point x="46" y="220.643" type="line"/>
      <point x="97.9219" y="215.921" type="line"/>
      <point x="101.279" y="205.103" type="line" smooth="yes"/>
      <point x="129.812" y="113.146"/>
      <point x="162.613" y="77.0879"/>
      <point x="213" y="62.166" type="curve"/>
      <point x="213" y="270.297" type="line"/>
      <point x="81.2393" y="334.827"/>
      <point x="29" y="395.275"/>
      <point x="29" y="485.865" type="curve" smooth="yes"/>
      <point x="29" y="551.593"/>
      <point x="62.8828" y="608.522"/>
      <point x="123.893" y="641.735" type="curve" smooth="yes"/>
      <point x="156.335" y="660.23"/>
      <point x="180.035" y="665.744"/>
      <point x="214" y="670.074" type="curve"/>
      <point x="214" y="750" type="line"/>
      <point x="304" y="750" type="line"/>
      <point x="304" y="671.25" type="line"/>
      <point x="407.692" y="660.009"/>
      <point x="443.962" y="648.55"/>
      <point x="489.457" y="623.552" type="curve" smooth="yes"/>
      <point x="498" y="618.857" type="line"/>
    </contour>
    <contour>
      <point x="397" y="134" type="curve" smooth="yes"/>
      <point x="397" y="174.435"/>
      <point x="386.759" y="188.574"/>
      <point x="304" y="219.656" type="curve"/>
      <point x="304" y="52.3545" type="line"/>
      <point x="366.545" y="64.7676"/>
      <point x="397" y="89.2432"/>
    </contour>
    <contour>
      <point x="159" y="554" type="curve" smooth="yes"/>
      <point x="159" y="525.483"/>
      <point x="172.407" y="499.824"/>
      <point x="213" y="480.101" type="curve"/>
      <point x="213" y="620.56" type="line"/>
      <point x="175.062" y="607.238"/>
      <point x="159" y="588.184"/>
    </contour>
  </outline>
</glyph>
<glyph name="percent" format="2">
  <advance width="1070"/>
  <unicode hex="0025"/>
  <outline>
    <contour>
      <point x="401.715" y="608.812" type="curve" smooth="yes"/>
      <point x="398.018" y="611.38"/>
      <point x="395.843" y="612.298"/>
      <point x="394.136" y="613.06" type="curve" smooth="yes"/>
      <point x="393.753" y="613.23"/>
      <point x="393.514" y="613.553"/>
      <point x="393.29" y="613.632" type="curve"/>
      <point x="393.079" y="613.632"/>
      <point x="391.734" y="613.517"/>
      <point x="389.579" y="612.7" type="curve" smooth="yes"/>
      <point x="378.124" y="608.361"/>
      <point x="363.098" y="595.938"/>
      <point x="345.179" y="571.207" type="curve" smooth="yes"/>
      <point x="307.35" y="518.999"/>
      <point x="275.757" y="434.983"/>
      <point x="272.971" y="394.885" type="curve" smooth="yes"/>
      <point x="272.926" y="394.231"/>
      <point x="272.862" y="392.288"/>
      <point x="272.862" y="391.633" type="curve" smooth="yes"/>
      <point x="272.862" y="371.153"/>
      <point x="285.868" y="357.5"/>
      <point x="305.378" y="357.5" type="curve" smooth="yes"/>
      <point x="336.621" y="357.5"/>
      <point x="360.703" y="379.509"/>
      <point x="383.447" y="410.888" type="curve" smooth="yes"/>
      <point x="429.268" y="474.105"/>
      <point x="441.752" y="537.366"/>
      <point x="441.752" y="569" type="curve" smooth="yes"/>
      <point x="441.752" y="584.028"/>
      <point x="438.13" y="590.815"/>
      <point x="422.953" y="596.656" type="curve" smooth="yes"/>
      <point x="418.981" y="598.185"/>
      <point x="415.745" y="599.059"/>
      <point x="410.669" y="602.376" type="curve" smooth="yes"/>
      <point x="408.709" y="603.657"/>
      <point x="408.443" y="604.14"/>
    </contour>
    <contour>
      <point x="734.135" y="692" type="curve" smooth="yes"/>
      <point x="806.23" y="692" type="line"/>
      <point x="361.731" y="-8" type="line"/>
      <point x="266.609" y="-8" type="line"/>
      <point x="626.629" y="579.52" type="line"/>
      <point x="590.878" y="569.616"/>
      <point x="563.603" y="567.5"/>
      <point x="545.227" y="567.5" type="curve" smooth="yes"/>
      <point x="533.285" y="567.5"/>
      <point x="522.938" y="568.299"/>
      <point x="513.378" y="569.479" type="curve"/>
      <point x="509.915" y="487.539"/>
      <point x="491.208" y="432.588"/>
      <point x="448.064" y="373.125" type="curve" smooth="yes"/>
      <point x="402.75" y="310.672"/>
      <point x="340.71" y="276.5"/>
      <point x="270.5" y="276.5" type="curve" smooth="yes"/>
      <point x="182.6" y="276.5"/>
      <point x="124" y="339.723"/>
      <point x="124" y="423.589" type="curve" smooth="yes"/>
      <point x="124" y="553.266"/>
      <point x="239.815" y="678"/>
      <point x="373.299" y="678" type="curve" smooth="yes"/>
      <point x="386.743" y="678"/>
      <point x="418.388" y="677.882"/>
      <point x="463.614" y="647.791" type="curve" smooth="yes"/>
      <point x="494.677" y="627.123"/>
      <point x="513.876" y="623"/>
      <point x="551.595" y="623" type="curve" smooth="yes"/>
      <point x="620.661" y="623"/>
      <point x="686.804" y="652.572"/>
      <point x="703.086" y="673.65" type="curve" smooth="yes"/>
      <point x="706.582" y="678.176"/>
      <point x="708.528" y="680.517"/>
      <point x="713.018" y="684.109" type="curve" smooth="yes"/>
      <point x="718.07" y="688.15"/>
      <point x="725.213" y="692"/>
    </contour>
    <contour>
      <point x="879" y="252.755" type="curve" smooth="yes"/>
      <point x="879" y="279.989"/>
      <point x="864.355" y="303.5"/>
      <point x="842.386" y="303.5" type="curve" smooth="yes"/>
      <point x="829.942" y="303.5"/>
      <point x="810.245" y="300.712"/>
      <point x="780.242" y="262.179" type="curve" smooth="yes"/>
      <point x="725.004" y="217.379"/>
      <point x="687" y="134.733"/>
      <point x="687" y="102.848" type="curve" smooth="yes"/>
      <point x="687" y="75.6719"/>
      <point x="701.717" y="67"/>
      <point x="725.522" y="67" type="curve" smooth="yes"/>
      <point x="746.712" y="67"/>
      <point x="787.133" y="75.5205"/>
      <point x="831.53" y="136.8" type="curve" smooth="yes"/>
      <point x="864.263" y="181.979"/>
      <point x="879" y="219.132"/>
    </contour>
    <contour>
      <point x="809.486" y="389.5" type="curve" smooth="yes"/>
      <point x="894.719" y="389.5"/>
      <point x="947" y="337.452"/>
      <point x="947" y="262.508" type="curve" smooth="yes"/>
      <point x="947" y="193.575"/>
      <point x="917.794" y="105.787"/>
      <point x="848.642" y="42.0068" type="curve" smooth="yes"/>
      <point x="810.333" y="10.6016"/>
      <point x="750.595" y="-14"/>
      <point x="685.5" y="-14" type="curve" smooth="yes"/>
      <point x="595.2" y="-14"/>
      <point x="535" y="46.8994"/>
      <point x="535" y="135.995" type="curve" smooth="yes"/>
      <point x="551.064" y="264.669"/>
      <point x="680.788" y="389.5"/>
    </contour>
  </outline>
</glyph>
<glyph name="parenleft" format="2">
  <advance width="333"/>
  <unicode hex="0028"/>
  <outline>
    <contour>
      <point x="323.5" y="723.139" type="line"/>
      <point x="323.5" y="657.635" type="line"/>
      <point x="315.707" y="652.439" type="line" smooth="yes"/>
      <point x="259.254" y="614.804"/>
      <point x="236.426" y="591.107"/>
      <point x="216.826" y="549.531" type="curve" smooth="yes"/>
      <point x="192.835" y="498.641"/>
      <point x="176.5" y="409.804"/>
      <point x="176.5" y="258" type="curve" smooth="yes"/>
      <point x="176.5" y="122.153"/>
      <point x="191.2" y="32.4336"/>
      <point x="218.806" y="-25.4883" type="curve" smooth="yes"/>
      <point x="238.883" y="-67.6143"/>
      <point x="262.021" y="-91.5264"/>
      <point x="315.345" y="-125.204" type="curve" smooth="yes"/>
      <point x="323.5" y="-130.354" type="line"/>
      <point x="323.5" y="-198.963" type="line"/>
      <point x="296.974" y="-182.992" type="line" smooth="yes"/>
      <point x="195.511" y="-121.907"/>
      <point x="151.186" y="-80.3193"/>
      <point x="104.229" y="-6.38379" type="curve" smooth="yes"/>
      <point x="54.1963" y="72.3926"/>
      <point x="28.5" y="164.801"/>
      <point x="28.5" y="259" type="curve" smooth="yes"/>
      <point x="28.5" y="381.13"/>
      <point x="68.6553" y="508.396"/>
      <point x="164.233" y="610.969" type="curve" smooth="yes"/>
      <point x="203.637" y="653.256"/>
      <point x="235.193" y="676.137"/>
      <point x="297.777" y="709.448" type="curve" smooth="yes"/>
    </contour>
  </outline>
</glyph>
<glyph name="parenright" format="2">
  <advance width="333"/>
  <unicode hex="0029"/>
  <outline>
    <contour>
      <point x="9.5" y="-197.139" type="line"/>
      <point x="9.5" y="-131.635" type="line"/>
      <point x="17.293" y="-126.439" type="line" smooth="yes"/>
      <point x="73.8789" y="-88.7148"/>
      <point x="97.2305" y="-64.5996"/>
      <point x="116.105" y="-23.6787" type="curve" smooth="yes"/>
      <point x="139.671" y="27.4102"/>
      <point x="156.5" y="116.196"/>
      <point x="156.5" y="268" type="curve" smooth="yes"/>
      <point x="156.5" y="402.824"/>
      <point x="141.779" y="493.612"/>
      <point x="114.194" y="551.488" type="curve" smooth="yes"/>
      <point x="94.1846" y="593.472"/>
      <point x="71.0605" y="616.535"/>
      <point x="17.4717" y="651.321" type="curve" smooth="yes"/>
      <point x="9.5" y="656.496" type="line"/>
      <point x="9.5" y="724.963" type="line"/>
      <point x="36.0264" y="708.992" type="line" smooth="yes"/>
      <point x="137.489" y="647.907"/>
      <point x="181.814" y="606.319"/>
      <point x="228.771" y="532.383" type="curve" smooth="yes"/>
      <point x="278.804" y="453.605"/>
      <point x="304.5" y="361.164"/>
      <point x="304.5" y="266" type="curve" smooth="yes"/>
      <point x="304.5" y="133.811"/>
      <point x="256.717" y="10.4355"/>
      <point x="167.81" y="-84.9229" type="curve" smooth="yes"/>
      <point x="128.772" y="-126.793"/>
      <point x="97.79" y="-150.146"/>
      <point x="35.2227" y="-183.448" type="curve" smooth="yes"/>
    </contour>
  </outline>
</glyph>
<glyph name="asterisk" format="2">
  <advance width="500"/>
  <unicode hex="002A"/>
  <outline>
    <contour>
      <point x="279.758" y="524.259" type="curve"/>
      <point x="296.043" y="538.043"/>
      <point x="306.306" y="549.877"/>
      <point x="326.488" y="579.774" type="curve" smooth="yes"/>
      <point x="351.171" y="616.337"/>
      <point x="367.536" y="626.5"/>
      <point x="395" y="626.5" type="curve" smooth="yes"/>
      <point x="429.95" y="626.5"/>
      <point x="464.5" y="596.425"/>
      <point x="464.5" y="559" type="curve" smooth="yes"/>
      <point x="464.5" y="533.017"/>
      <point x="443.172" y="505.062"/>
      <point x="417.956" y="493.943" type="curve" smooth="yes"/>
      <point x="408.63" y="489.832"/>
      <point x="397.435" y="486.325"/>
      <point x="366.406" y="485.51" type="curve" smooth="yes"/>
      <point x="336.937" y="484.736"/>
      <point x="324.566" y="482.455"/>
      <point x="308.127" y="473.7" type="curve"/>
      <point x="327.956" y="465.692"/>
      <point x="341.855" y="463.449"/>
      <point x="375.421" y="460.441" type="curve" smooth="yes"/>
      <point x="397.248" y="458.485"/>
      <point x="429.345" y="455.721"/>
      <point x="448.598" y="436.1" type="curve" smooth="yes"/>
      <point x="452.384" y="432.241"/>
      <point x="455.548" y="427.809"/>
      <point x="457.952" y="423.041" type="curve" smooth="yes"/>
      <point x="462.788" y="413.451"/>
      <point x="464.5" y="402.905"/>
      <point x="464.5" y="392" type="curve" smooth="yes"/>
      <point x="464.5" y="356.487"/>
      <point x="437.9" y="324.5"/>
      <point x="398" y="324.5" type="curve" smooth="yes"/>
      <point x="363.05" y="324.5"/>
      <point x="343.397" y="342.235"/>
      <point x="308.554" y="394.13" type="curve" smooth="yes"/>
      <point x="298.05" y="409.773"/>
      <point x="291.602" y="417.845"/>
      <point x="279.451" y="426.104" type="curve"/>
      <point x="283.178" y="400.529"/>
      <point x="287.949" y="387.847"/>
      <point x="303.577" y="356.974" type="curve" smooth="yes"/>
      <point x="310.675" y="342.951"/>
      <point x="319.5" y="327.048"/>
      <point x="319.5" y="307" type="curve" smooth="yes"/>
      <point x="319.5" y="270.438"/>
      <point x="292.1" y="237.5"/>
      <point x="251" y="237.5" type="curve" smooth="yes"/>
      <point x="211.7" y="237.5"/>
      <point x="185.5" y="268.938"/>
      <point x="185.5" y="312" type="curve" smooth="yes"/>
      <point x="185.5" y="334.152"/>
      <point x="191.488" y="347.898"/>
      <point x="202.776" y="367.626" type="curve" smooth="yes"/>
      <point x="216.732" y="392.016"/>
      <point x="220.909" y="403.823"/>
      <point x="222.469" y="423.163" type="curve"/>
      <point x="200.942" y="405.757"/>
      <point x="192.424" y="394.566"/>
      <point x="175.547" y="369.275" type="curve" smooth="yes"/>
      <point x="151.612" y="333.408"/>
      <point x="134.482" y="321.5"/>
      <point x="107" y="321.5" type="curve" smooth="yes"/>
      <point x="69.5742" y="321.5"/>
      <point x="39.5" y="351.59"/>
      <point x="39.5" y="389" type="curve" smooth="yes"/>
      <point x="39.5" y="418.4"/>
      <point x="54.0791" y="461.309"/>
      <point x="141.584" y="462.49" type="curve" smooth="yes"/>
      <point x="167.175" y="462.836"/>
      <point x="178.372" y="463.877"/>
      <point x="195.212" y="473.153" type="curve"/>
      <point x="172.355" y="482.14"/>
      <point x="157.692" y="484.461"/>
      <point x="122.571" y="487.559" type="curve" smooth="yes"/>
      <point x="110.52" y="488.621"/>
      <point x="82.7609" y="490.03"/>
      <point x="63.3115" y="502.675" type="curve" smooth="yes"/>
      <point x="58.1114" y="506.056"/>
      <point x="48.279" y="513.642"/>
      <point x="42.9004" y="528.178" type="curve" smooth="yes"/>
      <point x="39.5658" y="537.19"/>
      <point x="38.5" y="546.728"/>
      <point x="38.5" y="557" type="curve" smooth="yes"/>
      <point x="38.5" y="595.263"/>
      <point x="64.7002" y="623.5"/>
      <point x="104" y="623.5" type="curve" smooth="yes"/>
      <point x="136.935" y="623.5"/>
      <point x="157.243" y="609.882"/>
      <point x="181.864" y="570.235" type="curve" smooth="yes"/>
      <point x="198.113" y="544.07"/>
      <point x="204.049" y="534.356"/>
      <point x="224.287" y="521.206" type="curve"/>
      <point x="222.371" y="540.662"/>
      <point x="217.458" y="552.538"/>
      <point x="202.638" y="579.619" type="curve" smooth="yes"/>
      <point x="190.445" y="601.9"/>
      <point x="182.5" y="616.481"/>
      <point x="182.5" y="641" type="curve" smooth="yes"/>
      <point x="182.5" y="681.5"/>
      <point x="215.362" y="708.5"/>
      <point x="252" y="708.5" type="curve" smooth="yes"/>
      <point x="291.3" y="708.5"/>
      <point x="317.5" y="676.225"/>
      <point x="317.5" y="636" type="curve" smooth="yes"/>
      <point x="317.5" y="613.355"/>
      <point x="310.896" y="599.255"/>
      <point x="299.097" y="579.153" type="curve" smooth="yes"/>
      <point x="287.635" y="559.626"/>
      <point x="281.098" y="544.877"/>
    </contour>
  </outline>
</glyph>
<glyph name="period" format="2">
  <advance width="250"/>
  <unicode hex="002E"/>
  <outline>
    <contour>
      <point x="227.5" y="70" type="curve" smooth="yes"/>
      <point x="227.5" y="14.0225"/>
      <point x="181.099" y="-30.5"/>
      <point x="124" y="-30.5" type="curve" smooth="yes"/>
      <point x="63.7002" y="-30.5"/>
      <point x="23.5" y="18.0371"/>
      <point x="23.5" y="72" type="curve" smooth="yes"/>
      <point x="23.5" y="126.888"/>
      <point x="68.9375" y="173.5"/>
      <point x="125" y="173.5" type="curve" smooth="yes"/>
      <point x="181.934" y="173.5"/>
      <point x="227.5" y="126.527"/>
    </contour>
  </outline>
</glyph>
<glyph name="slash" format="2">
  <advance width="278"/>
  <unicode hex="002F"/>
  <outline>
    <contour>
      <point x="326.259" y="708.5" type="line"/>
      <point x="78.625" y="-36.5" type="line"/>
      <point x="-48.2588" y="-36.5" type="line"/>
      <point x="199.375" y="708.5" type="line"/>
    </contour>
  </outline>
</glyph>
<glyph name="one" format="2">
  <advance width="535"/>
  <unicode hex="0031"/>
  <outline>
    <contour>
      <point x="330.877" y="688" type="line"/>
      <point x="369" y="688" type="line"/>
      <point x="369" y="100.5" type="line" smooth="yes"/>
      <point x="369" y="35.5381"/>
      <point x="378.15" y="25.792"/>
      <point x="459.885" y="23.9961" type="curve" smooth="yes"/>
      <point x="477" y="23.6191" type="line"/>
      <point x="477" y="-35" type="line"/>
      <point x="67" y="-35" type="line"/>
      <point x="67" y="23.8242" type="line"/>
      <point x="84.3232" y="23.999" type="line" smooth="yes"/>
      <point x="174.729" y="24.9121"/>
      <point x="186" y="37.1562"/>
      <point x="186" y="106.5" type="curve" smooth="yes"/>
      <point x="186" y="491.5" type="line" smooth="yes"/>
      <point x="185.49" y="517.423"/>
      <point x="183.614" y="525.28"/>
      <point x="180.613" y="532.761" type="curve" smooth="yes"/>
      <point x="179.464" y="535.626"/>
      <point x="177.5" y="543"/>
      <point x="167.5" y="543" type="curve" smooth="yes"/>
      <point x="159.953" y="543"/>
      <point x="140.615" y="538.859"/>
      <point x="110.044" y="527.63" type="curve"/>
      <point x="105.561" y="525.143"/>
      <point x="98.5801" y="522.414"/>
      <point x="88.0342" y="518.898" type="curve" smooth="yes"/>
      <point x="65" y="511.22" type="line"/>
      <point x="65" y="572.997" type="line"/>
    </contour>
  </outline>
</glyph>
<glyph name="four" format="2">
  <advance width="570"/>
  <unicode hex="0034"/>
  <outline>
    <contour>
      <point x="482" y="688" type="line"/>
      <point x="482" y="272.5" type="line"/>
      <point x="545" y="272.5" type="line"/>
      <point x="545" y="126.5" type="line"/>
      <point x="482" y="126.5" type="line"/>
      <point x="482" y="-17.5" type="line"/>
      <point x="301.34" y="-17.5" type="line"/>
      <point x="301.34" y="126.5" type="line"/>
      <point x="19" y="126.5" type="line"/>
      <point x="19" y="262.063" type="line"/>
      <point x="21.7041" y="266.345" type="line" smooth="yes"/>
      <point x="82.1084" y="358.173"/>
      <point x="148.521" y="447.029"/>
      <point x="311.609" y="607.486" type="curve" smooth="yes"/>
      <point x="375.862" y="688" type="line"/>
    </contour>
    <contour>
      <point x="111.214" y="272.5" type="line"/>
      <point x="304" y="272.5" type="line"/>
      <point x="304" y="496.723" type="line"/>
    </contour>
  </outline>
</glyph>
<glyph name="five" format="2">
  <advance width="535"/>
  <unicode hex="0035"/>
  <outline>
    <contour>
      <point x="179.881" y="514" type="line"/>
      <point x="167.007" y="469.58" type="line"/>
      <point x="233.729" y="465.395"/>
      <point x="264.289" y="461.156"/>
      <point x="300.326" y="451.511" type="curve" smooth="yes"/>
      <point x="416.541" y="420.405"/>
      <point x="486" y="338.829"/>
      <point x="486" y="234.257" type="curve" smooth="yes"/>
      <point x="486" y="92.0234"/>
      <point x="359.888" y="-8"/>
      <point x="186.5" y="-8" type="curve" smooth="yes"/>
      <point x="86.4814" y="-8"/>
      <point x="22" y="34.2002"/>
      <point x="22" y="97.5" type="curve" smooth="yes"/>
      <point x="22" y="141.721"/>
      <point x="55.2539" y="175"/>
      <point x="101.5" y="175" type="curve" smooth="yes"/>
      <point x="123.39" y="175"/>
      <point x="154.852" y="168.424"/>
      <point x="210.974" y="126.52" type="curve" smooth="yes"/>
      <point x="252.656" y="95.3965"/>
      <point x="274.6" y="88"/>
      <point x="290.5" y="88" type="curve" smooth="yes"/>
      <point x="337.082" y="88"/>
      <point x="373" y="121.896"/>
      <point x="373" y="165.865" type="curve" smooth="yes"/>
      <point x="373" y="218.444"/>
      <point x="328.158" y="267.319"/>
      <point x="243.221" y="292.635" type="curve" smooth="yes"/>
      <point x="201.083" y="305.194"/>
      <point x="162.081" y="310.795"/>
      <point x="67.2139" y="317.393" type="curve" smooth="yes"/>
      <point x="45.8564" y="318.878" type="line"/>
      <point x="152.242" y="676" type="line"/>
      <point x="511.901" y="676" type="line"/>
      <point x="457.051" y="514" type="line"/>
    </contour>
  </outline>
</glyph>
<glyph name="six" format="2">
  <advance width="570"/>
  <unicode hex="0036"/>
  <outline>
    <contour>
      <point x="520.025" y="687.824" type="curve" smooth="yes"/>
      <point x="540" y="690.678" type="line"/>
      <point x="540" y="634.153" type="line"/>
      <point x="526.022" y="631.468" type="line" smooth="yes"/>
      <point x="396.182" y="606.464"/>
      <point x="308.549" y="543.104"/>
      <point x="257.236" y="431.696" type="curve"/>
      <point x="282.018" y="436.588"/>
      <point x="306.327" y="438.5"/>
      <point x="334.611" y="438.5" type="curve" smooth="yes"/>
      <point x="463.2" y="438.5"/>
      <point x="545" y="356.978"/>
      <point x="545" y="230.078" type="curve" smooth="yes"/>
      <point x="545" y="90.2559"/>
      <point x="446.541" y="-13"/>
      <point x="297.188" y="-13" type="curve" smooth="yes"/>
      <point x="127.8" y="-13"/>
      <point x="28" y="101.883"/>
      <point x="28" y="276.063" type="curve" smooth="yes"/>
      <point x="28" y="407.728"/>
      <point x="89.4707" y="519.942"/>
      <point x="206.602" y="596.493" type="curve" smooth="yes"/>
      <point x="306.518" y="647.391"/>
      <point x="382.788" y="669.151"/>
    </contour>
    <contour>
      <point x="261.101" y="358.5" type="curve" smooth="yes"/>
      <point x="247.216" y="358.5"/>
      <point x="236.558" y="356.045"/>
      <point x="230.516" y="353.839" type="curve"/>
      <point x="224.411" y="339.867"/>
      <point x="219.17" y="298.198"/>
      <point x="219" y="248.234" type="curve" smooth="yes"/>
      <point x="218.801" y="169.799"/>
      <point x="230.143" y="97.9951"/>
      <point x="252.442" y="67.5342" type="curve" smooth="yes"/>
      <point x="261.731" y="54.8467"/>
      <point x="278.045" y="49"/>
      <point x="299.861" y="49" type="curve" smooth="yes"/>
      <point x="341.761" y="49"/>
      <point x="358" y="59.3193"/>
      <point x="358" y="172.516" type="curve" smooth="yes"/>
      <point x="358" y="335.885"/>
      <point x="319.24" y="358.5"/>
    </contour>
  </outline>
</glyph>
<glyph name="seven" format="2">
  <advance width="570"/>
  <unicode hex="0037"/>
  <outline>
    <contour>
      <point x="557.92" y="676" type="line"/>
      <point x="294.182" y="-35" type="line"/>
      <point x="143.149" y="-35" type="line"/>
      <point x="372.404" y="504" type="line"/>
      <point x="161.358" y="504" type="line" smooth="yes"/>
      <point x="112.574" y="504"/>
      <point x="96.1855" y="485.755"/>
      <point x="80.085" y="431.52" type="curve" smooth="yes"/>
      <point x="76.3682" y="419" type="line"/>
      <point x="17" y="419" type="line"/>
      <point x="67.9365" y="676" type="line"/>
    </contour>
  </outline>
</glyph>
<glyph name="eight" format="2">
  <advance width="570"/>
  <unicode hex="0038"/>
  <outline>
    <contour>
      <point x="155.979" y="328.755" type="curve"/>
      <point x="74.0674" y="381.508"/>
      <point x="39" y="435.035"/>
      <point x="39" y="504.654" type="curve" smooth="yes"/>
      <point x="39" y="614.662"/>
      <point x="136.201" y="688"/>
      <point x="303.168" y="688" type="curve" smooth="yes"/>
      <point x="446.047" y="688"/>
      <point x="528" y="626.091"/>
      <point x="528" y="533.228" type="curve" smooth="yes"/>
      <point x="528" y="471.368"/>
      <point x="491.329" y="429.465"/>
      <point x="412.124" y="396.937" type="curve"/>
      <point x="502.99" y="335.983"/>
      <point x="542" y="275.415"/>
      <point x="542" y="194.157" type="curve" smooth="yes"/>
      <point x="542" y="70.1426"/>
      <point x="440.683" y="-13"/>
      <point x="274.765" y="-13" type="curve" smooth="yes"/>
      <point x="122.479" y="-13"/>
      <point x="28" y="57.7549"/>
      <point x="28" y="165.584" type="curve" smooth="yes"/>
      <point x="28" y="235.64"/>
      <point x="66.5996" y="272.488"/>
      <point x="77.3574" y="282.354" type="curve" smooth="yes"/>
      <point x="95.5029" y="298.998"/>
      <point x="113.07" y="312.533"/>
    </contour>
    <contour>
      <point x="207.463" y="558.5" type="curve" smooth="yes"/>
      <point x="207.463" y="506.812"/>
      <point x="265.209" y="460.799"/>
      <point x="340" y="427.09" type="curve"/>
      <point x="367.343" y="458.544"/>
      <point x="374" y="478.339"/>
      <point x="374" y="518.5" type="curve" smooth="yes"/>
      <point x="374" y="567.75"/>
      <point x="357.998" y="624"/>
      <point x="288.349" y="624" type="curve" smooth="yes"/>
      <point x="239.818" y="624"/>
      <point x="207.463" y="594.525"/>
    </contour>
    <contour>
      <point x="368" y="144.5" type="curve" smooth="yes"/>
      <point x="368" y="207.157"/>
      <point x="346.507" y="235.228"/>
      <point x="231.316" y="299.118" type="curve"/>
      <point x="194.514" y="252.962"/>
      <point x="184" y="226.181"/>
      <point x="184" y="178.5" type="curve" smooth="yes"/>
      <point x="184" y="122.737"/>
      <point x="203.635" y="54"/>
      <point x="282.174" y="54" type="curve" smooth="yes"/>
      <point x="350.834" y="54"/>
      <point x="368" y="104.825"/>
    </contour>
  </outline>
</glyph>
<glyph name="colon" format="2">
  <advance width="333"/>
  <unicode hex="003A"/>
  <outline>
    <contour>
      <point x="268.5" y="70" type="curve" smooth="yes"/>
      <point x="268.5" y="14.0225"/>
      <point x="222.099" y="-30.5"/>
      <point x="165" y="-30.5" type="curve" smooth="yes"/>
      <point x="104.7" y="-30.5"/>
      <point x="64.5" y="18.0371"/>
      <point x="64.5" y="72" type="curve" smooth="yes"/>
      <point x="64.5" y="126.888"/>
      <point x="109.938" y="173.5"/>
      <point x="166" y="173.5" type="curve" smooth="yes"/>
      <point x="222.934" y="173.5"/>
      <point x="268.5" y="126.527"/>
    </contour>
    <contour>
      <point x="268.5" y="387" type="curve" smooth="yes"/>
      <point x="268.5" y="331.17"/>
      <point x="222.594" y="285.5"/>
      <point x="166" y="285.5" type="curve" smooth="yes"/>
      <point x="108.577" y="285.5"/>
      <point x="64.5" y="329.955"/>
      <point x="64.5" y="389" type="curve" smooth="yes"/>
      <point x="64.5" y="443.997"/>
      <point x="110.241" y="489.5"/>
      <point x="166" y="489.5" type="curve" smooth="yes"/>
      <point x="222.632" y="489.5"/>
      <point x="268.5" y="443.629"/>
    </contour>
  </outline>
</glyph>
<glyph name="semicolon" format="2">
  <advance width="333"/>
  <unicode hex="003B"/>
  <outline>
    <contour>
      <point x="268.5" y="387" type="curve" smooth="yes"/>
      <point x="268.5" y="331.17"/>
      <point x="222.594" y="285.5"/>
      <point x="166" y="285.5" type="curve" smooth="yes"/>
      <point x="108.577" y="285.5"/>
      <point x="64.5" y="329.955"/>
      <point x="64.5" y="389" type="curve" smooth="yes"/>
      <point x="64.5" y="443.997"/>
      <point x="110.241" y="489.5"/>
      <point x="166" y="489.5" type="curve" smooth="yes"/>
      <point x="222.632" y="489.5"/>
      <point x="268.5" y="443.629"/>
    </contour>
    <contour>
      <point x="92.6592" y="-204.449" type="line"/>
      <point x="66.5645" y="-152.261" type="line"/>
      <point x="79.0293" y="-143.618" type="line" smooth="yes"/>
      <point x="163.219" y="-85.2448"/>
      <point x="180.757" y="-48.7227"/>
      <point x="180.5" y="-25" type="curve" smooth="yes"/>
      <point x="180.479" y="-23.0527"/>
      <point x="179.973" y="-22.1484"/>
      <point x="179.08" y="-21.3613" type="curve"/>
      <point x="174.448" y="-21.5" type="line"/>
      <point x="162.448" y="-23.5" type="line"/>
      <point x="153" y="-23.5" type="line" smooth="yes"/>
      <point x="139.941" y="-23.5"/>
      <point x="112.466" y="-15.835"/>
      <point x="96.584" y="-2.25781" type="curve" smooth="yes"/>
      <point x="74.585" y="16.5488"/>
      <point x="64.5" y="42.1963"/>
      <point x="64.5" y="72" type="curve" smooth="yes"/>
      <point x="64.5" y="131.044"/>
      <point x="104.7" y="172.5"/>
      <point x="165" y="172.5" type="curve" smooth="yes"/>
      <point x="236.1" y="172.5"/>
      <point x="283.5" y="116.138"/>
      <point x="283.5" y="39" type="curve" smooth="yes"/>
      <point x="283.5" y="-54.6611"/>
      <point x="229.211" y="-125.579"/>
      <point x="108.753" y="-195.154" type="curve" smooth="yes"/>
    </contour>
  </outline>
</glyph>
<glyph name="greater" format="2">
  <advance width="570"/>
  <unicode hex="003E"/>
  <outline>
    <contour>
      <point x="13.5" y="-38.7939" type="line"/>
      <point x="13.5" y="95.4297" type="line"/>
      <point x="372.461" y="253" type="line"/>
      <point x="13.5" y="410.57" type="line"/>
      <point x="13.5" y="544.794" type="line"/>
      <point x="556.5" y="306.43" type="line"/>
      <point x="556.5" y="199.57" type="line"/>
    </contour>
  </outline>
</glyph>
<glyph name="question" format="2">
  <advance width="500"/>
  <unicode hex="003F"/>
  <outline>
    <contour>
      <point x="270.5" y="213.5" type="line"/>
      <point x="206.628" y="213.5" type="line"/>
      <point x="205.539" y="229.836" type="line" smooth="yes"/>
      <point x="203.545" y="259.749"/>
      <point x="203.5" y="265.911"/>
      <point x="203.5" y="277" type="curve" smooth="yes"/>
      <point x="203.5" y="308.906"/>
      <point x="213.172" y="335.981"/>
      <point x="237.519" y="382.158" type="curve" smooth="yes"/>
      <point x="264.291" y="432.938"/>
      <point x="278.5" y="466.688"/>
      <point x="278.5" y="523" type="curve" smooth="yes"/>
      <point x="278.5" y="574.65"/>
      <point x="265.199" y="635.854"/>
      <point x="212" y="635.5" type="curve" smooth="yes"/>
      <point x="200.602" y="635.425"/>
      <point x="183.258" y="633.96"/>
      <point x="173.218" y="623.863" type="curve" smooth="yes"/>
      <point x="171.662" y="622.299"/>
      <point x="168.391" y="618.902"/>
      <point x="168.5" y="613" type="curve" smooth="yes"/>
      <point x="168.545" y="610.559"/>
      <point x="168.295" y="609.322"/>
      <point x="170.748" y="605.647" type="curve" smooth="yes"/>
      <point x="172.178" y="603.504"/>
      <point x="174.945" y="600.222"/>
      <point x="178.95" y="595.77" type="curve" smooth="yes"/>
      <point x="198.259" y="574.305"/>
      <point x="205.5" y="558.067"/>
      <point x="205.5" y="533" type="curve" smooth="yes"/>
      <point x="205.5" y="486.112"/>
      <point x="173.3" y="451.5"/>
      <point x="125" y="451.5" type="curve" smooth="yes"/>
      <point x="73.7002" y="451.5"/>
      <point x="39.5" y="494.244"/>
      <point x="39.5" y="545" type="curve" smooth="yes"/>
      <point x="39.5" y="641.361"/>
      <point x="128.363" y="706.5"/>
      <point x="245" y="706.5" type="curve" smooth="yes"/>
      <point x="374.354" y="706.5"/>
      <point x="462.5" y="633.1"/>
      <point x="462.5" y="523" type="curve" smooth="yes"/>
      <point x="462.5" y="447.701"/>
      <point x="428.787" y="401.065"/>
      <point x="333.191" y="342.108" type="curve" smooth="yes"/>
      <point x="277.392" y="307.694"/>
      <point x="270.5" y="300.155"/>
      <point x="270.5" y="231" type="curve" smooth="yes"/>
    </contour>
    <contour>
      <point x="340.5" y="71" type="curve" smooth="yes"/>
      <point x="340.5" y="14.5664"/>
      <point x="295.427" y="-30.5"/>
      <point x="239" y="-30.5" type="curve" smooth="yes"/>
      <point x="185.188" y="-30.5"/>
      <point x="136.5" y="10.5"/>
      <point x="136.5" y="72" type="curve" smooth="yes"/>
      <point x="136.5" y="127.193"/>
      <point x="184.309" y="173.5"/>
      <point x="239" y="173.5" type="curve" smooth="yes"/>
      <point x="295.099" y="173.5"/>
      <point x="340.5" y="126.689"/>
    </contour>
  </outline>
</glyph>
<glyph name="A" format="2">
  <advance width="792"/>
  <unicode hex="0041"/>
  <outline>
    <contour>
      <point x="759" y="25" type="line"/>
      <point x="759" y="0" type="line"/>
      <point x="382.377" y="0" type="line"/>
      <point x="382.377" y="25" type="line"/>
      <point x="398.634" y="25" type="line" smooth="yes"/>
      <point x="413.448" y="27.2031"/>
      <point x="427.938" y="28.3145"/>
      <point x="435.395" y="28.5605" type="curve" smooth="yes"/>
      <point x="439.83" y="28.708"/>
      <point x="449.291" y="29.3291"/>
      <point x="458.201" y="32.2295" type="curve" smooth="yes"/>
      <point x="468.476" y="35.5742"/>
      <point x="468.934" y="39.4365"/>
      <point x="468.934" y="46.0342" type="curve" smooth="yes"/>
      <point x="468.934" y="72.5664"/>
      <point x="443.727" y="136.031"/>
      <point x="425.679" y="179.5" type="curve"/>
      <point x="207.659" y="179.5" type="line"/>
      <point x="196.086" y="148.144" type="line" smooth="yes"/>
      <point x="170.268" y="78.9688"/>
      <point x="165.765" y="58.7568"/>
      <point x="165.984" y="51.5391" type="curve" smooth="yes"/>
      <point x="166.196" y="44.5391"/>
      <point x="166.992" y="41.6963"/>
      <point x="174.9" y="37.3262" type="curve" smooth="yes"/>
      <point x="185.583" y="31.4238"/>
      <point x="205.486" y="27.2295"/>
      <point x="237.051" y="25" type="curve" smooth="yes"/>
      <point x="254.705" y="25" type="line"/>
      <point x="254.705" y="0" type="line"/>
      <point x="9" y="0" type="line"/>
      <point x="9" y="25" type="line"/>
      <point x="23.2754" y="25" type="line" smooth="yes"/>
      <point x="63.8398" y="32.6025"/>
      <point x="72.1641" y="42.9727"/>
      <point x="108.29" y="131.347" type="curve" smooth="yes"/>
      <point x="349.602" y="690" type="line"/>
      <point x="405.195" y="690" type="line"/>
      <point x="648.612" y="153.329" type="line" smooth="yes"/>
      <point x="697.918" y="36.9678"/>
      <point x="710.074" y="25"/>
      <point x="737.5" y="25" type="curve" smooth="yes"/>
    </contour>
    <contour>
      <point x="313.221" y="432.001" type="line"/>
      <point x="238.511" y="253.5" type="line"/>
      <point x="393.495" y="253.5" type="line"/>
    </contour>
  </outline>
</glyph>
<glyph name="B" format="2">
  <advance width="737"/>
  <unicode hex="0042"/>
  <outline>
    <contour>
      <point x="16" y="676" type="line"/>
      <point x="355.083" y="676" type="line" smooth="yes"/>
      <point x="550.326" y="676"/>
      <point x="655" y="618.135"/>
      <point x="655" y="507.237" type="curve" smooth="yes"/>
      <point x="655" y="440.281"/>
      <point x="621.478" y="398.101"/>
      <point x="539.448" y="366.067" type="curve"/>
      <point x="570.489" y="356.579"/>
      <point x="600.063" y="343.272"/>
      <point x="628.996" y="319.168" type="curve" smooth="yes"/>
      <point x="688.157" y="269.881"/>
      <point x="689" y="210.774"/>
      <point x="689" y="195.384" type="curve" smooth="yes"/>
      <point x="689" y="78.1533"/>
      <point x="569.6" y="0"/>
      <point x="368.861" y="0" type="curve" smooth="yes"/>
      <point x="16" y="0" type="line"/>
      <point x="16" y="25" type="line"/>
      <point x="31.5938" y="25" type="line" smooth="yes"/>
      <point x="97.7246" y="32.6758"/>
      <point x="104" y="40.6123"/>
      <point x="104" y="81.7666" type="curve" smooth="yes"/>
      <point x="104" y="594.313" type="line" smooth="yes"/>
      <point x="104" y="634.887"/>
      <point x="94.9551" y="647.165"/>
      <point x="32.4873" y="651" type="curve" smooth="yes"/>
      <point x="16" y="651" type="line"/>
    </contour>
    <contour>
      <point x="314.456" y="325.5" type="curve" smooth="yes"/>
      <point x="299" y="325.5" type="line"/>
      <point x="299" y="93" type="line" smooth="yes"/>
      <point x="299" y="58.1992"/>
      <point x="311.912" y="49.5"/>
      <point x="352.787" y="49.5" type="curve" smooth="yes"/>
      <point x="430.315" y="49.5"/>
      <point x="482" y="81.9316"/>
      <point x="482" y="179" type="curve" smooth="yes"/>
      <point x="482" y="291.119"/>
      <point x="414.982" y="325.5"/>
    </contour>
    <contour>
      <point x="299" y="597" type="curve" smooth="yes"/>
      <point x="299" y="391.137" type="line"/>
      <point x="427.469" y="395.989"/>
      <point x="455" y="421.224"/>
      <point x="455" y="509" type="curve" smooth="yes"/>
      <point x="455" y="604.6"/>
      <point x="411.423" y="628.5"/>
      <point x="346.058" y="628.5" type="curve" smooth="yes"/>
      <point x="331.55" y="628.5"/>
      <point x="321.163" y="627.16"/>
      <point x="314.936" y="625.322" type="curve" smooth="yes"/>
      <point x="307.092" y="623.008"/>
      <point x="304.202" y="619.643"/>
      <point x="302.325" y="615.82" type="curve" smooth="yes"/>
      <point x="298.944" y="608.903"/>
      <point x="299.215" y="601.713"/>
    </contour>
  </outline>
</glyph>
<glyph name="C" format="2">
  <advance width="792"/>
  <unicode hex="0043"/>
  <outline>
    <contour>
      <point x="708.117" y="193.433" type="line"/>
      <point x="764.669" y="146.306" type="line"/>
      <point x="752.508" y="132.793" type="line" smooth="yes"/>
      <point x="707.328" y="82.5928"/>
      <point x="683.636" y="60.5957"/>
      <point x="650.341" y="38.0293" type="curve" smooth="yes"/>
      <point x="582.596" y="-5.37402"/>
      <point x="510.609" y="-19"/>
      <point x="437.694" y="-19" type="curve" smooth="yes"/>
      <point x="202.599" y="-19"/>
      <point x="49" y="128.486"/>
      <point x="49" y="333.141" type="curve" smooth="yes"/>
      <point x="49" y="536.946"/>
      <point x="206.027" y="691"/>
      <point x="431.048" y="691" type="curve" smooth="yes"/>
      <point x="487.267" y="691"/>
      <point x="543.867" y="679.572"/>
      <point x="610.421" y="654.57" type="curve" smooth="yes"/>
      <point x="626.348" y="648.357"/>
      <point x="642.75" y="641.835"/>
      <point x="650.5" y="642" type="curve" smooth="yes"/>
      <point x="655.244" y="642.101"/>
      <point x="658.067" y="642.099"/>
      <point x="662.926" y="647.79" type="curve" smooth="yes"/>
      <point x="664.655" y="649.815"/>
      <point x="669.852" y="655.999"/>
      <point x="678.252" y="676.999" type="curve" smooth="yes"/>
      <point x="682.652" y="688" type="line"/>
      <point x="739" y="688" type="line"/>
      <point x="739" y="419" type="line"/>
      <point x="685.293" y="419" type="line"/>
      <point x="680.604" y="429.18" type="line" smooth="yes"/>
      <point x="641.483" y="514.128"/>
      <point x="618.016" y="540.655"/>
      <point x="579.856" y="571.462" type="curve" smooth="yes"/>
      <point x="534.879" y="607.771"/>
      <point x="492.392" y="623"/>
      <point x="445.449" y="623" type="curve" smooth="yes"/>
      <point x="297.89" y="623"/>
      <point x="261" y="479.963"/>
      <point x="261" y="341.147" type="curve" smooth="yes"/>
      <point x="261" y="248.496"/>
      <point x="276.228" y="183.502"/>
      <point x="306.219" y="137.368" type="curve" smooth="yes"/>
      <point x="334.105" y="94.4688"/>
      <point x="396.971" y="64"/>
      <point x="464.282" y="64" type="curve" smooth="yes"/>
      <point x="492.562" y="64"/>
      <point x="527.17" y="70.1279"/>
      <point x="556.773" y="80.7432" type="curve" smooth="yes"/>
      <point x="608.041" y="99.127"/>
      <point x="638.142" y="119.898"/>
      <point x="696.822" y="181.563" type="curve" smooth="yes"/>
    </contour>
  </outline>
</glyph>
<glyph name="D" format="2">
  <advance width="792"/>
  <unicode hex="0044"/>
  <outline>
    <contour>
      <point x="97" y="76.376" type="curve" smooth="yes"/>
      <point x="97" y="598.495" type="line" smooth="yes"/>
      <point x="97" y="633.877"/>
      <point x="88.0625" y="645.223"/>
      <point x="29.8662" y="651" type="curve" smooth="yes"/>
      <point x="14" y="651" type="line"/>
      <point x="14" y="676" type="line"/>
      <point x="343.2" y="676" type="line" smooth="yes"/>
      <point x="613.094" y="676"/>
      <point x="760" y="549.098"/>
      <point x="760" y="344.655" type="curve" smooth="yes"/>
      <point x="760" y="139.507"/>
      <point x="609.032" y="0"/>
      <point x="355.935" y="0" type="curve" smooth="yes"/>
      <point x="14" y="0" type="line"/>
      <point x="14" y="25" type="line"/>
      <point x="30.8965" y="25" type="line" smooth="yes"/>
      <point x="86.1621" y="27.0186"/>
      <point x="97" y="46.0996"/>
    </contour>
    <contour>
      <point x="294" y="590.57" type="curve" smooth="yes"/>
      <point x="294" y="108.021" type="line" smooth="yes"/>
      <point x="294" y="93.666"/>
      <point x="295.72" y="86.7236"/>
      <point x="298.004" y="81.9863" type="curve" smooth="yes"/>
      <point x="300.579" y="76.6475"/>
      <point x="304.271" y="74.6777"/>
      <point x="308.78" y="73.2471" type="curve" smooth="yes"/>
      <point x="314.622" y="71.3945"/>
      <point x="321.797" y="70.0752"/>
      <point x="340.885" y="70" type="curve" smooth="yes"/>
      <point x="409.614" y="69.7295"/>
      <point x="459.325" y="88.5605"/>
      <point x="494.66" y="127.992" type="curve" smooth="yes"/>
      <point x="522.45" y="159.005"/>
      <point x="551" y="230.292"/>
      <point x="551" y="330.521" type="curve" smooth="yes"/>
      <point x="551" y="368.459"/>
      <point x="546.75" y="453.923"/>
      <point x="505.683" y="520.311" type="curve" smooth="yes"/>
      <point x="470.011" y="577.976"/>
      <point x="418.921" y="607"/>
      <point x="342.043" y="607" type="curve" smooth="yes"/>
      <point x="323.984" y="607"/>
      <point x="312.126" y="604.882"/>
      <point x="305.512" y="602.66" type="curve" smooth="yes"/>
      <point x="292.936" y="598.377"/>
      <point x="294.26" y="593.119"/>
    </contour>
  </outline>
</glyph>
<glyph name="E" format="2">
  <advance width="737"/>
  <unicode hex="0045"/>
  <outline>
    <contour>
      <point x="16" y="676" type="line"/>
      <point x="663" y="676" type="line"/>
      <point x="663" y="451.617" type="line"/>
      <point x="605.983" y="451.617" type="line"/>
      <point x="603.301" y="465.183" type="line" smooth="yes"/>
      <point x="580.487" y="580.544"/>
      <point x="536.829" y="610.659"/>
      <point x="355.584" y="610.396" type="curve" smooth="yes"/>
      <point x="329.844" y="610.359"/>
      <point x="322.83" y="609.28"/>
      <point x="315.166" y="607.476" type="curve" smooth="yes"/>
      <point x="306.236" y="605.373"/>
      <point x="303.492" y="603.304"/>
      <point x="301.864" y="594.214" type="curve" smooth="yes"/>
      <point x="301.309" y="591.113"/>
      <point x="301" y="587.139"/>
      <point x="301" y="582.349" type="curve" smooth="yes"/>
      <point x="301" y="378.585" type="line"/>
      <point x="397.893" y="381.22"/>
      <point x="432.051" y="410.904"/>
      <point x="447.112" y="505.605" type="curve" smooth="yes"/>
      <point x="449.412" y="520.073" type="line"/>
      <point x="517.038" y="520.073" type="line"/>
      <point x="517.038" y="165.435" type="line"/>
      <point x="448.913" y="165.435" type="line"/>
      <point x="447.047" y="180.361" type="line" smooth="yes"/>
      <point x="435.024" y="276.528"/>
      <point x="399.161" y="308.844"/>
      <point x="301" y="312.454" type="curve"/>
      <point x="301" y="99.3555" type="line" smooth="yes"/>
      <point x="301.524" y="84.1631"/>
      <point x="303.513" y="79.9268"/>
      <point x="306.328" y="76.2002" type="curve" smooth="yes"/>
      <point x="307.428" y="74.7441"/>
      <point x="308.635" y="73.583"/>
      <point x="310.25" y="72.4473" type="curve" smooth="yes"/>
      <point x="319.075" y="66.2441"/>
      <point x="337.932" y="62.751"/>
      <point x="376.268" y="62.751" type="curve" smooth="yes"/>
      <point x="443.383" y="62.751"/>
      <point x="509.702" y="71.2725"/>
      <point x="567.055" y="109.464" type="curve" smooth="yes"/>
      <point x="601.455" y="135.427"/>
      <point x="618.849" y="158.166"/>
      <point x="649.617" y="221.387" type="curve" smooth="yes"/>
      <point x="654.314" y="231.038" type="line"/>
      <point x="714.686" y="231.038" type="line"/>
      <point x="667.955" y="0" type="line"/>
      <point x="16" y="0" type="line"/>
      <point x="16" y="24.2949" type="line"/>
      <point x="31.6191" y="25" type="line" smooth="yes"/>
      <point x="98.3418" y="32.6396"/>
      <point x="104" y="39.4395"/>
      <point x="104" y="81.7637" type="curve" smooth="yes"/>
      <point x="104" y="594.313" type="line" smooth="yes"/>
      <point x="104" y="634.887"/>
      <point x="94.9551" y="647.164"/>
      <point x="32.4873" y="651" type="curve" smooth="yes"/>
      <point x="16" y="651.398" type="line"/>
    </contour>
  </outline>
</glyph>
<glyph name="I" format="2">
  <advance width="424"/>
  <unicode hex="0049"/>
  <outline>
    <contour>
      <point x="113" y="81.7373" type="curve" smooth="yes"/>
      <point x="113" y="594.299" type="line" smooth="yes"/>
      <point x="113" y="633.785"/>
      <point x="103.447" y="646.061"/>
      <point x="36.2881" y="651" type="curve" smooth="yes"/>
      <point x="20" y="651" type="line"/>
      <point x="20" y="676" type="line"/>
      <point x="405" y="676" type="line"/>
      <point x="405" y="651" type="line"/>
      <point x="388.209" y="651" type="line" smooth="yes"/>
      <point x="319.445" y="648.047"/>
      <point x="310" y="634.68"/>
      <point x="310" y="594.321" type="curve" smooth="yes"/>
      <point x="310" y="81.7041" type="line" smooth="yes"/>
      <point x="310" y="41.0566"/>
      <point x="317.981" y="29.9248"/>
      <point x="388.648" y="25" type="curve" smooth="yes"/>
      <point x="405" y="25" type="line"/>
      <point x="405" y="0" type="line"/>
      <point x="20" y="0" type="line"/>
      <point x="20" y="25" type="line"/>
      <point x="35.874" y="25" type="line" smooth="yes"/>
      <point x="105.508" y="31.8838"/>
      <point x="113" y="42.7637"/>
    </contour>
  </outline>
</glyph>
<glyph name="M" format="2">
  <advance width="1049"/>
  <unicode hex="004D"/>
  <outline>
    <contour>
      <point x="748" y="82.5762" type="curve" smooth="yes"/>
      <point x="713" y="503.516" type="line"/>
      <point x="490.197" y="0" type="line"/>
      <point x="439.914" y="0" type="line"/>
      <point x="182" y="490.488" type="line"/>
      <point x="182" y="106.547" type="line" smooth="yes"/>
      <point x="182" y="42.5303"/>
      <point x="196.524" y="30.2852"/>
      <point x="280.088" y="25" type="curve" smooth="yes"/>
      <point x="298.858" y="25" type="line"/>
      <point x="298.858" y="0" type="line"/>
      <point x="14" y="0" type="line"/>
      <point x="14" y="25" type="line"/>
      <point x="29.7148" y="25" type="line" smooth="yes"/>
      <point x="98.8447" y="32.5088"/>
      <point x="105" y="39.3613"/>
      <point x="105" y="91.2812" type="curve" smooth="yes"/>
      <point x="105" y="594.284" type="line" smooth="yes"/>
      <point x="105" y="636.135"/>
      <point x="98.2148" y="645.243"/>
      <point x="32.0664" y="651" type="curve" smooth="yes"/>
      <point x="16" y="651" type="line"/>
      <point x="16" y="676" type="line"/>
      <point x="306.283" y="676" type="line"/>
      <point x="526.417" y="231.354" type="line"/>
      <point x="709.691" y="676" type="line"/>
      <point x="991" y="676" type="line"/>
      <point x="991" y="651" type="line"/>
      <point x="974.695" y="651" type="line" smooth="yes"/>
      <point x="912.496" y="646.488"/>
      <point x="903" y="638.32"/>
      <point x="903" y="572.069" type="curve" smooth="yes"/>
      <point x="938" y="104.037" type="line" smooth="yes"/>
      <point x="938" y="38.2471"/>
      <point x="943.698" y="34.0986"/>
      <point x="1010.73" y="25" type="curve" smooth="yes"/>
      <point x="1026" y="25" type="line"/>
      <point x="1026" y="0" type="line"/>
      <point x="645.019" y="0" type="line"/>
      <point x="645.019" y="25" type="line"/>
      <point x="663.387" y="25" type="line" smooth="yes"/>
      <point x="740.63" y="31.2314"/>
      <point x="748" y="38.0879"/>
    </contour>
  </outline>
</glyph>
<glyph name="N" format="2">
  <advance width="792"/>
  <unicode hex="004E"/>
  <outline>
    <contour>
      <point x="262.26" y="676" type="line"/>
      <point x="614" y="313.664" type="line"/>
      <point x="614" y="569.422" type="line" smooth="yes"/>
      <point x="614" y="631.372"/>
      <point x="599.611" y="644.952"/>
      <point x="530.033" y="651" type="curve" smooth="yes"/>
      <point x="512.78" y="651.625" type="line"/>
      <point x="512.78" y="676" type="line"/>
      <point x="771" y="676" type="line"/>
      <point x="771" y="651.955" type="line"/>
      <point x="756.161" y="651" type="line" smooth="yes"/>
      <point x="700.424" y="642.427"/>
      <point x="693" y="635.931"/>
      <point x="693" y="588.316" type="curve" smooth="yes"/>
      <point x="693" y="-18" type="line"/>
      <point x="639.229" y="-18" type="line"/>
      <point x="183" y="459.756" type="line"/>
      <point x="183" y="106.618" type="line" smooth="yes"/>
      <point x="183" y="44.791"/>
      <point x="196.359" y="32.8633"/>
      <point x="269.561" y="25" type="curve" smooth="yes"/>
      <point x="286.396" y="24.2451" type="line"/>
      <point x="286.396" y="0" type="line"/>
      <point x="16" y="0" type="line"/>
      <point x="16" y="24.209" type="line"/>
      <point x="31.3584" y="25" type="line" smooth="yes"/>
      <point x="96.166" y="33.4707"/>
      <point x="104" y="42.4033"/>
      <point x="104" y="91.3994" type="curve" smooth="yes"/>
      <point x="104" y="587.1" type="line"/>
      <point x="69.3145" y="630.296"/>
      <point x="52.7168" y="647.646"/>
      <point x="41.4219" y="651" type="curve" smooth="yes"/>
      <point x="40.3242" y="651"/>
      <point x="39.3164" y="651"/>
      <point x="38.2227" y="651" type="curve" smooth="yes"/>
      <point x="38.2227" y="651"/>
      <point x="39.5693" y="651"/>
      <point x="36.5" y="651" type="curve" smooth="yes"/>
      <point x="19" y="651" type="line"/>
      <point x="19" y="676" type="line"/>
    </contour>
  </outline>
</glyph>
<glyph name="O" format="2">
  <advance width="848"/>
  <unicode hex="004F"/>
  <outline>
    <contour>
      <point x="428.439" y="691" type="curve" smooth="yes"/>
      <point x="655.661" y="691"/>
      <point x="813" y="539.896"/>
      <point x="813" y="336" type="curve" smooth="yes"/>
      <point x="813" y="128.82"/>
      <point x="657.247" y="-19"/>
      <point x="424" y="-19" type="curve" smooth="yes"/>
      <point x="190.825" y="-19"/>
      <point x="35" y="127.292"/>
      <point x="35" y="335.047" type="curve" smooth="yes"/>
      <point x="35" y="541.635"/>
      <point x="191.129" y="691"/>
    </contour>
    <contour>
      <point x="427.329" y="623" type="curve" smooth="yes"/>
      <point x="283.066" y="623"/>
      <point x="247" y="470.033"/>
      <point x="247" y="326.574" type="curve" smooth="yes"/>
      <point x="247" y="192.524"/>
      <point x="282.4" y="49"/>
      <point x="424" y="49" type="curve" smooth="yes"/>
      <point x="565.6" y="49"/>
      <point x="601" y="192.812"/>
      <point x="601" y="329.402" type="curve" smooth="yes"/>
      <point x="601" y="523.836"/>
      <point x="531.26" y="623"/>
    </contour>
  </outline>
</glyph>
<glyph name="Q" format="2">
  <advance width="848"/>
  <unicode hex="0051"/>
  <outline>
    <contour>
      <point x="795.107" y="-77.7754" type="line"/>
      <point x="809.315" y="-134.606" type="line"/>
      <point x="794.428" y="-139.966" type="line" smooth="yes"/>
      <point x="718.662" y="-167.241"/>
      <point x="672.101" y="-176"/>
      <point x="609.5" y="-176" type="curve" smooth="yes"/>
      <point x="508.121" y="-176"/>
      <point x="410.107" y="-142.729"/>
      <point x="343.685" y="-82.874" type="curve" smooth="yes"/>
      <point x="317.923" y="-59.6592"/>
      <point x="302.734" y="-38.4844"/>
      <point x="281.167" y="1.55566" type="curve"/>
      <point x="201.838" y="28.6777"/>
      <point x="169.959" y="49.3047"/>
      <point x="128.484" y="93.1514" type="curve" smooth="yes"/>
      <point x="67.6523" y="157.466"/>
      <point x="35" y="241.371"/>
      <point x="35" y="331.738" type="curve" smooth="yes"/>
      <point x="35" y="539.074"/>
      <point x="193.392" y="691"/>
      <point x="424" y="691" type="curve" smooth="yes"/>
      <point x="656.351" y="691"/>
      <point x="813" y="542.426"/>
      <point x="813" y="334.585" type="curve" smooth="yes"/>
      <point x="813" y="247.854"/>
      <point x="784.604" y="158.604"/>
      <point x="714.272" y="87.1758" type="curve" smooth="yes"/>
      <point x="673.074" y="45.3359"/>
      <point x="639.544" y="24.7598"/>
      <point x="563.513" y="1.2334" type="curve"/>
      <point x="577.001" y="-22.0928"/>
      <point x="585.872" y="-32.6191"/>
      <point x="601.874" y="-47.126" type="curve" smooth="yes"/>
      <point x="632.579" y="-77.8311"/>
      <point x="672.962" y="-94"/>
      <point x="715.5" y="-94" type="curve" smooth="yes"/>
      <point x="732.396" y="-94"/>
      <point x="746.026" y="-91.5791"/>
      <point x="777.762" y="-82.6533" type="curve" smooth="yes"/>
    </contour>
    <contour>
      <point x="425.11" y="623" type="curve" smooth="yes"/>
      <point x="282.622" y="623"/>
      <point x="247" y="457.362"/>
      <point x="247" y="313.5" type="curve" smooth="yes"/>
      <point x="247" y="164.292"/>
      <point x="282.4" y="14"/>
      <point x="424" y="14" type="curve" smooth="yes"/>
      <point x="565.6" y="14"/>
      <point x="601" y="167.182"/>
      <point x="601" y="312.5" type="curve" smooth="yes"/>
      <point x="601" y="518.221"/>
      <point x="531.609" y="623"/>
    </contour>
  </outline>
</glyph>
<glyph name="R" format="2">
  <advance width="792"/>
  <unicode hex="0052"/>
  <outline>
    <contour>
      <point x="785" y="25" type="line"/>
      <point x="785" y="0" type="line"/>
      <point x="553.093" y="0" type="line"/>
      <point x="311.108" y="295.5" type="line"/>
      <point x="311" y="295.5" type="line"/>
      <point x="311" y="104.76" type="line" smooth="yes"/>
      <point x="311" y="38.3682"/>
      <point x="317.661" y="34.1816"/>
      <point x="396.017" y="25" type="curve" smooth="yes"/>
      <point x="413.873" y="25" type="line"/>
      <point x="413.873" y="0" type="line"/>
      <point x="26" y="0" type="line"/>
      <point x="26" y="25" type="line"/>
      <point x="41.4941" y="25" type="line" smooth="yes"/>
      <point x="108.371" y="33.1719"/>
      <point x="114" y="36.3691"/>
      <point x="114" y="104.014" type="curve" smooth="yes"/>
      <point x="114" y="572.066" type="line" smooth="yes"/>
      <point x="114" y="638.474"/>
      <point x="105.273" y="646.495"/>
      <point x="42.3203" y="651" type="curve" smooth="yes"/>
      <point x="26" y="651" type="line"/>
      <point x="26" y="676" type="line"/>
      <point x="378.389" y="676" type="line" smooth="yes"/>
      <point x="655.068" y="676"/>
      <point x="700" y="558.7"/>
      <point x="700" y="480.5" type="curve" smooth="yes"/>
      <point x="700" y="431.416"/>
      <point x="682.576" y="386.032"/>
      <point x="649.29" y="355.569" type="curve" smooth="yes"/>
      <point x="626.147" y="334.389"/>
      <point x="605.118" y="320.598"/>
      <point x="553.341" y="302.388" type="curve"/>
      <point x="740.586" y="36.8779" type="line" smooth="yes"/>
      <point x="747.582" y="27.7842"/>
      <point x="755.877" y="25"/>
      <point x="767.5" y="25" type="curve" smooth="yes"/>
    </contour>
    <contour>
      <point x="311" y="582.5" type="curve" smooth="yes"/>
      <point x="311" y="345.37" type="line"/>
      <point x="388.372" y="347.221"/>
      <point x="421.445" y="354.302"/>
      <point x="445.667" y="367.139" type="curve" smooth="yes"/>
      <point x="484.014" y="387.462"/>
      <point x="494" y="428.117"/>
      <point x="494" y="476.5" type="curve" smooth="yes"/>
      <point x="494" y="567.484"/>
      <point x="461.512" y="607"/>
      <point x="356.132" y="607" type="curve" smooth="yes"/>
      <point x="339.894" y="607"/>
      <point x="329.604" y="605.456"/>
      <point x="323.556" y="603.73" type="curve" smooth="yes"/>
      <point x="318.595" y="602.315"/>
      <point x="317.529" y="601.66"/>
      <point x="316.971" y="601.085" type="curve"/>
      <point x="314.819" y="597.605"/>
      <point x="311" y="586.335"/>
    </contour>
  </outline>
</glyph>
<glyph name="S" format="2">
  <advance width="626"/>
  <unicode hex="0053"/>
  <outline>
    <contour>
      <point x="554" y="440" type="line"/>
      <point x="495.575" y="440" type="line"/>
      <point x="491.773" y="452.354" type="line" smooth="yes"/>
      <point x="472.973" y="513.457"/>
      <point x="458.381" y="540.95"/>
      <point x="423.838" y="574.301" type="curve" smooth="yes"/>
      <point x="368.735" y="623.069"/>
      <point x="314.572" y="625"/>
      <point x="295.488" y="625" type="curve" smooth="yes"/>
      <point x="228.848" y="625"/>
      <point x="188" y="597.124"/>
      <point x="188" y="546.753" type="curve" smooth="yes"/>
      <point x="188" y="509.835"/>
      <point x="207.036" y="490.462"/>
      <point x="296.378" y="454.451" type="curve" smooth="yes"/>
      <point x="463.305" y="385.196" type="line" smooth="yes"/>
      <point x="532.916" y="352.185"/>
      <point x="583" y="275.572"/>
      <point x="583" y="197.722" type="curve" smooth="yes"/>
      <point x="583" y="68.292"/>
      <point x="474.748" y="-19"/>
      <point x="297.812" y="-19" type="curve" smooth="yes"/>
      <point x="245.565" y="-19"/>
      <point x="199.743" y="-11.2959"/>
      <point x="147.03" y="5.87793" type="curve" smooth="yes"/>
      <point x="136.463" y="9.43066"/>
      <point x="118.636" y="15.2031"/>
      <point x="111.5" y="15" type="curve" smooth="yes"/>
      <point x="107.271" y="14.8799"/>
      <point x="105.905" y="15.3896"/>
      <point x="102.587" y="7.54297" type="curve" smooth="yes"/>
      <point x="101.269" y="4.42773"/>
      <point x="99.8662" y="0.0390625"/>
      <point x="98.5166" y="-5.58398" type="curve" smooth="yes"/>
      <point x="95.2969" y="-19" type="line"/>
      <point x="35" y="-19" type="line"/>
      <point x="35" y="263" type="line"/>
      <point x="95.2588" y="263" type="line"/>
      <point x="98.5059" y="249.63" type="line" smooth="yes"/>
      <point x="115.363" y="180.215"/>
      <point x="127.275" y="150.722"/>
      <point x="153.482" y="116.021" type="curve" smooth="yes"/>
      <point x="187.124" y="71.4746"/>
      <point x="239.85" y="49"/>
      <point x="301.299" y="49" type="curve" smooth="yes"/>
      <point x="378.633" y="49"/>
      <point x="427.38" y="83.8203"/>
      <point x="427.38" y="140.511" type="curve" smooth="yes"/>
      <point x="427.38" y="180.039"/>
      <point x="408.653" y="200.442"/>
      <point x="308.805" y="239.332" type="curve" smooth="yes"/>
      <point x="230.936" y="269.682" type="line" smooth="yes"/>
      <point x="101.481" y="325.764"/>
      <point x="44" y="390.758"/>
      <point x="44" y="481.899" type="curve" smooth="yes"/>
      <point x="44" y="609.524"/>
      <point x="133.647" y="691"/>
      <point x="295.488" y="691" type="curve" smooth="yes"/>
      <point x="341.886" y="691"/>
      <point x="382.63" y="684.581"/>
      <point x="438.199" y="668.006" type="curve" smooth="yes"/>
      <point x="455.792" y="661.947"/>
      <point x="467.299" y="657.787"/>
      <point x="474.5" y="658" type="curve" smooth="yes"/>
      <point x="480.475" y="658.177"/>
      <point x="481.827" y="657.127"/>
      <point x="486.104" y="668.074" type="curve" smooth="yes"/>
      <point x="487.229" y="670.957"/>
      <point x="488.408" y="674.618"/>
      <point x="489.602" y="679.05" type="curve" smooth="yes"/>
      <point x="493.088" y="692" type="line"/>
      <point x="554" y="692" type="line"/>
    </contour>
  </outline>
</glyph>
<glyph name="T" format="2">
  <advance width="772"/>
  <unicode hex="0054"/>
  <outline>
    <contour>
      <point x="288.263" y="99.5508" type="curve" smooth="yes"/>
      <point x="288.263" y="608.081" type="line"/>
      <point x="146.252" y="600.306"/>
      <point x="109.31" y="554.598"/>
      <point x="95.0869" y="455.045" type="curve" smooth="yes"/>
      <point x="92.9404" y="440.021" type="line"/>
      <point x="31" y="440.021" type="line"/>
      <point x="34.5215" y="676" type="line"/>
      <point x="739.09" y="676" type="line"/>
      <point x="741.438" y="440.015" type="line"/>
      <point x="679.585" y="440.015" type="line"/>
      <point x="677.438" y="455.039" type="line" smooth="yes"/>
      <point x="662.103" y="562.386"/>
      <point x="618.256" y="601.055"/>
      <point x="485.263" y="608.086" type="curve"/>
      <point x="485.263" y="99.5361" type="line" smooth="yes"/>
      <point x="485.263" y="34.0801"/>
      <point x="493.295" y="30.2529"/>
      <point x="601.967" y="25" type="curve" smooth="yes"/>
      <point x="618.263" y="25" type="line"/>
      <point x="618.263" y="0" type="line"/>
      <point x="156.263" y="0" type="line"/>
      <point x="156.263" y="25" type="line"/>
      <point x="172.343" y="25" type="line" smooth="yes"/>
      <point x="279.989" y="31.1201"/>
      <point x="288.263" y="35.7002"/>
    </contour>
  </outline>
</glyph>
<glyph name="U" format="2">
  <advance width="792"/>
  <unicode hex="0055"/>
  <outline>
    <contour>
      <point x="693" y="583.312" type="curve" smooth="yes"/>
      <point x="693" y="264.411" type="line" smooth="yes"/>
      <point x="693" y="170.866"/>
      <point x="667.002" y="87.7354"/>
      <point x="615.853" y="44.1631" type="curve" smooth="yes"/>
      <point x="562.585" y="3.54688"/>
      <point x="480.422" y="-19"/>
      <point x="393.537" y="-19" type="curve" smooth="yes"/>
      <point x="308.468" y="-19"/>
      <point x="239.061" y="-0.237305"/>
      <point x="187.226" y="37.3262" type="curve" smooth="yes"/>
      <point x="122.417" y="84.293"/>
      <point x="98" y="137.85"/>
      <point x="98" y="242.466" type="curve" smooth="yes"/>
      <point x="98" y="576.423" type="line" smooth="yes"/>
      <point x="98" y="639.93"/>
      <point x="90.3525" y="645.142"/>
      <point x="31.7588" y="651" type="curve" smooth="yes"/>
      <point x="16" y="651" type="line"/>
      <point x="16" y="676" type="line"/>
      <point x="400.829" y="676" type="line"/>
      <point x="400.829" y="651" type="line"/>
      <point x="382.012" y="651" type="line" smooth="yes"/>
      <point x="335.857" y="649.285"/>
      <point x="318.657" y="647.05"/>
      <point x="308.91" y="639.365" type="curve" smooth="yes"/>
      <point x="298.201" y="630.925"/>
      <point x="292" y="615.342"/>
      <point x="292" y="576.486" type="curve" smooth="yes"/>
      <point x="292" y="242.495" type="line" smooth="yes"/>
      <point x="292" y="98.8301"/>
      <point x="350.117" y="65"/>
      <point x="437.293" y="65" type="curve" smooth="yes"/>
      <point x="543.317" y="65"/>
      <point x="614" y="109.326"/>
      <point x="614" y="264.482" type="curve" smooth="yes"/>
      <point x="614" y="569.455" type="line" smooth="yes"/>
      <point x="614" y="632.657"/>
      <point x="598.805" y="645.746"/>
      <point x="522.177" y="651" type="curve" smooth="yes"/>
      <point x="504.049" y="651" type="line"/>
      <point x="504.049" y="676" type="line"/>
      <point x="771" y="676" type="line"/>
      <point x="771" y="651" type="line"/>
      <point x="756.201" y="651" type="line" smooth="yes"/>
      <point x="702.007" y="642.535"/>
      <point x="693" y="633.774"/>
    </contour>
  </outline>
</glyph>
<glyph name="X" format="2">
  <advance width="792"/>
  <unicode hex="0058"/>
  <outline>
    <contour>
      <point x="758" y="676" type="line"/>
      <point x="758" y="651" type="line"/>
      <point x="742.148" y="651" type="line" smooth="yes"/>
      <point x="673.39" y="644.111"/>
      <point x="651.222" y="626.06"/>
      <point x="566.654" y="503.93" type="curve" smooth="yes"/>
      <point x="493.667" y="396.677" type="line"/>
      <point x="669.14" y="107.708" type="line" smooth="yes"/>
      <point x="714.54" y="35.584"/>
      <point x="725.235" y="25.835"/>
      <point x="752.015" y="25" type="curve" smooth="yes"/>
      <point x="769" y="25" type="line"/>
      <point x="769" y="0" type="line"/>
      <point x="366.024" y="0" type="line"/>
      <point x="366.024" y="25" type="line"/>
      <point x="384.139" y="25" type="line" smooth="yes"/>
      <point x="397.29" y="41.3828"/>
      <point x="409.9" y="58.6348"/>
      <point x="416.475" y="61.9854" type="curve" smooth="yes"/>
      <point x="420.522" y="62.0996"/>
      <point x="434.623" y="62.8174"/>
      <point x="446.037" y="66.2119" type="curve" smooth="yes"/>
      <point x="450.423" y="67.5176"/>
      <point x="455.713" y="69.0996"/>
      <point x="455.713" y="72.5" type="curve" smooth="yes"/>
      <point x="455.713" y="81.4307"/>
      <point x="443.878" y="104.901"/>
      <point x="435.17" y="117.198" type="curve" smooth="yes"/>
      <point x="337.115" y="257.484" type="line"/>
      <point x="311.706" y="227.067" type="line" smooth="yes"/>
      <point x="280.333" y="186.233"/>
      <point x="219.715" y="107.19"/>
      <point x="220" y="83.5" type="curve" smooth="yes"/>
      <point x="220.074" y="77.3574"/>
      <point x="220.768" y="74.9043"/>
      <point x="228.933" y="71.0479" type="curve" smooth="yes"/>
      <point x="238.995" y="51.3867"/>
      <point x="255.275" y="37.1797"/>
      <point x="285.213" y="25" type="curve" smooth="yes"/>
      <point x="301" y="25" type="line"/>
      <point x="301" y="0" type="line"/>
      <point x="16" y="0" type="line"/>
      <point x="16" y="25" type="line"/>
      <point x="31.415" y="25" type="line" smooth="yes"/>
      <point x="74.6016" y="30.4883"/>
      <point x="95.3838" y="40.3193"/>
      <point x="123.844" y="77.4863" type="curve" smooth="yes"/>
      <point x="290.799" y="300.745" type="line"/>
      <point x="100.061" y="597.583" type="line" smooth="yes"/>
      <point x="70.9482" y="642.33"/>
      <point x="61.3496" y="648.503"/>
      <point x="33.0469" y="651" type="curve" smooth="yes"/>
      <point x="17" y="651" type="line"/>
      <point x="17" y="676" type="line"/>
      <point x="427.964" y="676" type="line"/>
      <point x="427.964" y="651" type="line"/>
      <point x="409.665" y="651" type="line" smooth="yes"/>
      <point x="398.772" y="638.41"/>
      <point x="381.162" y="617.712"/>
      <point x="373.904" y="614.014" type="curve" smooth="yes"/>
      <point x="369.065" y="613.878"/>
      <point x="360.273" y="613.383"/>
      <point x="351.201" y="611.504" type="curve" smooth="yes"/>
      <point x="339.155" y="609.01"/>
      <point x="338.973" y="606.531"/>
      <point x="339.018" y="600.5" type="curve" smooth="yes"/>
      <point x="339.029" y="598.959"/>
      <point x="338.995" y="597.466"/>
      <point x="339.309" y="595.484" type="curve" smooth="yes"/>
      <point x="339.492" y="594.335"/>
      <point x="339.711" y="593.518"/>
      <point x="340.241" y="592.239" type="curve" smooth="yes"/>
      <point x="341.435" y="589.357"/>
      <point x="343.665" y="585.416"/>
      <point x="352.735" y="573.02" type="curve" smooth="yes"/>
      <point x="446.235" y="444.602" type="line"/>
      <point x="467.424" y="470.874"/>
      <point x="483.94" y="492.148"/>
      <point x="490.615" y="501.146" type="curve" smooth="yes"/>
      <point x="540.922" y="568.959"/>
      <point x="545.279" y="583.388"/>
      <point x="545" y="596.5" type="curve" smooth="yes"/>
      <point x="544.808" y="605.542"/>
      <point x="544.91" y="608.053"/>
      <point x="533.853" y="610.96" type="curve" smooth="yes"/>
      <point x="528.457" y="612.378"/>
      <point x="520.353" y="613.485"/>
      <point x="509.626" y="614.021" type="curve" smooth="yes"/>
      <point x="507.236" y="614.142" type="line"/>
      <point x="504.966" y="614.898" type="line" smooth="yes"/>
      <point x="503.501" y="629.479"/>
      <point x="501.633" y="607.638"/>
      <point x="488.567" y="651" type="curve" smooth="yes"/>
      <point x="473" y="651" type="line"/>
      <point x="473" y="676" type="line"/>
    </contour>
  </outline>
</glyph>
<glyph name="Y" format="2">
  <advance width="792"/>
  <unicode hex="0059"/>
  <outline>
    <contour>
      <point x="769" y="676" type="line"/>
      <point x="769" y="651" type="line"/>
      <point x="754.046" y="651" type="line" smooth="yes"/>
      <point x="725.183" y="646.506"/>
      <point x="710.812" y="638.467"/>
      <point x="698.285" y="618.131" type="curve" smooth="yes"/>
      <point x="510" y="293.537" type="line"/>
      <point x="510" y="103.964" type="line" smooth="yes"/>
      <point x="510" y="35.832"/>
      <point x="516.866" y="32.3271"/>
      <point x="609.39" y="25" type="curve" smooth="yes"/>
      <point x="630" y="25" type="line"/>
      <point x="630" y="0" type="line"/>
      <point x="192.647" y="0" type="line"/>
      <point x="192.647" y="25" type="line"/>
      <point x="213.095" y="25" type="line" smooth="yes"/>
      <point x="305.165" y="32.3516"/>
      <point x="313" y="36.8975"/>
      <point x="313" y="103.984" type="curve" smooth="yes"/>
      <point x="313" y="254.891" type="line"/>
      <point x="97.2949" y="602.084" type="line" smooth="yes"/>
      <point x="79.7959" y="633.588"/>
      <point x="58.8467" y="649.295"/>
      <point x="31.4727" y="651" type="curve" smooth="yes"/>
      <point x="15" y="651" type="line"/>
      <point x="15" y="676" type="line"/>
      <point x="409.719" y="676" type="line"/>
      <point x="409.719" y="651" type="line"/>
      <point x="362.958" y="615.007" type="line" smooth="yes"/>
      <point x="357.664" y="614.911"/>
      <point x="345.145" y="615.091"/>
      <point x="333.935" y="613.199" type="curve" smooth="yes"/>
      <point x="321.078" y="611.03"/>
      <point x="319.859" y="608.865"/>
      <point x="319.859" y="602.5" type="curve" smooth="yes"/>
      <point x="319.859" y="594.811"/>
      <point x="324.127" y="585.705"/>
      <point x="337.37" y="564.022" type="curve" smooth="yes"/>
      <point x="342.576" y="555.5"/>
      <point x="343.888" y="552.908"/>
      <point x="344.908" y="550.505" type="curve" smooth="yes"/>
      <point x="461.452" y="347.401" type="line"/>
      <point x="561.526" y="505.557" type="line" smooth="yes"/>
      <point x="592.595" y="556.509"/>
      <point x="598.178" y="583.555"/>
      <point x="598" y="591.5" type="curve" smooth="yes"/>
      <point x="597.802" y="600.384"/>
      <point x="597.233" y="603.688"/>
      <point x="587.079" y="607.42" type="curve" smooth="yes"/>
      <point x="576.499" y="627.069"/>
      <point x="556.998" y="640.899"/>
      <point x="530.197" y="651" type="curve" smooth="yes"/>
      <point x="514" y="651" type="line"/>
      <point x="514" y="676" type="line"/>
    </contour>
  </outline>
</glyph>
<glyph name="Z" format="2">
  <advance width="737"/>
  <unicode hex="005A"/>
  <outline>
    <contour>
      <point x="705.989" y="276" type="line"/>
      <point x="676.214" y="0" type="line"/>
      <point x="28" y="0" type="line"/>
      <point x="28" y="36.3174" type="line"/>
      <point x="417.805" y="605.102" type="line"/>
      <point x="389.512" y="604.338"/>
      <point x="370.826" y="603.419"/>
      <point x="362.176" y="603.031" type="curve" smooth="yes"/>
      <point x="357.493" y="602.821"/>
      <point x="351.976" y="603.089"/>
      <point x="347.495" y="603.089" type="curve" smooth="yes"/>
      <point x="203.195" y="603.089"/>
      <point x="164.678" y="573.151"/>
      <point x="121.041" y="446.788" type="curve" smooth="yes"/>
      <point x="116.971" y="435" type="line"/>
      <point x="57.125" y="435" type="line"/>
      <point x="81.6934" y="676" type="line"/>
      <point x="674" y="676" type="line"/>
      <point x="674" y="639.705" type="line"/>
      <point x="283.593" y="70" type="line"/>
      <point x="330.747" y="70" type="line" smooth="yes"/>
      <point x="433.252" y="70"/>
      <point x="519.232" y="84.4482"/>
      <point x="552.581" y="105.81" type="curve" smooth="yes"/>
      <point x="596.539" y="136.147"/>
      <point x="617.977" y="173.846"/>
      <point x="643.68" y="263.331" type="curve" smooth="yes"/>
      <point x="647.319" y="276" type="line"/>
    </contour>
  </outline>
</glyph>
<glyph name="bracketright" format="2">
  <advance width="333"/>
  <unicode hex="005D"/>
  <outline>
    <contour>
      <point x="14.5" y="-166.5" type="line"/>
      <point x="14.5" y="-98.5" type="line"/>
      <point x="112" y="-98.5" type="line" smooth="yes"/>
      <point x="117.695" y="-98.3896"/>
      <point x="123.276" y="-98.5801"/>
      <point x="130.604" y="-97.4258" type="curve" smooth="yes"/>
      <point x="138.742" y="-96.1426"/>
      <point x="141.758" y="-95.7422"/>
      <point x="143.493" y="-83.0391" type="curve" smooth="yes"/>
      <point x="144.169" y="-78.0908"/>
      <point x="144.5" y="-71.3721"/>
      <point x="144.5" y="-63" type="curve" smooth="yes"/>
      <point x="144.5" y="575" type="line" smooth="yes"/>
      <point x="144.221" y="596.374"/>
      <point x="143.043" y="606.63"/>
      <point x="140.366" y="613.656" type="curve" smooth="yes"/>
      <point x="138.109" y="619.581"/>
      <point x="135.193" y="621.631"/>
      <point x="131.377" y="623.241" type="curve" smooth="yes"/>
      <point x="124.896" y="625.976"/>
      <point x="113.883" y="627.5"/>
      <point x="95" y="627.5" type="curve" smooth="yes"/>
      <point x="14.5" y="627.5" type="line"/>
      <point x="14.5" y="695.5" type="line"/>
      <point x="283.5" y="695.5" type="line"/>
      <point x="283.5" y="-166.5" type="line"/>
    </contour>
  </outline>
</glyph>
<glyph name="underscore" format="2">
  <advance width="500"/>
  <unicode hex="005F"/>
  <outline>
    <contour>
      <point x="517.5" y="-142.5" type="line"/>
      <point x="-17.5" y="-142.5" type="line"/>
      <point x="-17.5" y="-57.5" type="line"/>
      <point x="517.5" y="-57.5" type="line"/>
    </contour>
  </outline>
</glyph>
<glyph name="grave" format="2">
  <advance width="333"/>
  <unicode hex="0060"/>
  <outline>
    <contour>
      <point x="284.497" y="510.5" type="line"/>
      <point x="185.018" y="510.5" type="line"/>
      <point x="38.7764" y="601.128" type="line" smooth="yes"/>
      <point x="6.1709" y="621.366"/>
      <point x="-9.5" y="640.187"/>
      <point x="-9.5" y="668" type="curve" smooth="yes"/>
      <point x="-9.5" y="703.203"/>
      <point x="19.9922" y="730.5"/>
      <point x="55" y="730.5" type="curve" smooth="yes"/>
      <point x="80.3496" y="730.5"/>
      <point x="103.796" y="717.195"/>
      <point x="122.133" y="696.566" type="curve" smooth="yes"/>
    </contour>
  </outline>
</glyph>
<glyph name="a" format="2">
  <advance width="570"/>
  <unicode hex="0061"/>
  <outline>
    <contour>
      <point x="257.631" y="92" type="curve" smooth="yes"/>
      <point x="279.008" y="92"/>
      <point x="299.195" y="100.095"/>
      <point x="328" y="124.156" type="curve"/>
      <point x="328" y="238.922" type="line"/>
      <point x="269.693" y="223.483"/>
      <point x="213.568" y="195.083"/>
      <point x="213.568" y="141.5" type="curve" smooth="yes"/>
      <point x="213.568" y="111.8"/>
      <point x="231.193" y="92"/>
    </contour>
    <contour>
      <point x="504.205" y="78.3525" type="curve"/>
      <point x="527.733" y="100.27" type="line"/>
      <point x="563.03" y="54.166" type="line"/>
      <point x="553.335" y="44.4072" type="line" smooth="yes"/>
      <point x="511.846" y="2.64258"/>
      <point x="476.256" y="-14"/>
      <point x="428.5" y="-14" type="curve" smooth="yes"/>
      <point x="383.328" y="-14"/>
      <point x="353.691" y="1.38965"/>
      <point x="337.408" y="42.6562" type="curve"/>
      <point x="275.007" y="2.69141"/>
      <point x="215.447" y="-14"/>
      <point x="153.5" y="-14" type="curve" smooth="yes"/>
      <point x="79.5967" y="-14"/>
      <point x="25" y="35.835"/>
      <point x="25" y="102.174" type="curve" smooth="yes"/>
      <point x="25" y="147.835"/>
      <point x="48.1426" y="185.041"/>
      <point x="96.5947" y="216.396" type="curve" smooth="yes"/>
      <point x="134.639" y="241.592"/>
      <point x="184.08" y="260.479"/>
      <point x="329" y="292.97" type="curve"/>
      <point x="329" y="353" type="line" smooth="yes"/>
      <point x="329" y="407.167"/>
      <point x="300.788" y="424.109"/>
      <point x="241.847" y="423.5" type="curve" smooth="yes"/>
      <point x="209.313" y="423.164"/>
      <point x="195.815" y="416.789"/>
      <point x="188.172" y="411.733" type="curve" smooth="yes"/>
      <point x="186.392" y="410.556"/>
      <point x="182" y="407.303"/>
      <point x="182" y="404" type="curve" smooth="yes"/>
      <point x="182" y="403.287"/>
      <point x="183.699" y="401.518"/>
      <point x="192.528" y="393.104" type="curve" smooth="yes"/>
      <point x="210.108" y="376.348"/>
      <point x="221.459" y="358.336"/>
      <point x="221.459" y="339" type="curve" smooth="yes"/>
      <point x="221.459" y="294.252"/>
      <point x="175.085" y="263.5"/>
      <point x="126.5" y="263.5" type="curve" smooth="yes"/>
      <point x="77.7314" y="263.5"/>
      <point x="44" y="292.285"/>
      <point x="44" y="340.562" type="curve" smooth="yes"/>
      <point x="44" y="420.024"/>
      <point x="128.394" y="473"/>
      <point x="272.099" y="473" type="curve" smooth="yes"/>
      <point x="414.033" y="473"/>
      <point x="501" y="419.189"/>
      <point x="501" y="328.859" type="curve" smooth="yes"/>
      <point x="501" y="85.3594" type="line" smooth="yes"/>
      <point x="501.428" y="80.29"/>
      <point x="501.5" y="79.6934"/>
      <point x="502.199" y="78.5957" type="curve"/>
      <point x="502.452" y="78.4854"/>
      <point x="503.087" y="78.3291"/>
    </contour>
  </outline>
</glyph>
<glyph name="b" format="2">
  <advance width="626"/>
  <unicode hex="0062"/>
  <outline>
    <contour>
      <point x="246" y="676" type="line"/>
      <point x="246" y="438.837" type="line"/>
      <point x="285.417" y="462.169"/>
      <point x="327.507" y="473"/>
      <point x="379.074" y="473" type="curve" smooth="yes"/>
      <point x="507.995" y="473"/>
      <point x="591" y="374.461"/>
      <point x="591" y="238.363" type="curve" smooth="yes"/>
      <point x="591" y="90.5225"/>
      <point x="490.539" y="-14"/>
      <point x="330.684" y="-14" type="curve" smooth="yes"/>
      <point x="266.82" y="-14"/>
      <point x="224.688" y="0.458008"/>
      <point x="179.435" y="38.2939" type="curve"/>
      <point x="107.073" y="-13" type="line"/>
      <point x="72" y="-13" type="line"/>
      <point x="72" y="576.5" type="line" smooth="yes"/>
      <point x="71.7285" y="591.039"/>
      <point x="71.248" y="593.57"/>
      <point x="70.2266" y="597.627" type="curve" smooth="yes"/>
      <point x="68.625" y="603.991"/>
      <point x="66.1084" y="605.967"/>
      <point x="62.9062" y="607.857" type="curve" smooth="yes"/>
      <point x="57.9727" y="610.772"/>
      <point x="50.7041" y="613.498"/>
      <point x="31.1396" y="617.325" type="curve" smooth="yes"/>
      <point x="17" y="620.092" type="line"/>
      <point x="17" y="676" type="line"/>
    </contour>
    <contour>
      <point x="312.855" y="384" type="curve" smooth="yes"/>
      <point x="280.378" y="384"/>
      <point x="263.484" y="373.702"/>
      <point x="246" y="343.405" type="curve"/>
      <point x="246" y="108.619" type="line" smooth="yes"/>
      <point x="246" y="85.207"/>
      <point x="259.116" y="53"/>
      <point x="311.582" y="53" type="curve" smooth="yes"/>
      <point x="370.033" y="53"/>
      <point x="409" y="92.876"/>
      <point x="409" y="220.761" type="curve" smooth="yes"/>
      <point x="409" y="304.675"/>
      <point x="389.772" y="384"/>
    </contour>
  </outline>
</glyph>
<glyph name="c" format="2">
  <advance width="514"/>
  <unicode hex="0063"/>
  <outline>
    <contour>
      <point x="463.692" y="152.057" type="line"/>
      <point x="505.84" y="109.909" type="line"/>
      <point x="496.273" y="97.7041" type="line" smooth="yes"/>
      <point x="435.002" y="19.5312"/>
      <point x="373.567" y="-14"/>
      <point x="277.846" y="-14" type="curve" smooth="yes"/>
      <point x="122.381" y="-14"/>
      <point x="25" y="86.2969"/>
      <point x="25" y="223.436" type="curve" smooth="yes"/>
      <point x="25" y="366.91"/>
      <point x="132.813" y="473"/>
      <point x="308.307" y="473" type="curve" smooth="yes"/>
      <point x="407.314" y="473"/>
      <point x="486" y="435.146"/>
      <point x="486" y="380.781" type="curve" smooth="yes"/>
      <point x="486" y="333.076"/>
      <point x="453.271" y="300.281"/>
      <point x="400.5" y="300.281" type="curve" smooth="yes"/>
      <point x="371.102" y="300.281"/>
      <point x="328.444" y="312.523"/>
      <point x="327.002" y="389.603" type="curve" smooth="yes"/>
      <point x="326.814" y="396.835"/>
      <point x="327.162" y="418.773"/>
      <point x="326.25" y="425.949" type="curve" smooth="yes"/>
      <point x="325.897" y="428.546"/>
      <point x="326.02" y="428.813"/>
      <point x="323.081" y="432.342" type="curve" smooth="yes"/>
      <point x="321.384" y="434.378"/>
      <point x="320.724" y="434.787"/>
      <point x="318.739" y="436" type="curve" smooth="yes"/>
      <point x="313.002" y="419.81"/>
      <point x="303.342" y="407"/>
      <point x="293.076" y="407" type="curve" smooth="yes"/>
      <point x="219.415" y="407"/>
      <point x="201" y="324.837"/>
      <point x="201" y="273.183" type="curve" smooth="yes"/>
      <point x="201" y="156.689"/>
      <point x="270.871" y="88"/>
      <point x="360.5" y="88" type="curve" smooth="yes"/>
      <point x="396.96" y="88"/>
      <point x="418.332" y="100.567"/>
      <point x="451.369" y="138.068" type="curve" smooth="yes"/>
    </contour>
  </outline>
</glyph>
<glyph name="g" format="2">
  <advance width="570"/>
  <unicode hex="0067"/>
  <outline>
    <contour>
      <point x="552" y="363" type="line"/>
      <point x="489.926" y="363" type="line"/>
      <point x="504.167" y="341.897"/>
      <point x="511" y="318.227"/>
      <point x="511" y="289.033" type="curve" smooth="yes"/>
      <point x="511" y="234.125"/>
      <point x="483.988" y="191.464"/>
      <point x="434.313" y="164.882" type="curve" smooth="yes"/>
      <point x="395.109" y="142.05"/>
      <point x="365.255" y="136.502"/>
      <point x="311.478" y="136.502" type="curve" smooth="yes"/>
      <point x="250.241" y="137.502" type="line" smooth="yes"/>
      <point x="211.355" y="137.502"/>
      <point x="188.748" y="128.344"/>
      <point x="189" y="114.61" type="curve" smooth="yes"/>
      <point x="189.085" y="109.979"/>
      <point x="189.029" y="108.579"/>
      <point x="199.401" y="106.54" type="curve" smooth="yes"/>
      <point x="214.373" y="103.877"/>
      <point x="250.505" y="103"/>
      <point x="294.052" y="103" type="curve" smooth="yes"/>
      <point x="371.5" y="103" type="line" smooth="yes"/>
      <point x="481.798" y="103"/>
      <point x="553" y="50.9033"/>
      <point x="553" y="-37.5" type="curve" smooth="yes"/>
      <point x="553" y="-104.9"/>
      <point x="515.55" y="-206"/>
      <point x="260.031" y="-206" type="curve" smooth="yes"/>
      <point x="65.3271" y="-206"/>
      <point x="28" y="-140.3"/>
      <point x="28" y="-96.5" type="curve" smooth="yes"/>
      <point x="28" y="-57.2363"/>
      <point x="51.6758" y="-31.8379"/>
      <point x="88.2188" y="-17.123" type="curve"/>
      <point x="53.625" y="-6.42969"/>
      <point x="42" y="5.79883"/>
      <point x="42" y="25" type="curve" smooth="yes"/>
      <point x="42" y="77.3613"/>
      <point x="75.584" y="115.747"/>
      <point x="134.642" y="143.435" type="curve"/>
      <point x="110.155" y="156.526"/>
      <point x="93.042" y="169.301"/>
      <point x="77.2881" y="187.715" type="curve" smooth="yes"/>
      <point x="51.4619" y="217.903"/>
      <point x="37" y="255.743"/>
      <point x="37" y="294.301" type="curve" smooth="yes"/>
      <point x="37" y="401.193"/>
      <point x="130.979" y="473"/>
      <point x="275" y="473" type="curve" smooth="yes"/>
      <point x="337.619" y="473"/>
      <point x="369.792" y="464.6"/>
      <point x="407.568" y="451" type="curve"/>
      <point x="552" y="451" type="line"/>
    </contour>
    <contour>
      <point x="376.5" y="-52" type="curve" smooth="yes"/>
      <point x="174.802" y="-52" type="line"/>
      <point x="156.26" y="-67.4971"/>
      <point x="151" y="-74.1602"/>
      <point x="151" y="-89.5" type="curve" smooth="yes"/>
      <point x="151" y="-129.1"/>
      <point x="209.695" y="-139"/>
      <point x="288.608" y="-139" type="curve" smooth="yes"/>
      <point x="362.55" y="-139"/>
      <point x="439" y="-128.1"/>
      <point x="439" y="-84.5" type="curve" smooth="yes"/>
      <point x="439" y="-64.7002"/>
      <point x="423.793" y="-52"/>
    </contour>
    <contour>
      <point x="275" y="407" type="curve" smooth="yes"/>
      <point x="235.401" y="407"/>
      <point x="209" y="391.342"/>
      <point x="209" y="302.328" type="curve" smooth="yes"/>
      <point x="209" y="213.356"/>
      <point x="235.401" y="199.5"/>
      <point x="275" y="199.5" type="curve" smooth="yes"/>
      <point x="314.599" y="199.5"/>
      <point x="341" y="214.475"/>
      <point x="341" y="302.328" type="curve" smooth="yes"/>
      <point x="341" y="390.504"/>
      <point x="314.599" y="407"/>
    </contour>
  </outline>
</glyph>
<glyph name="k" format="2">
  <advance width="626"/>
  <unicode hex="006B"/>
  <outline>
    <contour>
      <point x="334" y="461" type="line"/>
      <point x="583" y="461" type="line"/>
      <point x="583" y="409.561" type="line"/>
      <point x="567.704" y="407.773" type="line" smooth="yes"/>
      <point x="511.046" y="401.154"/>
      <point x="488.272" y="387.312"/>
      <point x="399.223" y="301.813" type="curve"/>
      <point x="584.588" y="66.25" type="line" smooth="yes"/>
      <point x="590.647" y="58.8164"/>
      <point x="591.1" y="59"/>
      <point x="595.5" y="59" type="curve" smooth="yes"/>
      <point x="613" y="59" type="line"/>
      <point x="613" y="0" type="line"/>
      <point x="344" y="0" type="line"/>
      <point x="344" y="58.3857" type="line"/>
      <point x="360.875" y="58.9893" type="line" smooth="yes"/>
      <point x="374.969" y="59.8896"/>
      <point x="380.97" y="60.7402"/>
      <point x="385.26" y="62.5762" type="curve"/>
      <point x="382.39" y="69.75"/>
      <point x="373.812" y="82.7461"/>
      <point x="365.126" y="95.5195" type="curve" smooth="yes"/>
      <point x="249.349" y="212.096" type="line"/>
      <point x="244" y="208.469" type="line"/>
      <point x="244" y="101.5" type="line" smooth="yes"/>
      <point x="244.249" y="84.5439"/>
      <point x="244.738" y="80.624"/>
      <point x="246.127" y="75.5439" type="curve" smooth="yes"/>
      <point x="248.443" y="67.0811"/>
      <point x="251.996" y="66.127"/>
      <point x="261.446" y="64.0645" type="curve" smooth="yes"/>
      <point x="269.541" y="62.2979"/>
      <point x="282.816" y="60.5732"/>
      <point x="301.043" y="58.8086" type="curve" smooth="yes"/>
      <point x="324" y="56.5869" type="line"/>
      <point x="324" y="0" type="line"/>
      <point x="22" y="0" type="line"/>
      <point x="22" y="54.1914" type="line"/>
      <point x="37.916" y="55.5547" type="line" smooth="yes"/>
      <point x="59.3115" y="57.3887"/>
      <point x="70" y="65.2695"/>
      <point x="70" y="95.6904" type="curve" smooth="yes"/>
      <point x="70" y="576.5" type="line" smooth="yes"/>
      <point x="70" y="608.954"/>
      <point x="59.167" y="615.195"/>
      <point x="37.9619" y="617.067" type="curve" smooth="yes"/>
      <point x="22" y="618.477" type="line"/>
      <point x="22" y="676" type="line"/>
      <point x="244" y="676" type="line"/>
      <point x="244" y="269.749" type="line"/>
      <point x="377.126" y="367.874" type="line" smooth="yes"/>
      <point x="386.635" y="378.357"/>
      <point x="390.859" y="386.693"/>
      <point x="392.541" y="391.957" type="curve" smooth="yes"/>
      <point x="392.889" y="393.187" type="line"/>
      <point x="392.889" y="393.187"/>
      <point x="392.757" y="391.94"/>
      <point x="392.995" y="393.69" type="curve"/>
      <point x="392.004" y="394.499"/>
      <point x="387.268" y="397.393"/>
      <point x="373.329" y="399.135" type="curve" smooth="yes"/>
      <point x="371.61" y="399.35" type="line"/>
      <point x="369.966" y="399.898" type="line" smooth="yes"/>
      <point x="367.949" y="400.57"/>
      <point x="365.57" y="400.155"/>
      <point x="348.369" y="403.282" type="curve" smooth="yes"/>
      <point x="334" y="405.895" type="line"/>
    </contour>
    <contour>
      <point x="393.028" y="411.163" type="curve" smooth="yes"/>
      <point x="393.011" y="411.178" type="line"/>
      <point x="393.006" y="411.093"/>
      <point x="393" y="411"/>
      <point x="393" y="411" type="curve"/>
      <point x="393" y="411"/>
      <point x="393.433" y="410.824"/>
    </contour>
  </outline>
</glyph>
<glyph name="l" format="2">
  <advance width="313"/>
  <unicode hex="006C"/>
  <outline>
    <contour>
      <point x="241" y="676" type="line"/>
      <point x="241" y="99.2178" type="line" smooth="yes"/>
      <point x="241" y="67.0371"/>
      <point x="253.058" y="59.5654"/>
      <point x="273.03" y="58.9922" type="curve" smooth="yes"/>
      <point x="290" y="58.4775" type="line"/>
      <point x="290" y="0" type="line"/>
      <point x="16" y="0" type="line"/>
      <point x="16" y="57.5234" type="line"/>
      <point x="31.9619" y="58.9326" type="line" smooth="yes"/>
      <point x="50.54" y="60.4678"/>
      <point x="67" y="66.9072"/>
      <point x="67" y="98.8037" type="curve" smooth="yes"/>
      <point x="67" y="576.5" type="line" smooth="yes"/>
      <point x="67" y="607.034"/>
      <point x="54.9199" y="615.1"/>
      <point x="32.0059" y="617.063" type="curve" smooth="yes"/>
      <point x="16" y="618.436" type="line"/>
      <point x="16" y="676" type="line"/>
    </contour>
  </outline>
</glyph>
<glyph name="n" format="2">
  <advance width="626"/>
  <unicode hex="006E"/>
  <outline>
    <contour>
      <point x="247" y="461" type="line"/>
      <point x="247" y="419.643" type="line"/>
      <point x="293.025" y="455.399"/>
      <point x="348.709" y="473"/>
      <point x="407.5" y="473" type="curve" smooth="yes"/>
      <point x="499" y="473"/>
      <point x="560" y="414.855"/>
      <point x="560" y="325.42" type="curve" smooth="yes"/>
      <point x="560" y="91.7139" type="line" smooth="yes"/>
      <point x="560.319" y="77.542"/>
      <point x="561.156" y="71.832"/>
      <point x="562.791" y="67.2803" type="curve" smooth="yes"/>
      <point x="563.926" y="64.1211"/>
      <point x="565.634" y="60.2773"/>
      <point x="573.591" y="57.8633" type="curve" smooth="yes"/>
      <point x="577.26" y="56.749"/>
      <point x="583.118" y="55.583"/>
      <point x="592.842" y="54.8867" type="curve" smooth="yes"/>
      <point x="609" y="53.7295" type="line"/>
      <point x="609" y="0" type="line"/>
      <point x="323.029" y="0" type="line"/>
      <point x="323.029" y="52.1426" type="line"/>
      <point x="343.736" y="53.8037" type="line" smooth="yes"/>
      <point x="372.444" y="56.1084"/>
      <point x="386" y="61.0449"/>
      <point x="386" y="90.0088" type="curve" smooth="yes"/>
      <point x="386" y="311.146" type="line" smooth="yes"/>
      <point x="386" y="359.566"/>
      <point x="365.993" y="371"/>
      <point x="339.777" y="371" type="curve" smooth="yes"/>
      <point x="317.393" y="371"/>
      <point x="290.416" y="362.313"/>
      <point x="263.645" y="343.539" type="curve" smooth="yes"/>
      <point x="256.205" y="338.321"/>
      <point x="250.494" y="334.373"/>
      <point x="248" y="331.509" type="curve"/>
      <point x="248" y="90.0088" type="line" smooth="yes"/>
      <point x="248.156" y="86.1846"/>
      <point x="247.548" y="72.79"/>
      <point x="254.988" y="64.8838" type="curve" smooth="yes"/>
      <point x="256.058" y="63.7705"/>
      <point x="257.21" y="62.8447"/>
      <point x="258.616" y="61.9609" type="curve" smooth="yes"/>
      <point x="263.574" y="58.8486"/>
      <point x="273.515" y="55.5986"/>
      <point x="293.344" y="53.7705" type="curve" smooth="yes"/>
      <point x="313.65" y="51.8975" type="line"/>
      <point x="313.65" y="0" type="line"/>
      <point x="21" y="0" type="line"/>
      <point x="21" y="51.9062" type="line"/>
      <point x="35.0684" y="54.5205" type="line" smooth="yes"/>
      <point x="51.3613" y="57.7598"/>
      <point x="58.7646" y="59.8057"/>
      <point x="63.9531" y="62.3975" type="curve" smooth="yes"/>
      <point x="67.834" y="64.3379"/>
      <point x="70.1328" y="65.96"/>
      <point x="71.8203" y="71.4141" type="curve" smooth="yes"/>
      <point x="73.1641" y="75.7568"/>
      <point x="74" y="83.375"/>
      <point x="74" y="94.3379" type="curve" smooth="yes"/>
      <point x="74" y="367.592" type="line" smooth="yes"/>
      <point x="73.7295" y="381.794"/>
      <point x="73.0674" y="386.188"/>
      <point x="71.6807" y="390.519" type="curve" smooth="yes"/>
      <point x="69.9014" y="396.072"/>
      <point x="67.4014" y="397.79"/>
      <point x="63.7363" y="399.558" type="curve" smooth="yes"/>
      <point x="58.7275" y="401.973"/>
      <point x="50.5645" y="404.175"/>
      <point x="35.75" y="406.365" type="curve" smooth="yes"/>
      <point x="21" y="408.547" type="line"/>
      <point x="21" y="461" type="line"/>
    </contour>
  </outline>
</glyph>
<glyph name="o" format="2">
  <advance width="570"/>
  <unicode hex="006F"/>
  <outline>
    <contour>
      <point x="286.143" y="473" type="curve" smooth="yes"/>
      <point x="442.578" y="473"/>
      <point x="546" y="368.518"/>
      <point x="546" y="229.033" type="curve" smooth="yes"/>
      <point x="546" y="90.4229"/>
      <point x="442.561" y="-14"/>
      <point x="286.143" y="-14" type="curve" smooth="yes"/>
      <point x="127.594" y="-14"/>
      <point x="25" y="89.7637"/>
      <point x="25" y="231.832" type="curve" smooth="yes"/>
      <point x="25" y="367.371"/>
      <point x="131.345" y="473"/>
    </contour>
    <contour>
      <point x="287.43" y="407" type="curve" smooth="yes"/>
      <point x="239.172" y="407"/>
      <point x="207" y="391.302"/>
      <point x="207" y="215.391" type="curve" smooth="yes"/>
      <point x="207" y="72.083"/>
      <point x="238.657" y="52"/>
      <point x="286.143" y="52" type="curve" smooth="yes"/>
      <point x="332.857" y="52"/>
      <point x="364" y="72.5488"/>
      <point x="364" y="223.583" type="curve" smooth="yes"/>
      <point x="364" y="385.211"/>
      <point x="333.372" y="407"/>
    </contour>
  </outline>
</glyph>
<glyph name="p" format="2">
  <advance width="591"/>
  <unicode hex="0070"/>
  <outline>
    <contour>
      <point x="247" y="461" type="line"/>
      <point x="247" y="430.128" type="line"/>
      <point x="275.765" y="460.681"/>
      <point x="310.271" y="473"/>
      <point x="355.5" y="473" type="curve" smooth="yes"/>
      <point x="477.6" y="473"/>
      <point x="559" y="375.599"/>
      <point x="559" y="238.396" type="curve" smooth="yes"/>
      <point x="559" y="93.9336"/>
      <point x="473.874" y="-13"/>
      <point x="349.5" y="-13" type="curve" smooth="yes"/>
      <point x="309" y="-13"/>
      <point x="281.62" y="-1.98145"/>
      <point x="249" y="24.8936" type="curve"/>
      <point x="249" y="-76.5" type="line" smooth="yes"/>
      <point x="249" y="-135.769"/>
      <point x="261.316" y="-146.609"/>
      <point x="310.359" y="-149.021" type="curve" smooth="yes"/>
      <point x="327" y="-149.84" type="line"/>
      <point x="327" y="-205" type="line"/>
      <point x="19" y="-205" type="line"/>
      <point x="19" y="-148.675" type="line"/>
      <point x="33.623" y="-146.238" type="line" smooth="yes"/>
      <point x="50.9873" y="-143.111"/>
      <point x="59.0439" y="-141.032"/>
      <point x="64.6943" y="-138.282" type="curve" smooth="yes"/>
      <point x="71.332" y="-135.053"/>
      <point x="72.3711" y="-131.353"/>
      <point x="73.3037" y="-127.428" type="curve" smooth="yes"/>
      <point x="73.3604" y="-127.189"/>
      <point x="75" y="-121.9"/>
      <point x="75" y="-105.5" type="curve" smooth="yes"/>
      <point x="75" y="366.348" type="line" smooth="yes"/>
      <point x="74.7021" y="380.739"/>
      <point x="73.9854" y="385.026"/>
      <point x="72.5459" y="389.344" type="curve" smooth="yes"/>
      <point x="70.6992" y="394.884"/>
      <point x="68.0303" y="396.803"/>
      <point x="64.1143" y="398.683" type="curve" smooth="yes"/>
      <point x="59.0117" y="401.129"/>
      <point x="50.5234" y="403.425"/>
      <point x="35.75" y="405.639" type="curve" smooth="yes"/>
      <point x="21" y="407.849" type="line"/>
      <point x="21" y="461" type="line"/>
    </contour>
    <contour>
      <point x="249" y="333.92" type="curve" smooth="yes"/>
      <point x="249" y="119.102" type="line"/>
      <point x="262.139" y="91.5"/>
      <point x="284.959" y="77"/>
      <point x="308.5" y="77" type="curve" smooth="yes"/>
      <point x="348.83" y="77"/>
      <point x="376" y="113.919"/>
      <point x="376" y="225.413" type="curve" smooth="yes"/>
      <point x="376" y="347.144"/>
      <point x="350.777" y="381"/>
      <point x="317.5" y="381" type="curve" smooth="yes"/>
      <point x="302.048" y="381"/>
      <point x="283.21" y="373.058"/>
      <point x="265.404" y="355.603" type="curve" smooth="yes"/>
      <point x="253.015" y="343.458"/>
      <point x="249" y="333.927"/>
    </contour>
  </outline>
</glyph>
<glyph name="q" format="2">
  <advance width="626"/>
  <unicode hex="0071"/>
  <outline>
    <contour>
      <point x="377" y="-79.5" type="curve" smooth="yes"/>
      <point x="377" y="21.2529" type="line"/>
      <point x="336.39" y="-2.53418"/>
      <point x="295.084" y="-14"/>
      <point x="242.425" y="-14" type="curve" smooth="yes"/>
      <point x="115.782" y="-14"/>
      <point x="34" y="84.6475"/>
      <point x="34" y="219.704" type="curve" smooth="yes"/>
      <point x="34" y="367.346"/>
      <point x="133.086" y="473"/>
      <point x="289.622" y="473" type="curve" smooth="yes"/>
      <point x="357.592" y="473"/>
      <point x="395.735" y="457.354"/>
      <point x="441.249" y="420.581" type="curve"/>
      <point x="512.868" y="472" type="line"/>
      <point x="551" y="472" type="line"/>
      <point x="551" y="-105.5" type="line" smooth="yes"/>
      <point x="551.271" y="-120.039"/>
      <point x="551.752" y="-122.57"/>
      <point x="552.773" y="-126.628" type="curve" smooth="yes"/>
      <point x="554.375" y="-132.991"/>
      <point x="556.892" y="-134.967"/>
      <point x="560.094" y="-136.857" type="curve" smooth="yes"/>
      <point x="565.027" y="-139.772"/>
      <point x="572.296" y="-142.498"/>
      <point x="591.86" y="-146.325" type="curve" smooth="yes"/>
      <point x="606" y="-149.092" type="line"/>
      <point x="606" y="-205" type="line"/>
      <point x="283.882" y="-205" type="line"/>
      <point x="283.882" y="-147.935" type="line"/>
      <point x="302.152" y="-145.291" type="line" smooth="yes"/>
      <point x="338.823" y="-139.779"/>
      <point x="356.542" y="-135.913"/>
      <point x="365.418" y="-129.531" type="curve" smooth="yes"/>
      <point x="367.059" y="-128.35"/>
      <point x="368.281" y="-127.179"/>
      <point x="369.434" y="-125.683" type="curve" smooth="yes"/>
      <point x="375.052" y="-118.389"/>
      <point x="377" y="-104.3"/>
    </contour>
    <contour>
      <point x="311.307" y="75" type="curve" smooth="yes"/>
      <point x="343.941" y="75"/>
      <point x="366.577" y="88.6895"/>
      <point x="377" y="113.812" type="curve"/>
      <point x="377" y="349.477" type="line" smooth="yes"/>
      <point x="377" y="384.51"/>
      <point x="351.744" y="406"/>
      <point x="313.858" y="406" type="curve" smooth="yes"/>
      <point x="234.772" y="406"/>
      <point x="215" y="321.726"/>
      <point x="215" y="236.431" type="curve" smooth="yes"/>
      <point x="215" y="117.581"/>
      <point x="253.523" y="75"/>
    </contour>
  </outline>
</glyph>
<glyph name="w" format="2">
  <advance width="827"/>
  <unicode hex="0077"/>
  <outline>
    <contour>
      <point x="642" y="461" type="line"/>
      <point x="812" y="461" type="line"/>
      <point x="812" y="405.045" type="line"/>
      <point x="797.805" y="402.314" type="line" smooth="yes"/>
      <point x="780.489" y="398.984"/>
      <point x="775.225" y="396.479"/>
      <point x="760.692" y="362.872" type="curve" smooth="yes"/>
      <point x="566.497" y="-49" type="line"/>
      <point x="518.835" y="-49" type="line"/>
      <point x="427.834" y="227.572" type="line"/>
      <point x="284.594" y="-49" type="line"/>
      <point x="233.604" y="-49" type="line"/>
      <point x="81.2656" y="366.594" type="line" smooth="yes"/>
      <point x="71.3428" y="392.658"/>
      <point x="61.5225" y="419.422"/>
      <point x="53.5801" y="430.04" type="curve" smooth="yes"/>
      <point x="51.0186" y="433.465"/>
      <point x="49.1182" y="434.77"/>
      <point x="45.7051" y="436" type="curve" smooth="yes"/>
      <point x="44.0508" y="436.228"/>
      <point x="41.5381" y="436.502"/>
      <point x="37.1953" y="436.846" type="curve" smooth="yes"/>
      <point x="23" y="437.97" type="line"/>
      <point x="23" y="461" type="line"/>
      <point x="280" y="461" type="line"/>
      <point x="280" y="404.322" type="line"/>
      <point x="264.975" y="402.176" type="line" smooth="yes"/>
      <point x="260.141" y="401.329"/>
      <point x="257.728" y="401.104"/>
      <point x="253.03" y="399.873" type="curve" smooth="yes"/>
      <point x="240.986" y="396.718"/>
      <point x="242" y="394.7"/>
      <point x="242" y="391.5" type="curve" smooth="yes"/>
      <point x="242" y="386.428"/>
      <point x="244.605" y="372.13"/>
      <point x="279.864" y="282.692" type="curve" smooth="yes"/>
      <point x="298.392" y="269.019"/>
      <point x="321.805" y="249.531"/>
      <point x="335.735" y="229.02" type="curve" smooth="yes"/>
      <point x="343.979" y="207.063" type="line"/>
      <point x="392.936" y="330.174" type="line"/>
      <point x="388.748" y="343.444" type="line" smooth="yes"/>
      <point x="381.819" y="367.396"/>
      <point x="377.374" y="382.913"/>
      <point x="372.754" y="391.794" type="curve" smooth="yes"/>
      <point x="369.743" y="397.582"/>
      <point x="368.57" y="398.489"/>
      <point x="361.781" y="399.875" type="curve" smooth="yes"/>
      <point x="358.417" y="400.562"/>
      <point x="354.222" y="401.116"/>
      <point x="344.715" y="402.092" type="curve" smooth="yes"/>
      <point x="329" y="403.703" type="line"/>
      <point x="329" y="461" type="line"/>
      <point x="598" y="461" type="line"/>
      <point x="598" y="403.327" type="line"/>
      <point x="581.877" y="402.055" type="line" smooth="yes"/>
      <point x="551.714" y="399.221"/>
      <point x="551.395" y="397.221"/>
      <point x="550.018" y="396.436" type="curve" smooth="yes"/>
      <point x="549.883" y="396.358"/>
      <point x="550" y="395.5"/>
      <point x="550" y="395.5" type="curve" smooth="yes"/>
      <point x="550" y="385.72"/>
      <point x="570.506" y="314.39"/>
      <point x="576.321" y="294.325" type="curve" smooth="yes"/>
      <point x="596.532" y="221.869" type="line"/>
      <point x="647.188" y="262.837" type="line" smooth="yes"/>
      <point x="647.395" y="263.38"/>
      <point x="687.608" y="365.076"/>
      <point x="689.913" y="383.539" type="curve" smooth="yes"/>
      <point x="689.973" y="384.083" type="line"/>
      <point x="689.997" y="384.414" type="line" smooth="yes"/>
      <point x="690" y="384.48"/>
      <point x="690" y="384.5"/>
      <point x="690" y="384.5" type="curve" smooth="yes"/>
      <point x="689.475" y="394.614"/>
      <point x="689.299" y="395.666"/>
      <point x="678.076" y="398.676" type="curve" smooth="yes"/>
      <point x="673.179" y="399.988"/>
      <point x="666.338" y="401.159"/>
      <point x="657.619" y="402.102" type="curve" smooth="yes"/>
      <point x="642" y="403.79" type="line"/>
    </contour>
  </outline>
</glyph>
<glyph name="braceleft" format="2">
  <advance width="394"/>
  <unicode hex="007B"/>
  <outline>
    <contour>
      <point x="111.5" y="145" type="line" smooth="yes"/>
      <point x="111.5" y="205.754"/>
      <point x="96.6787" y="224.523"/>
      <point x="17.8027" y="244.011" type="curve" smooth="yes"/>
      <point x="-50.9629" y="261" type="line"/>
      <point x="17.8027" y="277.989" type="line" smooth="yes"/>
      <point x="96.6787" y="297.477"/>
      <point x="111.5" y="316.246"/>
      <point x="111.5" y="377" type="curve" smooth="yes"/>
      <point x="111.5" y="556" type="line" smooth="yes"/>
      <point x="111.5" y="615.916"/>
      <point x="130.18" y="658.68"/>
      <point x="169.602" y="683.76" type="curve" smooth="yes"/>
      <point x="206.724" y="707.377"/>
      <point x="250.452" y="714.495"/>
      <point x="339.804" y="715.499" type="curve" smooth="yes"/>
      <point x="357.5" y="715.697" type="line"/>
      <point x="357.5" y="671.828" type="line"/>
      <point x="343.638" y="668.882" type="line" smooth="yes"/>
      <point x="269.775" y="653.187"/>
      <point x="251.5" y="627.221"/>
      <point x="251.5" y="562" type="curve" smooth="yes"/>
      <point x="251.5" y="391" type="line" smooth="yes"/>
      <point x="251.5" y="320.334"/>
      <point x="234.685" y="284.046"/>
      <point x="178.504" y="261" type="curve"/>
      <point x="234.685" y="237.954"/>
      <point x="251.5" y="201.665"/>
      <point x="251.5" y="131" type="curve" smooth="yes"/>
      <point x="251.5" y="-40" type="line" smooth="yes"/>
      <point x="251.5" y="-110.611"/>
      <point x="276.081" y="-132.199"/>
      <point x="343.474" y="-145.849" type="curve" smooth="yes"/>
      <point x="357.5" y="-148.689" type="line"/>
      <point x="357.5" y="-192.68" type="line"/>
      <point x="339.821" y="-192.499" type="line" smooth="yes"/>
      <point x="241.329" y="-191.494"/>
      <point x="192.695" y="-181.644"/>
      <point x="156.742" y="-151.396" type="curve" smooth="yes"/>
      <point x="123.228" y="-123.199"/>
      <point x="111.5" y="-83.7637"/>
      <point x="111.5" y="-34" type="curve" smooth="yes"/>
    </contour>
  </outline>
</glyph>
<glyph name="bar" format="2">
  <advance width="220"/>
  <unicode hex="007C"/>
  <outline>
    <contour>
      <point x="48.5" y="-36.5" type="line"/>
      <point x="48.5" y="708.5" type="line"/>
      <point x="171.5" y="708.5" type="line"/>
      <point x="171.5" y="-36.5" type="line"/>
    </contour>
  </outline>
</glyph>
<glyph name="braceright" format="2">
  <advance width="394"/>
  <unicode hex="007D"/>
  <outline>
    <contour>
      <point x="142.5" y="132" type="line" smooth="yes"/>
      <point x="142.5" y="201.675"/>
      <point x="159.783" y="238.484"/>
      <point x="215.884" y="261.848" type="curve"/>
      <point x="159.393" y="284.886"/>
      <point x="142.5" y="321.172"/>
      <point x="142.5" y="392" type="curve" smooth="yes"/>
      <point x="142.5" y="563" type="line" smooth="yes"/>
      <point x="142.5" y="633.09"/>
      <point x="117.526" y="655.278"/>
      <point x="50.5264" y="668.849" type="curve" smooth="yes"/>
      <point x="36.5" y="671.689" type="line"/>
      <point x="36.5" y="715.695" type="line"/>
      <point x="54.1943" y="715.499" type="line" smooth="yes"/>
      <point x="144.482" y="714.496"/>
      <point x="187.391" y="707.3"/>
      <point x="224.398" y="683.76" type="curve" smooth="yes"/>
      <point x="264.181" y="658.455"/>
      <point x="282.5" y="617.816"/>
      <point x="282.5" y="557" type="curve" smooth="yes"/>
      <point x="282.5" y="378" type="line" smooth="yes"/>
      <point x="282.5" y="317.246"/>
      <point x="297.321" y="298.477"/>
      <point x="376.197" y="278.989" type="curve" smooth="yes"/>
      <point x="444.963" y="262" type="line"/>
      <point x="376.197" y="245.011" type="line" smooth="yes"/>
      <point x="297.321" y="225.523"/>
      <point x="282.5" y="206.754"/>
      <point x="282.5" y="146" type="curve" smooth="yes"/>
      <point x="282.5" y="-33" type="line" smooth="yes"/>
      <point x="282.5" y="-92.916"/>
      <point x="263.821" y="-135.68"/>
      <point x="224.398" y="-160.76" type="curve" smooth="yes"/>
      <point x="187.276" y="-184.378"/>
      <point x="143.548" y="-191.495"/>
      <point x="54.1963" y="-192.499" type="curve" smooth="yes"/>
      <point x="36.5" y="-192.697" type="line"/>
      <point x="36.5" y="-148.828" type="line"/>
      <point x="50.3623" y="-145.882" type="line" smooth="yes"/>
      <point x="124.225" y="-130.187"/>
      <point x="142.5" y="-104.221"/>
      <point x="142.5" y="-39" type="curve" smooth="yes"/>
    </contour>
  </outline>
</glyph>
<glyph name="uni0591" format="2">
  <advance width="0"/>
  <unicode hex="0591"/>
  <outline>
    <contour>
      <point x="-45.5" y="-60" type="line" smooth="yes"/>
      <point x="-45.5" y="-31.588"/>
      <point x="-30.1904" y="-10"/>
      <point x="-12" y="-10" type="curve" smooth="yes"/>
      <point x="12" y="-10" type="line" smooth="yes"/>
      <point x="30.1562" y="-10"/>
      <point x="45.5" y="-31.6181"/>
      <point x="45.5" y="-60" type="curve" smooth="yes"/>
      <point x="45.5" y="-85.8748" type="line"/>
      <point x="74.46" y="-97.664"/>
      <point x="109.5" y="-127.156"/>
      <point x="109.5" y="-175" type="curve" smooth="yes"/>
      <point x="109.5" y="-220" type="line" smooth="yes"/>
      <point x="109.5" y="-227.561"/>
      <point x="96.8447" y="-235"/>
      <point x="78" y="-235" type="curve" smooth="yes"/>
      <point x="52" y="-235" type="line" smooth="yes"/>
      <point x="32.9609" y="-235"/>
      <point x="20.5" y="-227.635"/>
      <point x="20.5" y="-220" type="curve" smooth="yes"/>
      <point x="20.5" y="-178" type="line" smooth="yes"/>
      <point x="20.5" y="-156.965"/>
      <point x="11.3604" y="-140"/>
      <point x="0" y="-140" type="curve" smooth="yes"/>
      <point x="-11.3477" y="-140"/>
      <point x="-20.5" y="-156.942"/>
      <point x="-20.5" y="-178" type="curve" smooth="yes"/>
      <point x="-20.5" y="-220" type="line" smooth="yes"/>
      <point x="-20.5" y="-227.561"/>
      <point x="-33.1553" y="-235"/>
      <point x="-52" y="-235" type="curve" smooth="yes"/>
      <point x="-78" y="-235" type="line" smooth="yes"/>
      <point x="-97.0391" y="-235"/>
      <point x="-109.5" y="-227.635"/>
      <point x="-109.5" y="-220" type="curve" smooth="yes"/>
      <point x="-109.5" y="-175" type="line" smooth="yes"/>
      <point x="-109.5" y="-128.306"/>
      <point x="-77.5488" y="-96.5099"/>
      <point x="-45.5" y="-85.0347" type="curve"/>
    </contour>
  </outline>
</glyph>
<glyph name="uni0592" format="2">
  <advance width="0"/>
  <unicode hex="0592"/>
  <outline>
    <contour>
      <point x="-67" y="630" type="curve" smooth="yes"/>
      <point x="-97.8203" y="630"/>
      <point x="-121.5" y="655.105"/>
      <point x="-121.5" y="684.5" type="curve" smooth="yes"/>
      <point x="-121.5" y="714.459"/>
      <point x="-97.8652" y="740"/>
      <point x="-67" y="740" type="curve" smooth="yes"/>
      <point x="-36.0898" y="740"/>
      <point x="-12.5" y="714.452"/>
      <point x="-12.5" y="684.5" type="curve" smooth="yes"/>
      <point x="-12.5" y="655.104"/>
      <point x="-36.21" y="630"/>
    </contour>
    <contour>
      <point x="0" y="745" type="curve" smooth="yes"/>
      <point x="-30.6523" y="745"/>
      <point x="-55.5" y="769.86"/>
      <point x="-55.5" y="800.5" type="curve" smooth="yes"/>
      <point x="-55.5" y="830.6"/>
      <point x="-30.5693" y="855"/>
      <point x="0" y="855" type="curve" smooth="yes"/>
      <point x="30.5674" y="855"/>
      <point x="55.5" y="830.596"/>
      <point x="55.5" y="800.5" type="curve" smooth="yes"/>
      <point x="55.5" y="769.848"/>
      <point x="30.6396" y="745"/>
    </contour>
    <contour>
      <point x="67" y="630" type="curve" smooth="yes"/>
      <point x="36.1797" y="630"/>
      <point x="12.5" y="655.105"/>
      <point x="12.5" y="684.5" type="curve" smooth="yes"/>
      <point x="12.5" y="714.459"/>
      <point x="36.1348" y="740"/>
      <point x="67" y="740" type="curve" smooth="yes"/>
      <point x="97.9102" y="740"/>
      <point x="121.5" y="714.452"/>
      <point x="121.5" y="684.5" type="curve" smooth="yes"/>
      <point x="121.5" y="655.104"/>
      <point x="97.79" y="630"/>
    </contour>
  </outline>
</glyph>
<glyph name="uni0593" format="2">
  <advance width="0"/>
  <unicode hex="0593"/>
  <outline>
    <contour>
      <point x="-38.3623" y="642.403" type="curve" smooth="yes"/>
      <point x="-73.6475" y="669.612" type="line" smooth="yes"/>
      <point x="-79.1729" y="674.544"/>
      <point x="-80.5566" y="675.294"/>
      <point x="-84.2598" y="679.859" type="curve" smooth="yes"/>
      <point x="-89.959" y="686.888"/>
      <point x="-95.5342" y="697.541"/>
      <point x="-95.5342" y="709.329" type="curve" smooth="yes"/>
      <point x="-95.5342" y="730.404"/>
      <point x="-79.127" y="743"/>
      <point x="-60" y="743" type="curve" smooth="yes"/>
      <point x="-55.5" y="743" type="line"/>
      <point x="-73.5527" y="756.54" type="line" smooth="yes"/>
      <point x="-83.4082" y="765.069"/>
      <point x="-90.207" y="770.946"/>
      <point x="-93.9746" y="782.836" type="curve" smooth="yes"/>
      <point x="-95.1562" y="786.565"/>
      <point x="-95.5342" y="789.67"/>
      <point x="-95.5342" y="792.602" type="curve"/>
      <point x="-94.7217" y="796.072"/>
      <point x="-95.0625" y="814.801"/>
      <point x="-72.1807" y="820.588" type="curve" smooth="yes"/>
      <point x="-68.6436" y="821.482"/>
      <point x="-64.8721" y="822"/>
      <point x="-60" y="822" type="curve" smooth="yes"/>
      <point x="-52.5" y="822" type="line"/>
      <point x="-74.5" y="838.5" type="line" smooth="yes"/>
      <point x="-80.6592" y="843.656"/>
      <point x="-87.7792" y="849.164"/>
      <point x="-92.4795" y="858.389" type="curve" smooth="yes"/>
      <point x="-95.0312" y="863.396"/>
      <point x="-96.0342" y="868.167"/>
      <point x="-96.0342" y="872.345" type="curve"/>
      <point x="-94.3525" y="878.522"/>
      <point x="-94.5771" y="894.197"/>
      <point x="-71.7188" y="898.905" type="curve" smooth="yes"/>
      <point x="-67.1357" y="899.849"/>
      <point x="-62.5098" y="900"/>
      <point x="-60" y="900" type="curve" smooth="yes"/>
      <point x="13" y="900" type="line" smooth="yes"/>
      <point x="18.8311" y="899.62"/>
      <point x="28.8168" y="900.25"/>
      <point x="41.9053" y="894.268" type="curve" smooth="yes"/>
      <point x="42.6533" y="893.926"/>
      <point x="44.5165" y="893.003"/>
      <point x="45.5781" y="892.411" type="curve" smooth="yes"/>
      <point x="46.2617" y="892.03"/>
      <point x="47.8701" y="891.072"/>
      <point x="48.9189" y="890.37" type="curve" smooth="yes"/>
      <point x="49.539" y="889.955"/>
      <point x="50.8657" y="889.005"/>
      <point x="51.8721" y="888.213" type="curve" smooth="yes"/>
      <point x="66.168" y="876.965" type="line" smooth="yes"/>
      <point x="71.624" y="871.552"/>
      <point x="75.2939" y="868.596"/>
      <point x="79.0566" y="862.021" type="curve" smooth="yes"/>
      <point x="81.3369" y="858.034"/>
      <point x="83.4082" y="852.897"/>
      <point x="83.4082" y="846.815" type="curve" smooth="yes"/>
      <point x="83.4082" y="837.729"/>
      <point x="78.3258" y="824.792"/>
      <point x="59.5474" y="821.05" type="curve"/>
      <point x="75.5039" y="809.494" type="line" smooth="yes"/>
      <point x="81.3711" y="804.352"/>
      <point x="88.3555" y="798.58"/>
      <point x="92.665" y="789.482" type="curve" smooth="yes"/>
      <point x="95.0049" y="784.542"/>
      <point x="95.8955" y="779.976"/>
      <point x="95.8955" y="775.89" type="curve" smooth="yes"/>
      <point x="95.8955" y="759.156"/>
      <point x="81.9375" y="748"/>
      <point x="61" y="748" type="curve" smooth="yes"/>
      <point x="52.2861" y="748" type="line"/>
      <point x="75.6387" y="730.394" type="line" smooth="yes"/>
      <point x="81.5068" y="725.252"/>
      <point x="88.3555" y="719.58"/>
      <point x="92.665" y="710.482" type="curve" smooth="yes"/>
      <point x="95.0049" y="705.542"/>
      <point x="95.8955" y="700.976"/>
      <point x="95.8955" y="696.89" type="curve" smooth="yes"/>
      <point x="95.8955" y="680.156"/>
      <point x="81.9375" y="669"/>
      <point x="61" y="669" type="curve" smooth="yes"/>
      <point x="45.3329" y="669" type="line"/>
      <point x="47.1621" y="665.457"/>
      <point x="48.6465" y="661.089"/>
      <point x="48.6465" y="656.058" type="curve" smooth="yes"/>
      <point x="48.6465" y="645.635"/>
      <point x="41.7178" y="630"/>
      <point x="14" y="630" type="curve" smooth="yes"/>
      <point x="2" y="630" type="line" smooth="yes"/>
      <point x="-3.4707" y="630.179"/>
      <point x="-6.26367" y="630.027"/>
      <point x="-11.666" y="630.795" type="curve" smooth="yes"/>
      <point x="-18.3193" y="631.74"/>
      <point x="-23.4316" y="633.597"/>
      <point x="-27.9131" y="635.888" type="curve" smooth="yes"/>
      <point x="-32.1396" y="638.05"/>
      <point x="-36.3623" y="641.004"/>
    </contour>
  </outline>
</glyph>
<glyph name="uni0594" format="2">
  <advance width="0"/>
  <unicode hex="0594"/>
  <outline>
    <contour>
      <point x="0" y="740" type="curve" smooth="yes"/>
      <point x="30.6523" y="740"/>
      <point x="55.5" y="715.14"/>
      <point x="55.5" y="684.5" type="curve" smooth="yes"/>
      <point x="55.5" y="654.4"/>
      <point x="30.5693" y="630"/>
      <point x="0" y="630" type="curve" smooth="yes"/>
      <point x="-30.5674" y="630"/>
      <point x="-55.5" y="654.404"/>
      <point x="-55.5" y="684.5" type="curve" smooth="yes"/>
      <point x="-55.5" y="715.152"/>
      <point x="-30.6396" y="740"/>
    </contour>
    <contour>
      <point x="0" y="855" type="curve" smooth="yes"/>
      <point x="30.5674" y="855"/>
      <point x="55.5" y="830.596"/>
      <point x="55.5" y="800.5" type="curve" smooth="yes"/>
      <point x="55.5" y="769.848"/>
      <point x="30.6396" y="745"/>
      <point x="0" y="745" type="curve" smooth="yes"/>
      <point x="-30.6523" y="745"/>
      <point x="-55.5" y="769.86"/>
      <point x="-55.5" y="800.5" type="curve" smooth="yes"/>
      <point x="-55.5" y="830.6"/>
      <point x="-30.5693" y="855"/>
    </contour>
  </outline>
</glyph>
<glyph name="uni0597" format="2">
  <advance width="0"/>
  <unicode hex="0597"/>
  <outline>
    <contour>
      <point x="-68.8262" y="704.848" type="curve"/>
      <point x="-70.7207" y="706.344"/>
      <point x="-79.5264" y="709.964"/>
      <point x="-84.5361" y="722.17" type="curve" smooth="yes"/>
      <point x="-86.5996" y="727.198"/>
      <point x="-87.9082" y="732.377"/>
      <point x="-87.5" y="737.5" type="curve" smooth="yes"/>
      <point x="-86.7578" y="746.817"/>
      <point x="-86.8613" y="747.165"/>
      <point x="-84.5361" y="752.83" type="curve" smooth="yes"/>
      <point x="-81.8203" y="759.446"/>
      <point x="-76.7334" y="766.199"/>
      <point x="-68.8262" y="770.152" type="curve" smooth="yes"/>
      <point x="-51.7881" y="778.672"/>
      <point x="-36.7275" y="796.526"/>
      <point x="-29.8486" y="821.23" type="curve" smooth="yes"/>
      <point x="-27.3516" y="830.197"/>
      <point x="-18.0459" y="844.75"/>
      <point x="-0.375" y="844.75" type="curve" smooth="yes"/>
      <point x="17.6719" y="844.75"/>
      <point x="27.0352" y="829.879"/>
      <point x="29.7646" y="820.514" type="curve" smooth="yes"/>
      <point x="39.5898" y="786.811"/>
      <point x="61.0723" y="773.684"/>
      <point x="68.5342" y="770.292" type="curve"/>
      <point x="70.4287" y="768.796"/>
      <point x="79.5264" y="765.036"/>
      <point x="84.5361" y="752.83" type="curve" smooth="yes"/>
      <point x="86.5996" y="747.802"/>
      <point x="87.9082" y="742.623"/>
      <point x="87.5" y="737.5" type="curve" smooth="yes"/>
      <point x="86.7578" y="728.183"/>
      <point x="86.8613" y="727.835"/>
      <point x="84.5361" y="722.17" type="curve" smooth="yes"/>
      <point x="81.8203" y="715.554"/>
      <point x="76.7334" y="708.801"/>
      <point x="68.8262" y="704.848" type="curve" smooth="yes"/>
      <point x="51.7881" y="696.328"/>
      <point x="36.7285" y="678.474"/>
      <point x="29.8486" y="653.77" type="curve" smooth="yes"/>
      <point x="27.3359" y="644.749"/>
      <point x="17.7822" y="630.122"/>
      <point x="-0.28418" y="630.122" type="curve" smooth="yes"/>
      <point x="-18.0596" y="630.122"/>
      <point x="-27.4326" y="644.933"/>
      <point x="-29.8896" y="653.919" type="curve" smooth="yes"/>
      <point x="-36.6533" y="678.657"/>
      <point x="-51.7871" y="696.328"/>
    </contour>
  </outline>
</glyph>
<glyph name="uni059B" format="2">
  <advance width="0"/>
  <unicode hex="059B"/>
  <outline>
    <contour>
      <point x="-47" y="-45" type="curve" smooth="yes"/>
      <point x="-16.0898" y="-45"/>
      <point x="7.5" y="-70.5479"/>
      <point x="7.5" y="-100.5" type="curve" smooth="yes"/>
      <point x="7.5" y="-129.896"/>
      <point x="-16.21" y="-155"/>
      <point x="-47" y="-155" type="curve" smooth="yes"/>
      <point x="-77.5674" y="-155"/>
      <point x="-102.5" y="-130.596"/>
      <point x="-102.5" y="-100.5" type="curve" smooth="yes"/>
      <point x="-102.5" y="-69.8477"/>
      <point x="-77.6396" y="-45"/>
    </contour>
    <contour>
      <point x="38.6924" y="-36.9121" type="curve" smooth="yes"/>
      <point x="41.1318" y="-21.0928"/>
      <point x="54.6143" y="-10"/>
      <point x="70" y="-10" type="curve" smooth="yes"/>
      <point x="86.3818" y="-10"/>
      <point x="103.082" y="-23.0049"/>
      <point x="102.493" y="-41.8408" type="curve" smooth="yes"/>
      <point x="100.097" y="-118.477"/>
      <point x="72.1523" y="-207.399"/>
      <point x="6.59766" y="-255.42" type="curve" smooth="yes"/>
      <point x="-1.85156" y="-261.609"/>
      <point x="-11.7041" y="-265"/>
      <point x="-22" y="-265" type="curve" smooth="yes"/>
      <point x="-47.4648" y="-265"/>
      <point x="-69.5" y="-244.463"/>
      <point x="-69.5" y="-217.5" type="curve" smooth="yes"/>
      <point x="-69.5" y="-201.639"/>
      <point x="-59.7637" y="-184.919"/>
      <point x="-45.8848" y="-177.877" type="curve" smooth="yes"/>
      <point x="3.86816" y="-152.634"/>
      <point x="25.2002" y="-124.414"/>
    </contour>
  </outline>
</glyph>
<glyph name="uni059D" format="2">
  <advance width="0"/>
  <unicode hex="059D"/>
  <outline>
    <contour>
      <point x="-22.707" y="656.824" type="curve" smooth="yes"/>
      <point x="-25.2822" y="641.026"/>
      <point x="-38.6143" y="630"/>
      <point x="-54" y="630" type="curve" smooth="yes"/>
      <point x="-69.75" y="630"/>
      <point x="-85.8906" y="642.831"/>
      <point x="-85.4971" y="661.728" type="curve" smooth="yes"/>
      <point x="-83.9092" y="738.005"/>
      <point x="-55.1982" y="827.369"/>
      <point x="10.4023" y="875.42" type="curve" smooth="yes"/>
      <point x="18.8018" y="881.572"/>
      <point x="28.1182" y="885"/>
      <point x="38" y="885" type="curve" smooth="yes"/>
      <point x="64.2451" y="885"/>
      <point x="85.5" y="863.694"/>
      <point x="85.5" y="837.5" type="curve" smooth="yes"/>
      <point x="85.5" y="813.709"/>
      <point x="69.6621" y="801.322"/>
      <point x="62.8848" y="797.877" type="curve" smooth="yes"/>
      <point x="13.1562" y="772.601"/>
      <point x="-8.43555" y="744.368"/>
    </contour>
  </outline>
</glyph>
<glyph name="uni05A1" format="2">
  <advance width="0"/>
  <unicode hex="05A1"/>
  <outline>
    <contour>
      <point x="-16.5" y="755" type="line"/>
      <point x="-15" y="755" type="line" smooth="yes"/>
      <point x="-10.4697" y="755.174"/>
      <point x="-2.16309" y="754.957"/>
      <point x="5.17285" y="757.938" type="curve" smooth="yes"/>
      <point x="9.22559" y="759.584"/>
      <point x="12.5137" y="762.029"/>
      <point x="14.5049" y="768.237" type="curve" smooth="yes"/>
      <point x="15.4883" y="771.302"/>
      <point x="16.5" y="776.49"/>
      <point x="16.5" y="784.5" type="curve" smooth="yes"/>
      <point x="16.5" y="820.5" type="line" smooth="yes"/>
      <point x="16.5" y="839.4"/>
      <point x="32.6504" y="852"/>
      <point x="49" y="852" type="curve" smooth="yes"/>
      <point x="74" y="852" type="line" smooth="yes"/>
      <point x="90.3818" y="852"/>
      <point x="106.5" y="839.345"/>
      <point x="106.5" y="820.5" type="curve" smooth="yes"/>
      <point x="106.5" y="773.5" type="line" smooth="yes"/>
      <point x="106.5" y="710.7"/>
      <point x="66.0498" y="695"/>
      <point x="25" y="695" type="curve" smooth="yes"/>
      <point x="-16.5" y="695" type="line"/>
      <point x="-16.5" y="664.5" type="line" smooth="yes"/>
      <point x="-16.5" y="645.6"/>
      <point x="-32.6504" y="633"/>
      <point x="-49" y="633" type="curve" smooth="yes"/>
      <point x="-74" y="633" type="line" smooth="yes"/>
      <point x="-90.3818" y="633"/>
      <point x="-106.5" y="645.655"/>
      <point x="-106.5" y="664.5" type="curve" smooth="yes"/>
      <point x="-106.5" y="820.5" type="line" smooth="yes"/>
      <point x="-106.5" y="839.539"/>
      <point x="-90.542" y="852"/>
      <point x="-74" y="852" type="curve" smooth="yes"/>
      <point x="-49" y="852" type="line" smooth="yes"/>
      <point x="-32.6504" y="852"/>
      <point x="-16.5" y="839.4"/>
      <point x="-16.5" y="820.5" type="curve" smooth="yes"/>
    </contour>
  </outline>
</glyph>
<glyph name="uni05A3" format="2">
  <advance width="0"/>
  <unicode hex="05A3"/>
  <outline>
    <contour>
      <point x="62.5" y="-130" type="line"/>
      <point x="62.5" y="-42.5" type="line" smooth="yes"/>
      <point x="62.5" y="-24.2998"/>
      <point x="76.6846" y="-10"/>
      <point x="95" y="-10" type="curve" smooth="yes"/>
      <point x="100" y="-10" type="line" smooth="yes"/>
      <point x="118.2" y="-10"/>
      <point x="132.5" y="-24.1846"/>
      <point x="132.5" y="-42.5" type="curve" smooth="yes"/>
      <point x="132.5" y="-187.5" type="line" smooth="yes"/>
      <point x="132.5" y="-205.7"/>
      <point x="118.315" y="-220"/>
      <point x="100" y="-220" type="curve" smooth="yes"/>
      <point x="-100" y="-220" type="line" smooth="yes"/>
      <point x="-118.2" y="-220"/>
      <point x="-132.5" y="-205.815"/>
      <point x="-132.5" y="-187.5" type="curve" smooth="yes"/>
      <point x="-132.5" y="-162.5" type="line" smooth="yes"/>
      <point x="-132.5" y="-144.3"/>
      <point x="-118.315" y="-130"/>
      <point x="-100" y="-130" type="curve" smooth="yes"/>
    </contour>
  </outline>
</glyph>
<glyph name="uni05A7" format="2">
  <advance width="0"/>
  <unicode hex="05A7"/>
  <outline>
    <contour>
      <point x="75.6621" y="-169.427" type="line" smooth="yes"/>
      <point x="76.6377" y="-170.505"/>
      <point x="81.9482" y="-176.096"/>
      <point x="85.3955" y="-180.75" type="curve" smooth="yes"/>
      <point x="92.832" y="-190.789"/>
      <point x="94.3389" y="-199.808"/>
      <point x="94.9512" y="-204.772" type="curve" smooth="yes"/>
      <point x="95.4277" y="-208.632"/>
      <point x="95.5" y="-212.072"/>
      <point x="95.5" y="-214.5" type="curve" smooth="yes"/>
      <point x="95.5" y="-229.5" type="line" smooth="yes"/>
      <point x="95.1055" y="-231.896"/>
      <point x="94.3135" y="-239.213"/>
      <point x="93.5547" y="-241.487" type="curve" smooth="yes"/>
      <point x="88.6924" y="-256.075"/>
      <point x="76.4219" y="-264"/>
      <point x="65" y="-264" type="curve" smooth="yes"/>
      <point x="-65" y="-264" type="line"/>
      <point x="-71.4678" y="-262.167"/>
      <point x="-86.9307" y="-261.361"/>
      <point x="-93.5547" y="-241.487" type="curve" smooth="yes"/>
      <point x="-95.0713" y="-236.938"/>
      <point x="-95.5" y="-233.096"/>
      <point x="-95.5" y="-229.5" type="curve" smooth="yes"/>
      <point x="-95.5" y="-212.5" type="line" smooth="yes"/>
      <point x="-95.5" y="-196.343"/>
      <point x="-84.4238" y="-179"/>
      <point x="-65" y="-179" type="curve" smooth="yes"/>
      <point x="-10.249" y="-179" type="line"/>
      <point x="-73.374" y="-115.874" type="line" smooth="yes"/>
      <point x="-76.0576" y="-113.134"/>
      <point x="-81.7168" y="-107.753"/>
      <point x="-86.1309" y="-101.525" type="curve" smooth="yes"/>
      <point x="-93.0957" y="-91.6992"/>
      <point x="-94.4434" y="-83.0928"/>
      <point x="-95.0146" y="-78.3047" type="curve" smooth="yes"/>
      <point x="-95.2227" y="-76.5566"/>
      <point x="-95.5" y="-73.5801"/>
      <point x="-95.5" y="-69.5" type="curve" smooth="yes"/>
      <point x="-95.5" y="-54.5" type="line" smooth="yes"/>
      <point x="-95.5" y="-36.8496"/>
      <point x="-83.2998" y="-20"/>
      <point x="-65" y="-20" type="curve" smooth="yes"/>
      <point x="65" y="-20" type="line" smooth="yes"/>
      <point x="83.2998" y="-20"/>
      <point x="95.5" y="-36.8496"/>
      <point x="95.5" y="-54.5" type="curve" smooth="yes"/>
      <point x="95.5" y="-70.5" type="line" smooth="yes"/>
      <point x="95.5" y="-88.1504"/>
      <point x="83.2998" y="-105"/>
      <point x="65" y="-105" type="curve" smooth="yes"/>
      <point x="11.249" y="-105" type="line"/>
    </contour>
  </outline>
</glyph>
<glyph name="uni05A8" format="2">
  <advance width="0"/>
  <unicode hex="05A8"/>
  <outline>
    <contour>
      <point x="22.707" y="656.824" type="curve" smooth="yes"/>
      <point x="8.43359" y="744.373"/>
      <point x="-13.1436" y="772.594"/>
      <point x="-62.8848" y="797.877" type="curve" smooth="yes"/>
      <point x="-69.6621" y="801.322"/>
      <point x="-85.5" y="813.709"/>
      <point x="-85.5" y="837.5" type="curve" smooth="yes"/>
      <point x="-85.5" y="863.745"/>
      <point x="-64.1943" y="885"/>
      <point x="-38" y="885" type="curve" smooth="yes"/>
      <point x="-32.4131" y="885"/>
      <point x="-21.6631" y="883.695"/>
      <point x="-10.4023" y="875.42" type="curve" smooth="yes"/>
      <point x="55.1221" y="827.265"/>
      <point x="83.8545" y="738.004"/>
      <point x="85.4971" y="661.728" type="curve" smooth="yes"/>
      <point x="85.8359" y="645.98"/>
      <point x="72.9004" y="630"/>
      <point x="54" y="630" type="curve" smooth="yes"/>
      <point x="38.623" y="630"/>
      <point x="25.2695" y="641.108"/>
    </contour>
  </outline>
</glyph>
<glyph name="uni05AB" format="2">
  <advance width="0"/>
  <unicode hex="05AB"/>
  <outline>
    <contour>
      <point x="85" y="843" type="line" smooth="yes"/>
      <point x="85.5996" y="843"/>
      <point x="86.2002" y="844"/>
      <point x="91" y="844" type="curve" smooth="yes"/>
      <point x="110.594" y="844"/>
      <point x="126.5" y="828.046"/>
      <point x="126.5" y="808.5" type="curve"/>
      <point x="124.004" y="796.134"/>
      <point x="125.135" y="797.008"/>
      <point x="121.468" y="791.043" type="curve" smooth="yes"/>
      <point x="118.277" y="785.854"/>
      <point x="112.565" y="780.239"/>
      <point x="105.289" y="776.602" type="curve" smooth="yes"/>
      <point x="33.6846" y="746.636" type="line"/>
      <point x="101.577" y="718.717" type="line" smooth="yes"/>
      <point x="108.478" y="715.158"/>
      <point x="110.326" y="714.787"/>
      <point x="114.857" y="710.661" type="curve" smooth="yes"/>
      <point x="119.61" y="706.332"/>
      <point x="122.414" y="701.425"/>
      <point x="124.053" y="696.889" type="curve" smooth="yes"/>
      <point x="125.614" y="692.562"/>
      <point x="126.5" y="687.655"/>
      <point x="126.5" y="681.5" type="curve" smooth="yes"/>
      <point x="126.5" y="656.5" type="line" smooth="yes"/>
      <point x="126.5" y="639.925"/>
      <point x="116.125" y="628.875"/>
      <point x="100.562" y="628.875" type="curve" smooth="yes"/>
      <point x="96.2979" y="628.875"/>
      <point x="92.0781" y="629.912"/>
      <point x="88.5566" y="631.232" type="curve" smooth="yes"/>
      <point x="-105.513" y="712.259" type="line" smooth="yes"/>
      <point x="-119.308" y="717.564"/>
      <point x="-126.25" y="727.967"/>
      <point x="-126.25" y="738.5" type="curve" smooth="yes"/>
      <point x="-126.25" y="749.033"/>
      <point x="-119.314" y="759.433"/>
      <point x="-105.519" y="764.738" type="curve" smooth="yes"/>
      <point x="81.4863" y="843" type="line"/>
    </contour>
  </outline>
</glyph>
<glyph name="uni05AC" format="2">
  <advance width="0"/>
  <unicode hex="05AC"/>
  <outline>
    <contour>
      <point x="62.5" y="720" type="line"/>
      <point x="62.5" y="807.5" type="line" smooth="yes"/>
      <point x="62.5" y="825.7"/>
      <point x="76.6846" y="840"/>
      <point x="95" y="840" type="curve" smooth="yes"/>
      <point x="100" y="840" type="line" smooth="yes"/>
      <point x="118.2" y="840"/>
      <point x="132.5" y="825.815"/>
      <point x="132.5" y="807.5" type="curve" smooth="yes"/>
      <point x="132.5" y="662.5" type="line" smooth="yes"/>
      <point x="132.5" y="644.3"/>
      <point x="118.315" y="630"/>
      <point x="100" y="630" type="curve" smooth="yes"/>
      <point x="-100" y="630" type="line" smooth="yes"/>
      <point x="-118.2" y="630"/>
      <point x="-132.5" y="644.185"/>
      <point x="-132.5" y="662.5" type="curve" smooth="yes"/>
      <point x="-132.5" y="687.5" type="line" smooth="yes"/>
      <point x="-132.5" y="705.7"/>
      <point x="-118.315" y="720"/>
      <point x="-100" y="720" type="curve" smooth="yes"/>
    </contour>
  </outline>
</glyph>
<glyph name="uni05AD" format="2">
  <advance width="0"/>
  <unicode hex="05AD"/>
  <outline>
    <contour>
      <point x="-22.707" y="-36.8242" type="curve" smooth="yes"/>
      <point x="-8.43359" y="-124.373"/>
      <point x="13.1436" y="-152.594"/>
      <point x="62.8848" y="-177.877" type="curve" smooth="yes"/>
      <point x="69.6621" y="-181.322"/>
      <point x="85.5" y="-193.709"/>
      <point x="85.5" y="-217.5" type="curve" smooth="yes"/>
      <point x="85.5" y="-243.745"/>
      <point x="64.1943" y="-265"/>
      <point x="38" y="-265" type="curve" smooth="yes"/>
      <point x="32.4131" y="-265"/>
      <point x="21.6631" y="-263.695"/>
      <point x="10.4023" y="-255.42" type="curve" smooth="yes"/>
      <point x="-55.1221" y="-207.265"/>
      <point x="-83.8545" y="-118.004"/>
      <point x="-85.4971" y="-41.7275" type="curve" smooth="yes"/>
      <point x="-85.8359" y="-25.9805"/>
      <point x="-72.9004" y="-10"/>
      <point x="-54" y="-10" type="curve" smooth="yes"/>
      <point x="-38.623" y="-10"/>
      <point x="-25.2695" y="-21.1084"/>
    </contour>
  </outline>
</glyph>
<glyph name="uni05AF" format="2">
  <advance width="0"/>
  <unicode hex="05AF"/>
  <outline>
    <contour>
      <point x="-0" y="768" type="curve" smooth="yes"/>
      <point x="-17.3105" y="768"/>
      <point x="-31.5" y="753.804"/>
      <point x="-31.5" y="736.5" type="curve" smooth="yes"/>
      <point x="-31.5" y="719.189"/>
      <point x="-17.3037" y="705"/>
      <point x="-0" y="705" type="curve" smooth="yes"/>
      <point x="17.3105" y="705"/>
      <point x="31.5" y="719.196"/>
      <point x="31.5" y="736.5" type="curve" smooth="yes"/>
      <point x="31.5" y="753.811"/>
      <point x="17.3037" y="768"/>
    </contour>
    <contour>
      <point x="0" y="843" type="curve" smooth="yes"/>
      <point x="58.7041" y="843"/>
      <point x="106.5" y="795.202"/>
      <point x="106.5" y="736.5" type="curve" smooth="yes"/>
      <point x="106.5" y="677.796"/>
      <point x="58.7021" y="630"/>
      <point x="0" y="630" type="curve" smooth="yes"/>
      <point x="-58.7041" y="630"/>
      <point x="-106.5" y="677.798"/>
      <point x="-106.5" y="736.5" type="curve" smooth="yes"/>
      <point x="-106.5" y="795.204"/>
      <point x="-58.7021" y="843"/>
    </contour>
  </outline>
</glyph>
<glyph name="afii57801" format="2">
  <advance width="0"/>
  <unicode hex="05B1"/>
  <outline>
    <contour>
      <point x="-132" y="-10" type="curve" smooth="yes"/>
      <point x="-101.433" y="-10"/>
      <point x="-76.5" y="-34.4043"/>
      <point x="-76.5" y="-64.5" type="curve" smooth="yes"/>
      <point x="-76.5" y="-95.1523"/>
      <point x="-101.36" y="-120"/>
      <point x="-132" y="-120" type="curve" smooth="yes"/>
      <point x="-162.652" y="-120"/>
      <point x="-187.5" y="-95.1396"/>
      <point x="-187.5" y="-64.5" type="curve" smooth="yes"/>
      <point x="-187.5" y="-34.4004"/>
      <point x="-162.569" y="-10"/>
    </contour>
    <contour>
      <point x="-65" y="-125" type="curve" smooth="yes"/>
      <point x="-34.0898" y="-125"/>
      <point x="-10.5" y="-150.548"/>
      <point x="-10.5" y="-180.5" type="curve" smooth="yes"/>
      <point x="-10.5" y="-209.896"/>
      <point x="-34.21" y="-235"/>
      <point x="-65" y="-235" type="curve" smooth="yes"/>
      <point x="-95.8203" y="-235"/>
      <point x="-119.5" y="-209.895"/>
      <point x="-119.5" y="-180.5" type="curve" smooth="yes"/>
      <point x="-119.5" y="-150.541"/>
      <point x="-95.8652" y="-125"/>
    </contour>
    <contour>
      <point x="2" y="-10" type="curve" smooth="yes"/>
      <point x="32.5674" y="-10"/>
      <point x="57.5" y="-34.4043"/>
      <point x="57.5" y="-64.5" type="curve" smooth="yes"/>
      <point x="57.5" y="-95.1523"/>
      <point x="32.6396" y="-120"/>
      <point x="2" y="-120" type="curve" smooth="yes"/>
      <point x="-28.6523" y="-120"/>
      <point x="-53.5" y="-95.1396"/>
      <point x="-53.5" y="-64.5" type="curve" smooth="yes"/>
      <point x="-53.5" y="-34.4004"/>
      <point x="-28.5693" y="-10"/>
    </contour>
    <contour>
      <point x="132" y="-125" type="curve" smooth="yes"/>
      <point x="162.652" y="-125"/>
      <point x="187.5" y="-149.86"/>
      <point x="187.5" y="-180.5" type="curve" smooth="yes"/>
      <point x="187.5" y="-210.6"/>
      <point x="162.569" y="-235"/>
      <point x="132" y="-235" type="curve" smooth="yes"/>
      <point x="101.433" y="-235"/>
      <point x="76.5" y="-210.596"/>
      <point x="76.5" y="-180.5" type="curve" smooth="yes"/>
      <point x="76.5" y="-149.848"/>
      <point x="101.36" y="-125"/>
    </contour>
    <contour>
      <point x="132" y="-10" type="curve" smooth="yes"/>
      <point x="162.567" y="-10"/>
      <point x="187.5" y="-34.4043"/>
      <point x="187.5" y="-64.5" type="curve" smooth="yes"/>
      <point x="187.5" y="-95.1523"/>
      <point x="162.64" y="-120"/>
      <point x="132" y="-120" type="curve" smooth="yes"/>
      <point x="101.348" y="-120"/>
      <point x="76.5" y="-95.1396"/>
      <point x="76.5" y="-64.5" type="curve" smooth="yes"/>
      <point x="76.5" y="-34.4004"/>
      <point x="101.431" y="-10"/>
    </contour>
  </outline>
</glyph>
<glyph name="afii57800" format="2">
  <advance width="0"/>
  <unicode hex="05B2"/>
  <outline>
    <contour>
      <point x="-187.5" y="-52.5" type="line" smooth="yes"/>
      <point x="-187.5" y="-36.25"/>
      <point x="-174.5" y="-20"/>
      <point x="-155" y="-20" type="curve" smooth="yes"/>
      <point x="23" y="-20" type="line" smooth="yes"/>
      <point x="42.5" y="-20"/>
      <point x="55.5" y="-36.25"/>
      <point x="55.5" y="-52.5" type="curve" smooth="yes"/>
      <point x="55.5" y="-77.5" type="line" smooth="yes"/>
      <point x="55.5" y="-93.75"/>
      <point x="42.5" y="-110"/>
      <point x="23" y="-110" type="curve" smooth="yes"/>
      <point x="-155" y="-110" type="line" smooth="yes"/>
      <point x="-174.5" y="-110"/>
      <point x="-187.5" y="-93.75"/>
      <point x="-187.5" y="-77.5" type="curve" smooth="yes"/>
    </contour>
    <contour>
      <point x="131" y="-125" type="curve" smooth="yes"/>
      <point x="161.91" y="-125"/>
      <point x="185.5" y="-150.548"/>
      <point x="185.5" y="-180.5" type="curve" smooth="yes"/>
      <point x="185.5" y="-209.896"/>
      <point x="161.79" y="-235"/>
      <point x="131" y="-235" type="curve" smooth="yes"/>
      <point x="100.433" y="-235"/>
      <point x="75.5" y="-210.596"/>
      <point x="75.5" y="-180.5" type="curve" smooth="yes"/>
      <point x="75.5" y="-149.848"/>
      <point x="100.36" y="-125"/>
    </contour>
    <contour>
      <point x="131" y="-10" type="curve" smooth="yes"/>
      <point x="161.82" y="-10"/>
      <point x="185.5" y="-35.1055"/>
      <point x="185.5" y="-64.5" type="curve" smooth="yes"/>
      <point x="185.5" y="-94.459"/>
      <point x="161.865" y="-120"/>
      <point x="131" y="-120" type="curve" smooth="yes"/>
      <point x="100.348" y="-120"/>
      <point x="75.5" y="-95.1396"/>
      <point x="75.5" y="-64.5" type="curve" smooth="yes"/>
      <point x="75.5" y="-34.4004"/>
      <point x="100.431" y="-10"/>
    </contour>
  </outline>
</glyph>
<glyph name="afii57793" format="2">
  <advance width="0"/>
  <unicode hex="05B4"/>
  <outline>
    <contour>
      <point x="0" y="-10" type="curve" smooth="yes"/>
      <point x="30.5674" y="-10"/>
      <point x="55.5" y="-34.4043"/>
      <point x="55.5" y="-64.5" type="curve" smooth="yes"/>
      <point x="55.5" y="-95.1523"/>
      <point x="30.6396" y="-120"/>
      <point x="0" y="-120" type="curve" smooth="yes"/>
      <point x="-30.6523" y="-120"/>
      <point x="-55.5" y="-95.1396"/>
      <point x="-55.5" y="-64.5" type="curve" smooth="yes"/>
      <point x="-55.5" y="-34.4004"/>
      <point x="-30.5693" y="-10"/>
    </contour>
  </outline>
</glyph>
<glyph name="afii57797" format="2">
  <advance width="0"/>
  <unicode hex="05B8"/>
  <outline>
    <contour>
      <point x="47.9326" y="-151.701" type="line"/>
      <point x="47.5447" y="-152.79" type="line"/>
      <point x="49.1643" y="-155.374"/>
      <point x="50.7701" y="-158.484"/>
      <point x="52.1465" y="-162.279" type="curve" smooth="yes"/>
      <point x="54.2305" y="-168.026"/>
      <point x="55.3896" y="-174.288"/>
      <point x="55.3896" y="-180.81" type="curve" smooth="yes"/>
      <point x="55.3896" y="-210.909"/>
      <point x="30.459" y="-235.31"/>
      <point x="-0.110352" y="-235.31" type="curve" smooth="yes"/>
      <point x="-30.6777" y="-235.31"/>
      <point x="-55.6104" y="-210.905"/>
      <point x="-55.6104" y="-180.81" type="curve" smooth="yes"/>
      <point x="-55.6104" y="-166.037"/>
      <point x="-49.6064" y="-152.764"/>
      <point x="-41.2041" y="-143.202" type="curve" smooth="yes"/>
      <point x="-36.223" y="-137.534"/>
      <point x="-35.5869" y="-131.328"/>
      <point x="-35.5869" y="-125.229" type="curve" smooth="yes"/>
      <point x="-35.5869" y="-124.346"/>
      <point x="-35.55" y="-121.691"/>
      <point x="-35.6104" y="-120.81" type="curve" smooth="yes"/>
      <point x="-36.0277" y="-114.713"/>
      <point x="-34.5772" y="-111.738"/>
      <point x="-48.4521" y="-110.592" type="curve" smooth="yes"/>
      <point x="-48.9131" y="-110.554"/>
      <point x="-50.9102" y="-110.31"/>
      <point x="-56.1104" y="-110.31" type="curve" smooth="yes"/>
      <point x="-100.11" y="-110.31" type="line" smooth="yes"/>
      <point x="-118.311" y="-110.31"/>
      <point x="-132.61" y="-96.125"/>
      <point x="-132.61" y="-77.8096" type="curve" smooth="yes"/>
      <point x="-132.61" y="-52.8096" type="line" smooth="yes"/>
      <point x="-132.61" y="-34.6094"/>
      <point x="-118.426" y="-20.3096"/>
      <point x="-100.11" y="-20.3096" type="curve" smooth="yes"/>
      <point x="99.8896" y="-20.3096" type="line" smooth="yes"/>
      <point x="118.09" y="-20.3096"/>
      <point x="132.39" y="-34.4941"/>
      <point x="132.39" y="-52.8096" type="curve" smooth="yes"/>
      <point x="132.39" y="-77.8096" type="line" smooth="yes"/>
      <point x="132.39" y="-96.0098"/>
      <point x="118.205" y="-110.31"/>
      <point x="99.8896" y="-110.31" type="curve" smooth="yes"/>
      <point x="55.8896" y="-110.31" type="line" smooth="yes"/>
      <point x="51.0557" y="-110.479"/>
      <point x="49.2451" y="-110.467"/>
      <point x="47.5908" y="-110.598" type="curve" smooth="yes"/>
      <point x="36.1818" y="-111.498"/>
      <point x="35.3896" y="-112.409"/>
      <point x="35.3896" y="-120.81" type="curve" smooth="yes"/>
      <point x="35.3896" y="-121.687"/>
      <point x="35.3662" y="-124.315"/>
      <point x="35.3662" y="-125.192" type="curve" smooth="yes"/>
      <point x="35.3662" y="-131.209"/>
      <point x="35.5273" y="-137.53"/>
      <point x="41.167" y="-143.973" type="curve" smooth="yes"/>
    </contour>
  </outline>
</glyph>
<glyph name="afii57839" format="2">
  <advance width="0"/>
  <unicode hex="05BD"/>
  <outline>
    <contour>
      <point x="-45.5" y="-215" type="curve" smooth="yes"/>
      <point x="-45.5" y="-60" type="line" smooth="yes"/>
      <point x="-45.5" y="-31.588"/>
      <point x="-30.1904" y="-10"/>
      <point x="-12" y="-10" type="curve" smooth="yes"/>
      <point x="12" y="-10" type="line" smooth="yes"/>
      <point x="30.1562" y="-10"/>
      <point x="45.5" y="-31.6181"/>
      <point x="45.5" y="-60" type="curve" smooth="yes"/>
      <point x="45.5" y="-215" type="line" smooth="yes"/>
      <point x="45.5" y="-223.524"/>
      <point x="30.1904" y="-230"/>
      <point x="12" y="-230" type="curve" smooth="yes"/>
      <point x="-12" y="-230" type="line" smooth="yes"/>
      <point x="-30.1562" y="-230"/>
      <point x="-45.5" y="-223.515"/>
    </contour>
  </outline>
</glyph>
<glyph name="afii57842" format="2">
  <advance width="190"/>
  <unicode hex="05C0"/>
  <outline>
    <contour>
      <point x="82.5" y="-15" type="line" smooth="yes"/>
      <point x="64.2998" y="-15"/>
      <point x="50" y="-8.45312"/>
      <point x="50" y="0" type="curve" smooth="yes"/>
      <point x="50" y="645" type="line" smooth="yes"/>
      <point x="50" y="653.4"/>
      <point x="64.1846" y="660"/>
      <point x="82.5" y="660" type="curve" smooth="yes"/>
      <point x="107.5" y="660" type="line" smooth="yes"/>
      <point x="125.7" y="660"/>
      <point x="140" y="653.453"/>
      <point x="140" y="645" type="curve" smooth="yes"/>
      <point x="140" y="0" type="line" smooth="yes"/>
      <point x="140" y="-8.40039"/>
      <point x="125.815" y="-15"/>
      <point x="107.5" y="-15" type="curve" smooth="yes"/>
    </contour>
  </outline>
</glyph>
<glyph name="afii57803" format="2">
  <advance width="0"/>
  <unicode hex="05C2"/>
  <outline>
    <contour>
      <point x="171.5" y="704.999" type="curve"/>
      <point x="171.5" y="705" type="line"/>
      <point x="202.067" y="705"/>
      <point x="227" y="680.596"/>
      <point x="227" y="650.5" type="curve" smooth="yes"/>
      <point x="227" y="619.848"/>
      <point x="202.14" y="595"/>
      <point x="171.5" y="595" type="curve" smooth="yes"/>
      <point x="141.4" y="595"/>
      <point x="117" y="619.931"/>
      <point x="117" y="650.5" type="curve" smooth="yes"/>
      <point x="117" y="680.391"/>
      <point x="141.436" y="704.731"/>
    </contour>
  </outline>
</glyph>
<glyph name="afii57664" format="2">
  <advance width="628"/>
  <unicode hex="05D0"/>
  <outline>
    <contour>
      <point x="179.961" y="629.363" type="curve" smooth="yes"/>
      <point x="179.691" y="627.823"/>
      <point x="179.478" y="626.132"/>
      <point x="179.478" y="624.494" type="curve" smooth="yes"/>
      <point x="179.478" y="616.194"/>
      <point x="181.422" y="611.046"/>
      <point x="183.076" y="607.923" type="curve" smooth="yes"/>
      <point x="204.109" y="546.609"/>
      <point x="234.389" y="513.565"/>
      <point x="285.694" y="471.762" type="curve" smooth="yes"/>
      <point x="379.472" y="391.946" type="line"/>
      <point x="386.46" y="405.059"/>
      <point x="401.225" y="432.832"/>
      <point x="405.848" y="442.138" type="curve" smooth="yes"/>
      <point x="405.974" y="442.392"/>
      <point x="406.297" y="442.932"/>
      <point x="406.416" y="443.943" type="curve" smooth="yes"/>
      <point x="406.436" y="444.112"/>
      <point x="406.444" y="444.423"/>
      <point x="406.444" y="444.423" type="curve" smooth="yes"/>
      <point x="406.444" y="445.622"/>
      <point x="405.451" y="446.898"/>
      <point x="404.537" y="447.685" type="curve" smooth="yes"/>
      <point x="371.912" y="475.743"/>
      <point x="355.833" y="494.72"/>
      <point x="348.264" y="536.288" type="curve" smooth="yes"/>
      <point x="347.229" y="541.968"/>
      <point x="346.924" y="547.915"/>
      <point x="346.924" y="553.714" type="curve" smooth="yes"/>
      <point x="346.924" y="579.483"/>
      <point x="354.247" y="606.59"/>
      <point x="359.78" y="618" type="curve" smooth="yes"/>
      <point x="372.196" y="625.693"/>
      <point x="388.369" y="630.381"/>
      <point x="404.301" y="633.384" type="curve" smooth="yes"/>
      <point x="407.768" y="635.559"/>
      <point x="415.308" y="639.939"/>
      <point x="423.04" y="642.428" type="curve" smooth="yes"/>
      <point x="426.659" y="643.593"/>
      <point x="430.504" y="644.903"/>
      <point x="434.684" y="644.407" type="curve" smooth="yes"/>
      <point x="442.823" y="643.441"/>
      <point x="450.952" y="643.062"/>
      <point x="459.431" y="630.39" type="curve" smooth="yes"/>
      <point x="465.161" y="622.284"/>
      <point x="468.393" y="612.447"/>
      <point x="474.342" y="600.621" type="curve" smooth="yes"/>
      <point x="476.48" y="596.371"/>
      <point x="480.465" y="590.967"/>
      <point x="493.835" y="582.992" type="curve" smooth="yes"/>
      <point x="509.373" y="573.726"/>
      <point x="567.572" y="546.755"/>
      <point x="582.348" y="496.817" type="curve" smooth="yes"/>
      <point x="586.765" y="481.889"/>
      <point x="588.781" y="468.13"/>
      <point x="588.781" y="455.283" type="curve" smooth="yes"/>
      <point x="588.781" y="420.525"/>
      <point x="575.003" y="394.283"/>
      <point x="562.429" y="370.037" type="curve" smooth="yes"/>
      <point x="555.402" y="356.49"/>
      <point x="548.335" y="346.956"/>
      <point x="534.473" y="341.581" type="curve" smooth="yes"/>
      <point x="530.367" y="339.99"/>
      <point x="526.737" y="339.436"/>
      <point x="523.418" y="339.436" type="curve" smooth="yes"/>
      <point x="519.081" y="339.436"/>
      <point x="508.711" y="340.495"/>
      <point x="501.698" y="351.024" type="curve" smooth="yes"/>
      <point x="493.293" y="363.646"/>
      <point x="481.734" y="374.083"/>
      <point x="466.814" y="382.389" type="curve"/>
      <point x="466.32" y="382.575"/>
      <point x="466.289" y="382.611"/>
      <point x="465.772" y="382.674" type="curve" smooth="yes"/>
      <point x="465.533" y="382.704"/>
      <point x="465.422" y="382.696"/>
      <point x="465.422" y="382.696" type="curve"/>
      <point x="465.422" y="382.696"/>
      <point x="465.306" y="382.722"/>
      <point x="465.081" y="382.672" type="curve"/>
      <point x="465.094" y="382.658"/>
      <point x="465.088" y="382.617"/>
      <point x="465.039" y="382.526" type="curve" smooth="yes"/>
      <point x="435.833" y="331.015" type="line"/>
      <point x="516.507" y="268.594"/>
      <point x="572.432" y="221.247"/>
      <point x="578.955" y="135.83" type="curve" smooth="yes"/>
      <point x="579.211" y="132.481"/>
      <point x="579.34" y="128.935"/>
      <point x="579.34" y="125.527" type="curve" smooth="yes"/>
      <point x="579.34" y="86.2822"/>
      <point x="563.254" y="40.8975"/>
      <point x="527.482" y="13.875" type="curve" smooth="yes"/>
      <point x="523.153" y="10.4189"/>
      <point x="520.889" y="8.71191"/>
      <point x="516.091" y="5.98242" type="curve" smooth="yes"/>
      <point x="510.742" y="2.94043"/>
      <point x="503.919" y="-0.0664062"/>
      <point x="495.804" y="-0.0664062" type="curve"/>
      <point x="489.698" y="1.30469"/>
      <point x="476.691" y="0.712891"/>
      <point x="467.993" y="18.8955" type="curve" smooth="yes"/>
      <point x="464.019" y="27.2061"/>
      <point x="462.385" y="32.5547"/>
      <point x="459.087" y="65.7617" type="curve" smooth="yes"/>
      <point x="454.752" y="109.414"/>
      <point x="342.028" y="196.444"/>
      <point x="265.205" y="261.134" type="curve" smooth="yes"/>
      <point x="232.592" y="288.596"/>
      <point x="193.849" y="324.024"/>
      <point x="173.677" y="340.616" type="curve"/>
      <point x="163.624" y="329.025"/>
      <point x="154.854" y="316.279"/>
      <point x="154.854" y="303.177" type="curve" smooth="yes"/>
      <point x="154.854" y="302.721"/>
      <point x="154.856" y="301.693"/>
      <point x="154.91" y="301.24" type="curve" smooth="yes"/>
      <point x="159.784" y="260.67"/>
      <point x="222.895" y="229.054"/>
      <point x="260.778" y="175.619" type="curve" smooth="yes"/>
      <point x="268.447" y="164.802"/>
      <point x="279.5" y="141.451"/>
      <point x="279.5" y="107.625" type="curve" smooth="yes"/>
      <point x="279.5" y="80.7783"/>
      <point x="271.506" y="50.3301"/>
      <point x="247.197" y="28.4844" type="curve" smooth="yes"/>
      <point x="224.343" y="7.94531"/>
      <point x="200.583" y="0"/>
      <point x="169.5" y="0" type="curve" smooth="yes"/>
      <point x="80.5" y="0" type="line" smooth="yes"/>
      <point x="80.1494" y="0"/>
      <point x="79.0967" y="-0.0126953"/>
      <point x="78.7451" y="-0.0126953" type="curve" smooth="yes"/>
      <point x="56.2012" y="-0.0126953"/>
      <point x="50.5654" y="5.56445"/>
      <point x="50.5654" y="9.28223" type="curve"/>
      <point x="51.2637" y="10.4678"/>
      <point x="50.4365" y="12.0889"/>
      <point x="54.9395" y="15.1211" type="curve" smooth="yes"/>
      <point x="55.873" y="15.75"/>
      <point x="57.2012" y="16.5488"/>
      <point x="60.082" y="17.9619" type="curve" smooth="yes"/>
      <point x="62.7568" y="19.2734"/>
      <point x="67.2969" y="22.8271"/>
      <point x="70.7168" y="25" type="curve" smooth="yes"/>
      <point x="72.1191" y="27.1709"/>
      <point x="72.3213" y="29.1748"/>
      <point x="72.2773" y="31.1152" type="curve" smooth="yes"/>
      <point x="72.2607" y="31.8018"/>
      <point x="72.3916" y="34.1299"/>
      <point x="70.7109" y="37.8027" type="curve" smooth="yes"/>
      <point x="70.4102" y="38.459"/>
      <point x="69.7275" y="39.748"/>
      <point x="68.8828" y="41.0449" type="curve" smooth="yes"/>
      <point x="63.6953" y="49.0098"/>
      <point x="41.0615" y="79.4141"/>
      <point x="41.0615" y="136.84" type="curve" smooth="yes"/>
      <point x="41.0615" y="143.914"/>
      <point x="41.3799" y="151.402"/>
      <point x="42.0645" y="159.338" type="curve" smooth="yes"/>
      <point x="49.0879" y="240.727"/>
      <point x="63.252" y="276.297"/>
      <point x="125.578" y="348.453" type="curve"/>
      <point x="99.583" y="378.624"/>
      <point x="63.5928" y="411.975"/>
      <point x="56.2744" y="453.159" type="curve" smooth="yes"/>
      <point x="53.4932" y="468.813"/>
      <point x="51.8516" y="483.445"/>
      <point x="51.8516" y="497.738" type="curve" smooth="yes"/>
      <point x="51.8516" y="525.787"/>
      <point x="58.5039" y="551.746"/>
      <point x="71.7451" y="579.035" type="curve" smooth="yes"/>
      <point x="81.2959" y="598.717"/>
      <point x="103.864" y="623.975"/>
      <point x="121.479" y="634.492" type="curve" smooth="yes"/>
      <point x="127.484" y="638.073"/>
      <point x="131.071" y="639.779"/>
      <point x="137.727" y="641.771" type="curve" smooth="yes"/>
      <point x="138.538" y="642.013"/>
      <point x="140.951" y="642.636"/>
      <point x="141.833" y="642.823" type="curve" smooth="yes"/>
      <point x="142.669" y="643.001"/>
      <point x="145.061" y="643.401"/>
      <point x="146.054" y="643.515" type="curve" smooth="yes"/>
      <point x="146.923" y="643.613"/>
      <point x="149.353" y="643.769"/>
      <point x="150.43" y="643.769" type="curve" smooth="yes"/>
      <point x="168.202" y="643.769"/>
      <point x="180.051" y="638.496"/>
      <point x="180.051" y="630.586" type="curve" smooth="yes"/>
      <point x="180.051" y="630.357"/>
      <point x="180.001" y="629.592"/>
    </contour>
  </outline>
</glyph>
<glyph name="afii57667" format="2">
  <advance width="593"/>
  <unicode hex="05D3"/>
  <outline>
    <contour>
      <point x="193.098" y="601.819" type="curve" smooth="yes"/>
      <point x="469.5" y="601.819" type="line" smooth="yes"/>
      <point x="543.053" y="601.819"/>
      <point x="553.729" y="556.213"/>
      <point x="554.984" y="513.016" type="curve" smooth="yes"/>
      <point x="555.098" y="509.117"/>
      <point x="555.329" y="505.412"/>
      <point x="555.329" y="501.433" type="curve" smooth="yes"/>
      <point x="555.329" y="479.639"/>
      <point x="551.936" y="428.574"/>
      <point x="493.343" y="418.707" type="curve"/>
      <point x="500.998" y="368.286"/>
      <point x="524.687" y="217.605"/>
      <point x="530.868" y="166.011" type="curve" smooth="yes"/>
      <point x="532.069" y="155.985"/>
      <point x="532.461" y="146.031"/>
      <point x="532.461" y="140.981" type="curve" smooth="yes"/>
      <point x="532.461" y="112.824"/>
      <point x="527.636" y="71.4443"/>
      <point x="505.305" y="29.0859" type="curve" smooth="yes"/>
      <point x="500.804" y="20.5488"/>
      <point x="499.835" y="18.8252"/>
      <point x="494.636" y="13.0576" type="curve" smooth="yes"/>
      <point x="485.333" y="2.15723"/>
      <point x="472.823" y="-4.68652"/>
      <point x="459.518" y="-4.68652" type="curve" smooth="yes"/>
      <point x="436.384" y="-4.68652"/>
      <point x="419.979" y="13.8242"/>
      <point x="419.979" y="38.709" type="curve" smooth="yes"/>
      <point x="419.979" y="39.0732"/>
      <point x="419.994" y="40.0723"/>
      <point x="420.005" y="40.4355" type="curve" smooth="yes"/>
      <point x="426.971" y="416.944" type="line"/>
      <point x="125.5" y="416.944" type="line" smooth="yes"/>
      <point x="70.7695" y="416.944"/>
      <point x="39.8135" y="472.797"/>
      <point x="34.3213" y="500.543" type="curve" smooth="yes"/>
      <point x="32.5508" y="509.487"/>
      <point x="31.5986" y="518.659"/>
      <point x="31.5986" y="528.285" type="curve" smooth="yes"/>
      <point x="31.5986" y="564.731"/>
      <point x="42.6943" y="598.905"/>
      <point x="53.7588" y="619.027" type="curve" smooth="yes"/>
      <point x="57.6416" y="626.089"/>
      <point x="59.2793" y="629.846"/>
      <point x="65.1211" y="635.372" type="curve" smooth="yes"/>
      <point x="69.8994" y="640.14"/>
      <point x="77.0176" y="644.51"/>
      <point x="85.6436" y="644.51" type="curve"/>
      <point x="92.3018" y="642.733"/>
      <point x="98.3633" y="643.996"/>
      <point x="107.123" y="634.097" type="curve" smooth="yes"/>
      <point x="109.197" y="631.878"/>
      <point x="111.807" y="628.422"/>
      <point x="115.277" y="621.751" type="curve" smooth="yes"/>
      <point x="123.095" y="606.727"/>
      <point x="134.703" y="601.688"/>
      <point x="169.692" y="601.688" type="curve" smooth="yes"/>
      <point x="176.336" y="601.688"/>
      <point x="184.528" y="601.819"/>
    </contour>
  </outline>
</glyph>
<glyph name="afii57672" format="2">
  <advance width="646"/>
  <unicode hex="05D8"/>
  <outline>
    <contour>
      <point x="114.562" y="417.816" type="curve" smooth="yes"/>
      <point x="92.6533" y="423.927"/>
      <point x="85.4043" y="428.957"/>
      <point x="71.4004" y="441.661" type="curve" smooth="yes"/>
      <point x="57.0449" y="454.686"/>
      <point x="45.1045" y="471.697"/>
      <point x="38.8184" y="490.376" type="curve" smooth="yes"/>
      <point x="33.7725" y="505.369"/>
      <point x="32.6514" y="521.714"/>
      <point x="32.6514" y="535.372" type="curve" smooth="yes"/>
      <point x="32.6514" y="539.333"/>
      <point x="32.8525" y="542.932"/>
      <point x="33.0273" y="546.516" type="curve" smooth="yes"/>
      <point x="34.3105" y="572.815"/>
      <point x="45.3164" y="600.397"/>
      <point x="52.6982" y="611.337" type="curve" smooth="yes"/>
      <point x="54.8066" y="614.461"/>
      <point x="65.1943" y="631.267"/>
      <point x="77.5029" y="638.743" type="curve" smooth="yes"/>
      <point x="81.8584" y="641.534"/>
      <point x="87.7402" y="644.243"/>
      <point x="94.5586" y="643.999" type="curve" smooth="yes"/>
      <point x="96.4189" y="643.933"/>
      <point x="103.18" y="644.297"/>
      <point x="111.985" y="638.488" type="curve" smooth="yes"/>
      <point x="121.72" y="632.4"/>
      <point x="129.205" y="621.787"/>
      <point x="132.322" y="616.977" type="curve" smooth="yes"/>
      <point x="141.021" y="603.55"/>
      <point x="166.781" y="598.073"/>
      <point x="176.1" y="595.727" type="curve" smooth="yes"/>
      <point x="209.183" y="588.147"/>
      <point x="236.436" y="573.356"/>
      <point x="254.022" y="551.15" type="curve" smooth="yes"/>
      <point x="271.092" y="529.598"/>
      <point x="265" y="501.123"/>
      <point x="265" y="487.5" type="curve" smooth="yes"/>
      <point x="265" y="477.963"/>
      <point x="261.829" y="464.388"/>
      <point x="260" y="455" type="curve" smooth="yes"/>
      <point x="256.523" y="437.158"/>
      <point x="253.153" y="418.98"/>
      <point x="232.5" y="405" type="curve" smooth="yes"/>
      <point x="227.004" y="401.28"/>
      <point x="228.74" y="389.783"/>
      <point x="220.404" y="389.783" type="curve" smooth="yes"/>
      <point x="217.952" y="389.783"/>
      <point x="211.396" y="391.062"/>
      <point x="209.08" y="391.759" type="curve" smooth="yes"/>
      <point x="194.11" y="396.258"/>
      <point x="194.568" y="398.415"/>
      <point x="180.43" y="399.179" type="curve" smooth="yes"/>
      <point x="180.354" y="399.183"/>
      <point x="180.032" y="399.232"/>
      <point x="179.898" y="399.212" type="curve" smooth="yes"/>
      <point x="179.805" y="399.198" type="line" smooth="yes"/>
      <point x="179.27" y="398.985"/>
      <point x="178.192" y="397.782"/>
      <point x="177.541" y="396.588" type="curve" smooth="yes"/>
      <point x="164.004" y="369.368"/>
      <point x="156.57" y="344.988"/>
      <point x="156.998" y="310.653" type="curve" smooth="yes"/>
      <point x="157.559" y="265.682"/>
      <point x="160.752" y="240.236"/>
      <point x="169.697" y="190.293" type="curve"/>
      <point x="169.696" y="190.292"/>
      <point x="169.101" y="184.866"/>
      <point x="177.585" y="184.866" type="curve" smooth="yes"/>
      <point x="549.101" y="184.854" type="line"/>
      <point x="549.103" y="184.848"/>
      <point x="555.33" y="186.511"/>
      <point x="555.849" y="190.32" type="curve" smooth="yes"/>
      <point x="558.156" y="207.297"/>
      <point x="559.137" y="223.048"/>
      <point x="559.137" y="238.221" type="curve" smooth="yes"/>
      <point x="559.137" y="290.707"/>
      <point x="545.874" y="331.844"/>
      <point x="510.648" y="368.084" type="curve" smooth="yes"/>
      <point x="483.204" y="396.319"/>
      <point x="445.548" y="414.475"/>
      <point x="417.149" y="414.475" type="curve" smooth="yes"/>
      <point x="410.548" y="414.475"/>
      <point x="402.721" y="413.516"/>
      <point x="395.103" y="409.803" type="curve" smooth="yes"/>
      <point x="373.407" y="399.226"/>
      <point x="350.363" y="356.958"/>
      <point x="335.304" y="283.257" type="curve" smooth="yes"/>
      <point x="333.8" y="275.896"/>
      <point x="333.556" y="274.428"/>
      <point x="330.727" y="269.023" type="curve" smooth="yes"/>
      <point x="324.807" y="257.718"/>
      <point x="313.96" y="250.91"/>
      <point x="300.012" y="250.91" type="curve" smooth="yes"/>
      <point x="298.547" y="250.91"/>
      <point x="294.832" y="251.281"/>
      <point x="293.38" y="251.453" type="curve" smooth="yes"/>
      <point x="286.449" y="252.276"/>
      <point x="263.566" y="257.898"/>
      <point x="263.566" y="284.064" type="curve" smooth="yes"/>
      <point x="263.566" y="285.491"/>
      <point x="263.987" y="289.327"/>
      <point x="264.15" y="290.748" type="curve" smooth="yes"/>
      <point x="276.508" y="398.237"/>
      <point x="306.684" y="513.241"/>
      <point x="342.5" y="600" type="curve"/>
      <point x="343.068" y="600.675"/>
      <point x="348.786" y="615.406"/>
      <point x="384.483" y="615.406" type="curve" smooth="yes"/>
      <point x="385.5" y="615.406"/>
      <point x="388.591" y="615.284"/>
      <point x="389.604" y="615.201" type="curve" smooth="yes"/>
      <point x="490.648" y="606.961"/>
      <point x="574.042" y="544.191"/>
      <point x="613.543" y="383.453" type="curve" smooth="yes"/>
      <point x="623.379" y="343.429"/>
      <point x="627.336" y="301.664"/>
      <point x="627.336" y="260.189" type="curve" smooth="yes"/>
      <point x="627.336" y="179.055"/>
      <point x="612.399" y="99.583"/>
      <point x="595.612" y="35.9238" type="curve"/>
      <point x="595.36" y="35.4922"/>
      <point x="589.42" y="0"/>
      <point x="547.429" y="0" type="curve" smooth="yes"/>
      <point x="123.064" y="0.0107422" type="line"/>
      <point x="122.868" y="0.0947266"/>
      <point x="85.0879" y="1.75488"/>
      <point x="83.0283" y="34.6045" type="curve" smooth="yes"/>
      <point x="77.2412" y="126.919"/>
      <point x="77.0195" y="165.033"/>
      <point x="73.0156" y="252.91" type="curve" smooth="yes"/>
      <point x="72.9541" y="254.253"/>
      <point x="72.873" y="258.309"/>
      <point x="72.873" y="259.653" type="curve" smooth="yes"/>
      <point x="72.873" y="321.466"/>
      <point x="104.423" y="393.275"/>
      <point x="114.917" y="414.715" type="curve" smooth="yes"/>
      <point x="115.141" y="415.173"/>
      <point x="115.798" y="416.288"/>
      <point x="116.074" y="417.333" type="curve"/>
      <point x="115.796" y="417.448"/>
      <point x="115.351" y="417.597"/>
    </contour>
  </outline>
</glyph>
<glyph name="afii57676" format="2">
  <advance width="580"/>
  <unicode hex="05DC"/>
  <outline>
    <contour>
      <point x="44.8398" y="876.353" type="curve" smooth="yes"/>
      <point x="48.6992" y="887.199"/>
      <point x="59.085" y="899.462"/>
      <point x="77.7959" y="899.462" type="curve" smooth="yes"/>
      <point x="79.4551" y="899.462"/>
      <point x="84.5127" y="899.055"/>
      <point x="86.1543" y="898.798" type="curve" smooth="yes"/>
      <point x="144.728" y="889.62"/>
      <point x="177.416" y="825.629"/>
      <point x="177.053" y="794.5" type="curve" smooth="yes"/>
      <point x="177.014" y="791.179"/>
      <point x="177.399" y="787.48"/>
      <point x="173.893" y="778.405" type="curve" smooth="yes"/>
      <point x="162.964" y="749.325"/>
      <point x="130.084" y="727.235"/>
      <point x="119.296" y="710.155" type="curve" smooth="yes"/>
      <point x="113.262" y="700.601"/>
      <point x="111.875" y="690.447"/>
      <point x="111.875" y="664.516" type="curve" smooth="yes"/>
      <point x="111.875" y="656.042"/>
      <point x="112" y="646.126"/>
      <point x="112" y="634.5" type="curve" smooth="yes"/>
      <point x="112" y="628.565"/>
      <point x="111.751" y="623.279"/>
      <point x="111.828" y="618.863" type="curve" smooth="yes"/>
      <point x="112.092" y="603.898"/>
      <point x="111.989" y="603.351"/>
      <point x="124.455" y="602.169" type="curve" smooth="yes"/>
      <point x="124.485" y="602.166"/>
      <point x="126.33" y="601.79"/>
      <point x="133.5" y="601.79" type="curve" smooth="yes"/>
      <point x="435.458" y="601.79" type="line" smooth="yes"/>
      <point x="517.352" y="601.79"/>
      <point x="535.178" y="560.476"/>
      <point x="539.755" y="534.873" type="curve" smooth="yes"/>
      <point x="545.117" y="504.871"/>
      <point x="546.633" y="480.569"/>
      <point x="546.633" y="457.734" type="curve" smooth="yes"/>
      <point x="546.633" y="432.79"/>
      <point x="545" y="409.865"/>
      <point x="545" y="382.303" type="curve" smooth="yes"/>
      <point x="545" y="310.298"/>
      <point x="473.141" y="257.637"/>
      <point x="444.244" y="202.187" type="curve" smooth="yes"/>
      <point x="422.151" y="188.592"/>
      <point x="369.31" y="154.849"/>
      <point x="353.91" y="108.872" type="curve" smooth="yes"/>
      <point x="353.571" y="107.859"/>
      <point x="353.322" y="106.832"/>
      <point x="353.322" y="106.018" type="curve" smooth="yes"/>
      <point x="353.322" y="97.1826"/>
      <point x="373.289" y="83.9297"/>
      <point x="373.289" y="61.8418" type="curve" smooth="yes"/>
      <point x="373.289" y="21.7373"/>
      <point x="340.8" y="-5"/>
      <point x="304.5" y="-5" type="curve" smooth="yes"/>
      <point x="266.506" y="-5"/>
      <point x="239.858" y="9.03027"/>
      <point x="236.104" y="25" type="curve" smooth="yes"/>
      <point x="235.762" y="28.1807"/>
      <point x="235.615" y="30.9756"/>
      <point x="235.615" y="34.0869" type="curve" smooth="yes"/>
      <point x="235.615" y="88.4531"/>
      <point x="284.316" y="153.535"/>
      <point x="302.811" y="170.05" type="curve" smooth="yes"/>
      <point x="436.877" y="292.328"/>
      <point x="460.098" y="310.807"/>
      <point x="460.098" y="351.095" type="curve" smooth="yes"/>
      <point x="460.098" y="351.984"/>
      <point x="460.059" y="354.581"/>
      <point x="460.003" y="355.468" type="curve" smooth="yes"/>
      <point x="458.451" y="380.216"/>
      <point x="455.876" y="388.371"/>
      <point x="450.96" y="394.009" type="curve" smooth="yes"/>
      <point x="449.989" y="395.121"/>
      <point x="448.944" y="396.067"/>
      <point x="447.656" y="396.975" type="curve" smooth="yes"/>
      <point x="442.374" y="400.695"/>
      <point x="430.039" y="404.733"/>
      <point x="404.654" y="404.733" type="curve" smooth="yes"/>
      <point x="133.5" y="404.733" type="line" smooth="yes"/>
      <point x="63.8096" y="404.733"/>
      <point x="33" y="447.206"/>
      <point x="33" y="498.315" type="curve" smooth="yes"/>
      <point x="33" y="535.646"/>
      <point x="32.626" y="567.938"/>
      <point x="32.626" y="595.667" type="curve" smooth="yes"/>
      <point x="32.626" y="635.811"/>
      <point x="32.5811" y="681.822"/>
      <point x="41.9443" y="707.172" type="curve" smooth="yes"/>
      <point x="58.1123" y="750.906"/>
      <point x="74.04" y="756.379"/>
      <point x="78.0303" y="765.536" type="curve"/>
      <point x="76.8418" y="768.01"/>
      <point x="49.5498" y="789.923"/>
      <point x="44.0762" y="800.246" type="curve" smooth="yes"/>
      <point x="39.8721" y="808.176"/>
      <point x="39.25" y="818.756"/>
      <point x="39.25" y="829.125" type="curve" smooth="yes"/>
      <point x="39.25" y="839.199"/>
      <point x="39.9648" y="849.932"/>
      <point x="41.1348" y="858.671" type="curve" smooth="yes"/>
      <point x="41.8516" y="864.02"/>
      <point x="42.4395" y="869.606"/>
    </contour>
  </outline>
</glyph>
<glyph name="afii57677" format="2">
  <advance width="612"/>
  <unicode hex="05DD"/>
  <outline>
    <contour>
      <point x="207.073" y="600.958" type="curve" smooth="yes"/>
      <point x="423.253" y="600.958" type="line" smooth="yes"/>
      <point x="532.346" y="600.958"/>
      <point x="568.5" y="513.986"/>
      <point x="568.5" y="428.414" type="curve" smooth="yes"/>
      <point x="568.5" y="25" type="line" smooth="yes"/>
      <point x="568.5" y="15"/>
      <point x="559" y="0"/>
      <point x="521" y="0" type="curve" smooth="yes"/>
      <point x="96" y="0" type="line" smooth="yes"/>
      <point x="84.4541" y="0.744141"/>
      <point x="76.3662" y="1.49414"/>
      <point x="67.541" y="8.14551" type="curve" smooth="yes"/>
      <point x="64.8711" y="10.1572"/>
      <point x="62.2627" y="12.6396"/>
      <point x="59.751" y="16.3223" type="curve" smooth="yes"/>
      <point x="53.7705" y="24.623"/>
      <point x="52.5" y="34.4248"/>
      <point x="52.5" y="42.0811" type="curve" smooth="yes"/>
      <point x="53.5" y="244.604" type="line" smooth="yes"/>
      <point x="53.5" y="326.661"/>
      <point x="80.832" y="384.27"/>
      <point x="106.203" y="422.09" type="curve"/>
      <point x="70.6133" y="434.422"/>
      <point x="50.9736" y="468.489"/>
      <point x="44.7744" y="500.948" type="curve" smooth="yes"/>
      <point x="43.2393" y="508.985"/>
      <point x="42.6211" y="517.475"/>
      <point x="42.6211" y="526.137" type="curve" smooth="yes"/>
      <point x="42.6211" y="563.27"/>
      <point x="53.3164" y="598.393"/>
      <point x="64.2979" y="619.064" type="curve" smooth="yes"/>
      <point x="67.6387" y="625.354"/>
      <point x="69.6348" y="628.755"/>
      <point x="74.6201" y="633.879" type="curve" smooth="yes"/>
      <point x="79.5459" y="639.229"/>
      <point x="86.9785" y="644.51"/>
      <point x="96.6436" y="644.51" type="curve"/>
      <point x="103.263" y="642.749"/>
      <point x="109.117" y="644.033"/>
      <point x="118.016" y="634.326" type="curve" smooth="yes"/>
      <point x="120.1" y="632.116"/>
      <point x="123.291" y="628.355"/>
      <point x="126.697" y="621.602" type="curve" smooth="yes"/>
      <point x="134.199" y="606.722"/>
      <point x="143.971" y="600.823"/>
      <point x="183.698" y="600.823" type="curve" smooth="yes"/>
      <point x="191.024" y="600.823"/>
      <point x="198.861" y="600.958"/>
    </contour>
    <contour>
      <point x="413.25" y="440" type="curve" smooth="yes"/>
      <point x="185.089" y="440" type="line"/>
      <point x="169.544" y="411.986"/>
      <point x="151.5" y="372.906"/>
      <point x="151.5" y="314.5" type="curve" smooth="yes"/>
      <point x="151.5" y="202.5" type="line" smooth="yes"/>
      <point x="151.5" y="196.1"/>
      <point x="152.944" y="195"/>
      <point x="160.947" y="195" type="curve" smooth="yes"/>
      <point x="489.941" y="195" type="line" smooth="yes"/>
      <point x="495.813" y="195"/>
      <point x="500.5" y="195.009"/>
      <point x="500.5" y="206.5" type="curve" smooth="yes"/>
      <point x="500.5" y="361.5" type="line" smooth="yes"/>
      <point x="500.5" y="402.713"/>
      <point x="465.6" y="440"/>
    </contour>
  </outline>
</glyph>
<glyph name="afii57678" format="2">
  <advance width="686"/>
  <unicode hex="05DE"/>
  <outline>
    <contour>
      <point x="276.29" y="195.5" type="curve" smooth="yes"/>
      <point x="605.756" y="195.5" type="line"/>
      <point x="603.548" y="246.488"/>
      <point x="583.333" y="334.899"/>
      <point x="499.017" y="393.526" type="curve" smooth="yes"/>
      <point x="444.037" y="447.625"/>
      <point x="390.952" y="449.5"/>
      <point x="354.29" y="449.5" type="curve" smooth="yes"/>
      <point x="298.808" y="449.5"/>
      <point x="231.125" y="408.642"/>
      <point x="210.373" y="365.081" type="curve" smooth="yes"/>
      <point x="160.952" y="326.975"/>
      <point x="157.949" y="291.912"/>
      <point x="157.949" y="260.643" type="curve" smooth="yes"/>
      <point x="157.949" y="226.68"/>
      <point x="162.015" y="192.249"/>
      <point x="162.015" y="155.77" type="curve" smooth="yes"/>
      <point x="162.015" y="145.191"/>
      <point x="161.537" y="134.598"/>
      <point x="160.737" y="123.653" type="curve" smooth="yes"/>
      <point x="158.389" y="91.543"/>
      <point x="151.812" y="66.5566"/>
      <point x="142.466" y="44.3213" type="curve" smooth="yes"/>
      <point x="138.963" y="35.9883"/>
      <point x="130.303" y="16.4346"/>
      <point x="116.152" y="6.5459" type="curve" smooth="yes"/>
      <point x="111.574" y="3.34668"/>
      <point x="105.593" y="0.550781"/>
      <point x="98.3262" y="0.550781" type="curve"/>
      <point x="92.8379" y="1.50977"/>
      <point x="82.9102" y="0.150391"/>
      <point x="72.7588" y="16.0771" type="curve" smooth="yes"/>
      <point x="63.5693" y="29.7119"/>
      <point x="60.5332" y="52.1377"/>
      <point x="59.9463" y="56.3584" type="curve" smooth="yes"/>
      <point x="56.4688" y="81.3574"/>
      <point x="53.9355" y="104.891"/>
      <point x="53.9355" y="131.241" type="curve" smooth="yes"/>
      <point x="53.9355" y="151.218"/>
      <point x="55.3271" y="172.836"/>
      <point x="58.9492" y="197.927" type="curve" smooth="yes"/>
      <point x="67.2158" y="255.197"/>
      <point x="88.8193" y="311.269"/>
      <point x="109.638" y="350.646" type="curve" smooth="yes"/>
      <point x="110.474" y="352.229"/>
      <point x="110.877" y="353.701"/>
      <point x="110.877" y="355.002" type="curve" smooth="yes"/>
      <point x="110.877" y="356.611"/>
      <point x="110.275" y="359.414"/>
      <point x="106.313" y="363.051" type="curve" smooth="yes"/>
      <point x="103.748" y="365.404" type="line"/>
      <point x="103.516" y="365.928" type="line"/>
      <point x="76.8105" y="391.159"/>
      <point x="45.6758" y="433.362"/>
      <point x="41.8867" y="468.242" type="curve" smooth="yes"/>
      <point x="40.6084" y="480.015"/>
      <point x="39.4189" y="491.112"/>
      <point x="39.4189" y="502.585" type="curve" smooth="yes"/>
      <point x="39.4189" y="524.913"/>
      <point x="43.8936" y="548.121"/>
      <point x="57.457" y="575.392" type="curve" smooth="yes"/>
      <point x="69.6035" y="599.812"/>
      <point x="86.2695" y="615.781"/>
      <point x="100.323" y="626.63" type="curve" smooth="yes"/>
      <point x="108.198" y="633.058"/>
      <point x="118.076" y="637.585"/>
      <point x="128.344" y="637.341" type="curve" smooth="yes"/>
      <point x="130.379" y="637.292"/>
      <point x="137.872" y="637.918"/>
      <point x="147.457" y="631.619" type="curve" smooth="yes"/>
      <point x="157.314" y="629.836"/>
      <point x="163.978" y="627.04"/>
      <point x="174.878" y="623.979" type="curve" smooth="yes"/>
      <point x="177.607" y="623.214"/>
      <point x="177.647" y="623.352"/>
      <point x="180.49" y="622.978" type="curve" smooth="yes"/>
      <point x="192.006" y="621.46"/>
      <point x="182.779" y="622.692"/>
      <point x="183.733" y="622.587" type="curve" smooth="yes"/>
      <point x="194.879" y="621.348"/>
      <point x="215.275" y="619.577"/>
      <point x="229.021" y="618" type="curve" smooth="yes"/>
      <point x="260.799" y="604.741"/>
      <point x="283.331" y="567.053"/>
      <point x="297.438" y="511.412" type="curve"/>
      <point x="315.589" y="531.362"/>
      <point x="323.69" y="572.512"/>
      <point x="328.899" y="621.78" type="curve" smooth="yes"/>
      <point x="331.439" y="645.775"/>
      <point x="347.496" y="660.43"/>
      <point x="368.154" y="660.43" type="curve" smooth="yes"/>
      <point x="368.85" y="660.43"/>
      <point x="370.876" y="660.348"/>
      <point x="371.57" y="660.299" type="curve" smooth="yes"/>
      <point x="462.555" y="653.919"/>
      <point x="513.593" y="612.384"/>
      <point x="567.472" y="566.658" type="curve" smooth="yes"/>
      <point x="654.584" y="479.188"/>
      <point x="671.066" y="341.494"/>
      <point x="672.789" y="203.402" type="curve" smooth="yes"/>
      <point x="673.023" y="184.613"/>
      <point x="664.105" y="160.527"/>
      <point x="662.608" y="155.906" type="curve" smooth="yes"/>
      <point x="611.117" y="31.5234" type="line"/>
      <point x="610.698" y="30.7441" type="line" smooth="yes"/>
      <point x="609.37" y="28.4863"/>
      <point x="607.478" y="25.1465"/>
      <point x="606.595" y="23.7979" type="curve" smooth="yes"/>
      <point x="588.122" y="7.92285"/>
      <point x="563.848" y="0.5"/>
      <point x="529.29" y="0.5" type="curve" smooth="yes"/>
      <point x="213.29" y="0.5" type="line" smooth="yes"/>
      <point x="156.82" y="0.5"/>
      <point x="177.5" y="6.75781"/>
      <point x="177.5" y="25" type="curve" smooth="yes"/>
      <point x="177.5" y="29.9404"/>
      <point x="182.227" y="46.4893"/>
      <point x="185" y="52.5" type="curve" smooth="yes"/>
      <point x="228.954" y="163.264" type="line" smooth="yes"/>
      <point x="239.285" y="189.299"/>
      <point x="259.632" y="195.5"/>
    </contour>
  </outline>
</glyph>
<glyph name="afii57679" format="2">
  <advance width="308"/>
  <unicode hex="05DF"/>
  <outline>
    <contour>
      <point x="39.9883" y="484.294" type="curve" smooth="yes"/>
      <point x="33.4199" y="504.944"/>
      <point x="31.6719" y="524.736"/>
      <point x="31.6719" y="541.611" type="curve" smooth="yes"/>
      <point x="31.6719" y="545.196"/>
      <point x="31.8525" y="548.697"/>
      <point x="32.0264" y="552.03" type="curve" smooth="yes"/>
      <point x="32.9512" y="569.01"/>
      <point x="42.2422" y="603.365"/>
      <point x="52.6982" y="617.842" type="curve" smooth="yes"/>
      <point x="54.8047" y="620.533"/>
      <point x="65.1934" y="635.001"/>
      <point x="77.5029" y="641.438" type="curve" smooth="yes"/>
      <point x="81.8584" y="642.767"/>
      <point x="87.7402" y="644.057"/>
      <point x="94.5586" y="643.939" type="curve" smooth="yes"/>
      <point x="96.4189" y="643.908"/>
      <point x="103.18" y="644.082"/>
      <point x="111.985" y="641.31" type="curve" smooth="yes"/>
      <point x="121.72" y="636.429"/>
      <point x="129.203" y="627.919"/>
      <point x="132.322" y="624.062" type="curve" smooth="yes"/>
      <point x="140.667" y="605.223"/>
      <point x="166.452" y="598.841"/>
      <point x="175.737" y="595.852" type="curve" smooth="yes"/>
      <point x="203.527" y="590.311"/>
      <point x="225.429" y="585.525"/>
      <point x="245.592" y="568.935" type="curve" smooth="yes"/>
      <point x="264.546" y="554.232"/>
      <point x="271.921" y="534.507"/>
      <point x="271.921" y="515.025" type="curve" smooth="yes"/>
      <point x="271.921" y="488.042"/>
      <point x="261.777" y="450.459"/>
      <point x="236.874" y="425.556" type="curve" smooth="yes"/>
      <point x="229.088" y="417.77"/>
      <point x="221.25" y="406.53"/>
      <point x="220.154" y="404.13" type="curve" smooth="yes"/>
      <point x="203.877" y="368.462"/>
      <point x="193.334" y="348.36"/>
      <point x="189.881" y="319.898" type="curve" smooth="yes"/>
      <point x="188.871" y="311.574"/>
      <point x="188.568" y="302.523"/>
      <point x="188.568" y="292.782" type="curve" smooth="yes"/>
      <point x="188.568" y="254.204"/>
      <point x="195.62" y="206.992"/>
      <point x="202.755" y="165.771" type="curve" smooth="yes"/>
      <point x="214.424" y="96.0654"/>
      <point x="228.895" y="-43.1455"/>
      <point x="228.895" y="-110.022" type="curve" smooth="yes"/>
      <point x="228.895" y="-120.945"/>
      <point x="228.457" y="-127.646"/>
      <point x="227.885" y="-131.979" type="curve" smooth="yes"/>
      <point x="222.546" y="-173.797"/>
      <point x="204.994" y="-214.809"/>
      <point x="169.975" y="-264.153" type="curve" smooth="yes"/>
      <point x="168.716" y="-265.537"/>
      <point x="165.062" y="-268.896"/>
      <point x="163.726" y="-269.971" type="curve" smooth="yes"/>
      <point x="155.168" y="-275.939"/>
      <point x="144.441" y="-280.024"/>
      <point x="132.153" y="-280.024" type="curve"/>
      <point x="119.16" y="-278.78"/>
      <point x="109.645" y="-278.367"/>
      <point x="102.411" y="-270.397" type="curve" smooth="yes"/>
      <point x="99.958" y="-266.901"/>
      <point x="98.8779" y="-263.109"/>
      <point x="98.8779" y="-259.177" type="curve" smooth="yes"/>
      <point x="98.8779" y="-257.978"/>
      <point x="98.9814" y="-254.196"/>
      <point x="99.0625" y="-253.002" type="curve" smooth="yes"/>
      <point x="104.969" y="-188.774"/>
      <point x="109.941" y="-111.517"/>
      <point x="111.002" y="-23.5869" type="curve" smooth="yes"/>
      <point x="111.102" y="-15.3467"/>
      <point x="111.245" y="-7.3418"/>
      <point x="111.245" y="0.334961" type="curve" smooth="yes"/>
      <point x="111.245" y="73.1602"/>
      <point x="104.479" y="124.084"/>
      <point x="104.479" y="197.313" type="curve" smooth="yes"/>
      <point x="104.479" y="208.477"/>
      <point x="104.64" y="220.14"/>
      <point x="105.008" y="232.453" type="curve" smooth="yes"/>
      <point x="107.193" y="305.59"/>
      <point x="120.463" y="353.307"/>
      <point x="149.175" y="414.084" type="curve"/>
      <point x="131.323" y="414.298"/>
      <point x="113.357" y="414.604"/>
      <point x="91.959" y="415.374" type="curve" smooth="yes"/>
      <point x="72.3613" y="426.286"/>
      <point x="49.751" y="452.081"/>
    </contour>
  </outline>
</glyph>
<glyph name="afii57680" format="2">
  <advance width="382"/>
  <unicode hex="05E0"/>
  <outline>
    <contour>
      <point x="234.5" y="0" type="curve" smooth="yes"/>
      <point x="41.5" y="0" type="line" smooth="yes"/>
      <point x="20.2842" y="0"/>
      <point x="6.14062" y="12.2705"/>
      <point x="6.14062" y="30.6758" type="curve" smooth="yes"/>
      <point x="6.14062" y="35.2158"/>
      <point x="7.05762" y="40.293"/>
      <point x="9.23828" y="45.9619" type="curve" smooth="yes"/>
      <point x="57.3623" y="163.268" type="line" smooth="yes"/>
      <point x="66.8223" y="185.341"/>
      <point x="83.1826" y="195"/>
      <point x="104.5" y="195" type="curve" smooth="yes"/>
      <point x="229.5" y="195" type="line" smooth="yes"/>
      <point x="233.857" y="195.415"/>
      <point x="233.071" y="194.844"/>
      <point x="233.604" y="195.085" type="curve"/>
      <point x="233.812" y="195.635"/>
      <point x="234.121" y="195.434"/>
      <point x="234.121" y="197.999" type="curve" smooth="yes"/>
      <point x="234.121" y="198.374"/>
      <point x="234.072" y="199.508"/>
      <point x="234.044" y="199.881" type="curve" smooth="yes"/>
      <point x="231.117" y="238.546"/>
      <point x="229.9" y="266.343"/>
      <point x="229.9" y="289.665" type="curve" smooth="yes"/>
      <point x="229.9" y="330.375"/>
      <point x="233.618" y="356.508"/>
      <point x="238.007" y="401.73" type="curve" smooth="yes"/>
      <point x="238.007" y="405.751"/>
      <point x="236.046" y="407.891"/>
      <point x="232.02" y="408.446" type="curve" smooth="yes"/>
      <point x="192.45" y="413.904"/>
      <point x="156.365" y="418.978"/>
      <point x="125.522" y="446.062" type="curve" smooth="yes"/>
      <point x="111.097" y="458.732"/>
      <point x="99.1045" y="475.553"/>
      <point x="92.8184" y="493.823" type="curve" smooth="yes"/>
      <point x="87.7725" y="508.488"/>
      <point x="86.6514" y="524.476"/>
      <point x="86.6514" y="537.835" type="curve" smooth="yes"/>
      <point x="86.6514" y="541.709"/>
      <point x="86.8525" y="545.229"/>
      <point x="87.0273" y="548.734" type="curve" smooth="yes"/>
      <point x="88.3105" y="574.46"/>
      <point x="99.2529" y="601.476"/>
      <point x="106.698" y="612.138" type="curve" smooth="yes"/>
      <point x="113.709" y="622.18"/>
      <point x="122.993" y="635.812"/>
      <point x="138.274" y="641.521" type="curve" smooth="yes"/>
      <point x="142.1" y="643.062"/>
      <point x="146.423" y="644.427"/>
      <point x="150.778" y="643.999" type="curve" smooth="yes"/>
      <point x="159.14" y="643.179"/>
      <point x="159.474" y="643.243"/>
      <point x="164.486" y="640.992" type="curve" smooth="yes"/>
      <point x="175.664" y="636.231"/>
      <point x="185.122" y="625.045"/>
      <point x="190.322" y="617.102" type="curve" smooth="yes"/>
      <point x="198.804" y="604.143"/>
      <point x="228.136" y="598.504"/>
      <point x="239.146" y="595.83" type="curve" smooth="yes"/>
      <point x="284.92" y="584.714"/>
      <point x="317.947" y="556.393"/>
      <point x="326.596" y="518.906" type="curve" smooth="yes"/>
      <point x="329.127" y="507.936"/>
      <point x="330.233" y="497.788"/>
      <point x="330.233" y="488.424" type="curve" smooth="yes"/>
      <point x="330.233" y="441.698"/>
      <point x="305.006" y="420.347"/>
      <point x="304.999" y="403.355" type="curve" smooth="yes"/>
      <point x="304.999" y="402.877"/>
      <point x="304.981" y="401.326"/>
      <point x="304.981" y="400.847" type="curve" smooth="yes"/>
      <point x="304.981" y="335.714"/>
      <point x="342.82" y="276.998"/>
      <point x="347.975" y="184.382" type="curve" smooth="yes"/>
      <point x="348.889" y="167.956"/>
      <point x="349.853" y="152.825"/>
      <point x="349.853" y="138.131" type="curve" smooth="yes"/>
      <point x="349.853" y="107.934"/>
      <point x="345.878" y="79.0869"/>
      <point x="330.188" y="49.0674" type="curve" smooth="yes"/>
      <point x="304.397" y="-0.277344"/>
      <point x="252.357" y="0"/>
    </contour>
  </outline>
</glyph>
